SplineFontDB: 3.0
FontName: MScore
FullName: MScore for scores
FamilyName: MScore
Weight: Regular
Copyright: This font is distributed under the GNU General Public License. As a special exception, if you create a document which uses this font, and embed this font or unaltered portions of this font into the document, this font does not by itself cause the resulting document to be covered by the GNU General Public License.
Version:
DefaultBaseFilename: mscore
ItalicAngle: 0
UnderlinePosition: -51
UnderlineWidth: 51
Ascent: 819
Descent: 205
InvalidEm: 0
sfntRevision: 0x00010000
LayerCount: 2
Layer: 0 0 "Back" 1
Layer: 1 0 "Fore" 0
XUID: [1021 1018 279506845 5927418]
OS2Version: 3
OS2_WeightWidthSlopeOnly: 0
OS2_UseTypoMetrics: 1
CreationTime: 1403170689
ModificationTime: 1479032495
PfmFamily: 17
TTFWeight: 400
TTFWidth: 5
LineGap: 90
VLineGap: 0
Panose: 2 0 5 3 0 0 0 0 0 0
OS2TypoAscent: 819
OS2TypoAOffset: 0
OS2TypoDescent: -205
OS2TypoDOffset: 0
OS2TypoLinegap: 0
OS2WinAscent: 2509
OS2WinAOffset: 0
OS2WinDescent: 1912
OS2WinDOffset: 0
HheadAscent: 2509
HheadAOffset: 0
HheadDescent: -1912
HheadDOffset: 0
OS2SubXSize: 666
OS2SubYSize: 716
OS2SubXOff: 0
OS2SubYOff: 143
OS2SupXSize: 666
OS2SupYSize: 716
OS2SupXOff: 0
OS2SupYOff: 490
OS2StrikeYSize: 50
OS2StrikeYPos: 264
OS2Vendor: 'PfEd'
OS2CodePages: 00000001.00000000
OS2UnicodeRanges: 00000001.10000000.00000000.00000000
Lookup: 258 0 0 "'kern' Horizontal Kerning in Latin lookup 0" { "'kern' Horizontal Kerning in Latin lookup 0 subtable"  } ['kern' ('latn' <'dflt' > ) ]
MarkAttachClasses: 1
DEI: 91125
LangName: 1033
Encoding: UnicodeBmp
UnicodeInterp: none
NameList: Adobe Glyph List
DisplaySize: -96
AntiAlias: 1
FitToEm: 1
WinInfo: 58760 8 7
BeginPrivate: 7
BlueValues 21 [0 0 256 257 478 478]
OtherBlues 11 [-141 -141]
BlueShift 2 20
StdHW 4 [24]
StdVW 4 [38]
StemSnapH 26 [24 30 34 40 44 55 80 102]
StemSnapV 20 [32 38 44 50 59 100]
EndPrivate
BeginChars: 65539 298

StartChar: .notdef
Encoding: 65536 -1 0
Width: 371
Flags: MW
HStem: 0 34<68 271 68 305> 648 34<68 271 68 68>
VStem: 34 34<34 34 34 648> 271 34<34 648 648 648>
LayerCount: 2
Fore
SplineSet
34 0 m 1
 34 682 l 1
 305 682 l 1
 305 0 l 1
 34 0 l 1
68 34 m 1
 271 34 l 1
 271 648 l 1
 68 648 l 1
 68 34 l 1
EndSplineSet
Validated: 1
EndChar

StartChar: plus
Encoding: 43 43 2
Width: 256
GlyphClass: 2
Flags: MW
HStem: 230 52<22.5 102 26 102 154 230>
VStem: 102 52<154 230 282 358>
LayerCount: 2
Fore
SplineSet
128 128 m 0
 121 128 115 131 110 136 c 0
 105 141 102 147 102 154 c 2
 102 230 l 1
 26 230 l 2
 19 230 13 233 8 238 c 0
 3 243 0 249 0 256 c 0
 0 263 2 269 7 274 c 0
 12 279 18 282 26 282 c 2
 102 282 l 1
 102 358 l 2
 102 365 105 371 110 376 c 0
 115 381 121 384 128 384 c 0
 135 384 141 381 146 376 c 0
 151 371 154 365 154 358 c 2
 154 282 l 1
 230 282 l 2
 237 282 243 279 248 274 c 0
 253 269 256 263 256 256 c 0
 256 249 254 243 249 238 c 0
 244 233 238 230 230 230 c 2
 154 230 l 1
 154 154 l 2
 154 147 151 141 146 136 c 0
 141 131 135 128 128 128 c 0
EndSplineSet
Validated: 1
EndChar

StartChar: comma
Encoding: 44 44 3
Width: 117
GlyphClass: 2
Flags: MW
VStem: 68 50
LayerCount: 2
Fore
SplineSet
68 -37 m 0
 68 -26 64 -16 57 -9 c 0
 50 -2 42 3 34 6 c 0
 26 9 18 15 11 24 c 0
 4 33 0 44 0 58 c 0
 0 74 6 88 17 100 c 0
 28 112 42 118 58 118 c 0
 75 118 89 112 100 100 c 0
 112 89 118 75 118 58 c 0
 118 1 98 -70 58 -153 c 0
 55 -158 51 -161 46 -161 c 0
 42 -161 38 -160 35 -157 c 0
 32 -154 30 -151 30 -146 c 0
 30 -144 36 -129 49 -102 c 0
 62 -75 68 -54 68 -37 c 0
EndSplineSet
Validated: 1
EndChar

StartChar: hyphen
Encoding: 45 45 4
Width: 169
GlyphClass: 2
Flags: MW
HStem: 156 29<10 156 15 156>
VStem: 0 171<165.5 175>
LayerCount: 2
Fore
SplineSet
156 156 m 2
 15 156 l 2
 5 156 0 161 0 170 c 0
 0 180 5 185 15 185 c 2
 156 185 l 2
 166 185 171 180 171 170 c 0
 171 161 166 156 156 156 c 2
EndSplineSet
Validated: 1
EndChar

StartChar: period
Encoding: 46 46 5
Width: 117
GlyphClass: 2
Flags: MW
HStem: 0 118<51 67>
VStem: 0 118<51 67>
LayerCount: 2
Fore
SplineSet
0 59 m 0
 0 75 6 89 18 100 c 0
 29 112 43 118 59 118 c 0
 75 118 89 112 100 100 c 0
 112 89 118 75 118 59 c 0
 118 43 112 29 100 18 c 0
 89 6 75 0 59 0 c 0
 43 0 29 6 18 18 c 0
 6 29 0 43 0 59 c 0
EndSplineSet
Validated: 1
EndChar

StartChar: uniE09A
Encoding: 57498 57498 6
Width: 1024
GlyphClass: 2
LayerCount: 2
Back
SplineSet
368 28 m 0xf8
 351 28 334 34 316 48 c 0
 300 60 291 79 291 104 c 0xf8
 291 125 298 143 312 159 c 0
 325 175 343 183 365 183 c 0
 371 183 376 183 379 182 c 1
 348 222 307 242 256 243 c 0
 235 243 217 240 202 234 c 0
 187 227 176 219 168 210 c 0
 161 201 155 187 150 168 c 0
 145 150 142 133 142 116 c 0
 140 100 140 79 140 52 c 2
 140 0 l 1
 140 -52 l 2
 140 -79 140 -100 142 -117 c 0
 143 -134 145 -151 150 -169 c 0
 155 -187 161 -201 168 -210 c 0
 176 -219 187 -227 202 -234 c 0
 217 -241 235 -244 256 -244 c 0
 295 -244 330 -229 358 -200 c 0
 388 -170 407 -133 418 -89 c 0
 420 -82 424 -79 430 -79 c 0
 439 -79 443 -83 443 -91 c 0xf4
 443 -96 441 -105 437 -118 c 0
 433 -130 426 -145 416 -162 c 0
 407 -180 395 -197 382 -213 c 0
 368 -229 350 -242 328 -253 c 0
 306 -264 282 -269 256 -269 c 0
 223 -269 193 -264 164 -256 c 0
 135 -246 108 -232 83 -212 c 0
 58 -192 37 -164 22 -128 c 0
 8 -91 0 -49 0 0 c 0
 0 81 22 146 66 194 c 0
 109 244 173 268 256 268 c 0
 310 268 354 249 386 212 c 0
 420 174 436 137 436 101 c 0
 436 80 430 63 416 49 c 0
 404 35 387 28 368 28 c 0xf8
EndSplineSet
Fore
Validated: 1
EndChar

StartChar: uniE0A2
Encoding: 57506 57506 7
Width: 506
GlyphClass: 2
Flags: W
HStem: -141 26<277.5 288> 115 26<220 229.5>
VStem: 0 150<9.5 20> 357 150<-20 -9.5>
LayerCount: 2
Fore
SplineSet
220 115 m 0
 197 115 179 107 168 90 c 0
 156 74 150 52 150 25 c 0
 150 -6 158 -33 175 -56 c 0
 192 -78 210 -93 230 -102 c 0
 249 -111 268 -115 287 -115 c 0
 310 -115 328 -107 340 -90 c 0
 351 -74 357 -52 357 -25 c 0
 357 6 349 33 332 56 c 0
 315 78 297 93 278 102 c 0
 258 111 239 115 220 115 c 0
254 141 m 0
 326 141 386 127 434 99 c 0
 483 71 507 38 507 0 c 0
 507 -40 482 -74 432 -100 c 0
 381 -128 322 -141 254 -141 c 0
 183 -141 123 -127 74 -99 c 0
 25 -71 0 -38 0 0 c 0
 0 40 25 74 76 100 c 0
 127 128 186 141 254 141 c 0
EndSplineSet
Validated: 1
EndChar

StartChar: uniE0A3
Encoding: 57507 57507 8
Width: 355
GlyphClass: 2
Flags: W
HStem: -141 32<70 85.5 70 124.5> 109 32<270.5 285.5>
VStem: 0 33<-72.5 -61.5 -72.5 -55.5> 323 33<61.5 72.5>
LayerCount: 2
Fore
SplineSet
323 67 m 0
 323 78 319 88 310 96 c 0
 301 105 291 109 280 109 c 0
 261 109 220 89 159 49 c 0
 98 9 59 -20 44 -38 c 0
 37 -47 33 -56 33 -67 c 0
 33 -78 37 -88 46 -96 c 0
 54 -105 64 -109 76 -109 c 0
 95 -109 136 -89 198 -49 c 0
 259 -9 297 20 312 38 c 0
 319 46 323 56 323 67 c 0
270 141 m 0
 327 141 356 116 356 67 c 0
 356 43 349 15 335 -17 c 0
 321 -49 302 -73 279 -89 c 0
 227 -124 163 -141 86 -141 c 0
 29 -141 0 -116 0 -67 c 0
 0 -44 7 -17 21 16 c 0
 35 49 54 73 77 89 c 0
 129 124 193 141 270 141 c 0
EndSplineSet
Validated: 1
EndChar

StartChar: uniE101
Encoding: 57601 57601 9
Width: 439
GlyphClass: 2
Flags: HMW
LayerCount: 2
Fore
SplineSet
10 -269 m 2
 3 -269 0 -265 0 -258 c 0
 0 -256 0 -254 1 -253 c 2
 317 264 l 2
 319 267 322 269 327 269 c 2
 429 269 l 2
 436 269 439 265 439 258 c 0
 439 257 438 256 437 253 c 2
 122 -264 l 2
 120 -267 117 -269 113 -269 c 2
 10 -269 l 2
EndSplineSet
Validated: 1
EndChar

StartChar: uniE102
Encoding: 57602 57602 10
Width: 773
GlyphClass: 2
Flags: MW
HStem: -269 71<120 411 120 445> 198 71<360 652 360 360>
LayerCount: 2
Fore
SplineSet
120 -198 m 1
 411 -198 l 1
 652 198 l 1
 360 198 l 1
 120 -198 l 1
10 -269 m 2
 3 -269 0 -265 0 -258 c 0
 0 -256 0 -254 1 -253 c 2
 317 264 l 2
 319 267 322 269 327 269 c 2
 762 269 l 2
 769 269 772 265 772 258 c 0
 772 257 771 256 770 253 c 2
 455 -264 l 2
 453 -267 450 -269 445 -269 c 2
 10 -269 l 2
EndSplineSet
Validated: 1
EndChar

StartChar: uniE103
Encoding: 57603 57603 11
Width: 601
GlyphClass: 2
Flags: MW
HStem: -269 71<120 240 120 273> 198 71<360 480 360 360>
LayerCount: 2
Fore
SplineSet
120 -198 m 1
 240 -198 l 1
 480 198 l 1
 360 198 l 1
 120 -198 l 1
10 -269 m 2
 3 -269 0 -265 0 -258 c 0
 0 -256 0 -254 1 -253 c 2
 317 264 l 2
 319 267 322 269 327 269 c 2
 590 269 l 2
 597 269 600 265 600 258 c 0
 600 256 600 254 599 253 c 2
 283 -264 l 2
 281 -267 278 -269 273 -269 c 2
 10 -269 l 2
EndSplineSet
Validated: 1
EndChar

StartChar: uniE1B0
Encoding: 57776 57776 12
Width: 347
GlyphClass: 2
Flags: MW
HStem: -138 32<71.5 76.5 68.5 121.5> 106 31<270.5 276.5 226 278.5>
VStem: 0 32<-70.5 -60 -70.5 -57.5> 315 32<59.5 70.5>
LayerCount: 2
Fore
SplineSet
315 65 m 0
 315 76 311 86 302 94 c 0
 293 102 284 106 273 106 c 0
 268 106 264 106 261 105 c 0
 242 100 204 78 147 41 c 0
 90 4 55 -22 43 -37 c 0
 36 -46 32 -55 32 -65 c 0
 32 -76 36 -86 45 -94 c 0
 54 -102 63 -106 74 -106 c 0
 79 -106 83 -106 86 -105 c 0
 106 -99 144 -78 201 -41 c 0
 258 -4 293 22 305 37 c 0
 312 44 315 54 315 65 c 0
264 137 m 0
 289 137 310 131 324 119 c 0
 340 107 347 89 347 65 c 0
 347 49 344 30 337 9 c 0
 322 -36 301 -68 272 -87 c 0
 221 -121 159 -138 84 -138 c 0
 59 -138 39 -132 24 -120 c 0
 8 -107 0 -89 0 -65 c 0
 0 -50 4 -32 11 -9 c 0
 26 36 47 68 75 87 c 0
 125 120 188 137 264 137 c 0
EndSplineSet
Validated: 1
EndChar

StartChar: uniE1B1
Encoding: 57777 57777 13
Width: 347
GlyphClass: 2
Flags: MW
HStem: -138 275<71.5 276.5>
CounterMasks: 1 e0
LayerCount: 2
Fore
SplineSet
264 137 m 0
 289 137 310 131 324 119 c 0
 340 107 347 89 347 65 c 0
 347 49 344 30 337 9 c 0
 322 -36 301 -68 272 -87 c 0
 221 -121 159 -138 84 -138 c 0
 59 -138 39 -132 24 -120 c 0
 8 -107 0 -89 0 -65 c 0
 0 -50 4 -32 11 -9 c 0
 26 36 47 68 75 87 c 0
 125 120 188 137 264 137 c 0
EndSplineSet
Validated: 1
EndChar

StartChar: uniE1B2
Encoding: 57778 57778 14
Width: 355
GlyphClass: 2
Flags: MW
HStem: -115 44<20 311 45 311 45 334> 71 44<45 45 45 311>
VStem: 0 45<-71 71 -71 93 -71 96> 311 44<-71 71 71 71>
LayerCount: 2
Fore
SplineSet
45 71 m 1
 45 -71 l 1
 311 -71 l 1
 311 71 l 1
 45 71 l 1
23 115 m 2
 334 115 l 2
 340 115 345 113 349 108 c 0
 353 104 355 99 355 93 c 2
 355 -93 l 2
 355 -99 353 -104 349 -108 c 0
 345 -113 340 -115 334 -115 c 2
 23 -115 l 2
 17 -115 12 -113 7 -108 c 0
 2 -104 0 -99 0 -93 c 2
 0 93 l 2
 0 99 2 104 7 108 c 0
 12 113 17 115 23 115 c 2
EndSplineSet
Validated: 1
EndChar

StartChar: uniE1B3
Encoding: 57779 57779 15
Width: 336
GlyphClass: 2
Flags: MW
HStem: -115 230<20 314 23 314>
VStem: 0 337<-93 93 -96 96>
LayerCount: 2
Fore
SplineSet
23 115 m 2
 314 115 l 2
 320 115 325 113 330 108 c 0
 335 104 337 99 337 93 c 2
 337 -93 l 2
 337 -99 335 -104 330 -108 c 0
 326 -113 321 -115 314 -115 c 2
 23 -115 l 2
 17 -115 12 -113 7 -108 c 0
 2 -104 0 -99 0 -93 c 2
 0 93 l 2
 0 99 2 104 7 108 c 0
 12 113 17 115 23 115 c 2
EndSplineSet
Validated: 1
EndChar

StartChar: uniE1B4
Encoding: 57780 57780 16
Width: 355
GlyphClass: 2
Flags: MW
HStem: -115 44<20 252 45 252 45 334>
VStem: 0 45<-71 53 -71 93 -71 96>
LayerCount: 2
Fore
SplineSet
252 -71 m 1
 45 53 l 1
 45 -71 l 1
 252 -71 l 1
355 -91 m 0
 355 -98 353 -104 349 -108 c 0
 345 -113 340 -115 334 -115 c 2
 23 -115 l 2
 17 -115 12 -113 7 -108 c 0
 2 -104 0 -99 0 -93 c 2
 0 93 l 2
 0 99 2 104 6 108 c 0
 11 113 16 115 23 115 c 0
 26 115 32 113 40 108 c 2
 340 -71 l 2
 350 -77 355 -84 355 -91 c 0
EndSplineSet
Validated: 1
EndChar

StartChar: uniE1B5
Encoding: 57781 57781 17
Width: 336
GlyphClass: 2
Flags: MW
HStem: -115 230<20 23 23 25 19.5 314>
VStem: 0 337<-93 -89 -96 93 -96 96>
LayerCount: 2
Fore
SplineSet
337 -93 m 0
 337 -99 335 -104 330 -108 c 0
 326 -113 321 -115 314 -115 c 2
 23 -115 l 2
 17 -115 12 -113 7 -108 c 0
 2 -104 0 -99 0 -93 c 2
 0 93 l 2
 0 99 2 104 6 108 c 0
 11 113 16 115 23 115 c 0
 27 115 31 114 35 112 c 2
 327 -74 l 2
 334 -79 337 -85 337 -93 c 0
EndSplineSet
Validated: 1
EndChar

StartChar: uniE1B6
Encoding: 57782 57782 18
Width: 355
GlyphClass: 2
Flags: MW
HStem: 71 44<103 103 103 311>
VStem: 311 44<-53 71 71 71>
LayerCount: 2
Fore
SplineSet
103 71 m 1
 311 -53 l 1
 311 71 l 1
 103 71 l 1
0 93 m 0
 0 99 2 104 6 108 c 0
 11 113 16 115 23 115 c 2
 334 115 l 2
 340 115 345 113 349 108 c 0
 353 104 355 99 355 93 c 2
 355 -93 l 2
 355 -99 353 -104 349 -108 c 0
 345 -113 340 -115 334 -115 c 0
 329 -115 325 -114 322 -112 c 2
 11 74 l 2
 4 78 0 84 0 93 c 0
EndSplineSet
Validated: 1
EndChar

StartChar: uniE1B7
Encoding: 57783 57783 19
Width: 336
GlyphClass: 2
Flags: MW
HStem: -115 230<312 314 314 317 23 317.5>
VStem: 0 337<89 93 -96 96>
LayerCount: 2
Fore
SplineSet
0 93 m 0
 0 99 2 104 6 108 c 0
 11 113 16 115 23 115 c 2
 314 115 l 2
 320 115 325 113 330 108 c 0
 335 104 337 99 337 93 c 2
 337 -93 l 2
 337 -99 335 -104 330 -108 c 0
 326 -113 321 -115 314 -115 c 0
 310 -115 306 -114 302 -112 c 2
 10 74 l 2
 3 79 0 85 0 93 c 0
EndSplineSet
Validated: 1
EndChar

StartChar: uniE1B8
Encoding: 57784 57784 20
Width: 336
GlyphClass: 2
Flags: HMW
LayerCount: 2
Fore
SplineSet
75 6 m 1
 179 -59 l 1
 262 -6 l 1
 158 59 l 1
 75 6 l 1
10 -18 m 2
 3 -13 0 -7 0 0 c 0
 0 7 3 13 10 18 c 2
 157 112 l 2
 161 114 165 115 169 115 c 0
 172 115 176 114 180 112 c 2
 327 18 l 2
 334 13 337 7 337 0 c 0
 337 -7 334 -13 327 -18 c 2
 180 -112 l 2
 176 -114 172 -115 169 -115 c 0
 165 -115 161 -114 157 -112 c 2
 10 -18 l 2
EndSplineSet
Validated: 1
EndChar

StartChar: uniE1B9
Encoding: 57785 57785 21
Width: 336
GlyphClass: 2
Flags: MW
HStem: -115 230<167 170.5>
VStem: 0 337<-3.5 3.5>
CounterMasks: 1 38
LayerCount: 2
Fore
SplineSet
10 -18 m 2
 3 -13 0 -7 0 0 c 0
 0 7 3 13 10 18 c 2
 157 112 l 2
 161 114 165 115 169 115 c 0
 172 115 176 114 180 112 c 2
 327 18 l 2
 334 13 337 7 337 0 c 0
 337 -7 334 -13 327 -18 c 2
 180 -112 l 2
 176 -114 172 -115 169 -115 c 0
 165 -115 161 -114 157 -112 c 2
 10 -18 l 2
EndSplineSet
Validated: 1
EndChar

StartChar: uniE1BA
Encoding: 57786 57786 22
Width: 355
GlyphClass: 2
Flags: MW
HStem: -115 44<71 286 71 334>
LayerCount: 2
Fore
SplineSet
71 -71 m 1
 286 -71 l 1
 178 58 l 1
 71 -71 l 1
23 -115 m 2
 17 -115 12 -113 7 -108 c 0
 2 -104 0 -99 0 -93 c 0
 0 -88 2 -84 5 -79 c 2
 161 108 l 2
 165 113 171 116 178 116 c 0
 185 116 191 113 196 108 c 2
 350 -79 l 2
 353 -84 355 -88 355 -93 c 0
 355 -99 353 -104 349 -108 c 0
 345 -113 340 -115 334 -115 c 2
 23 -115 l 2
EndSplineSet
Validated: 1
EndChar

StartChar: uniE1BB
Encoding: 57787 57787 23
Width: 336
GlyphClass: 2
Flags: MW
HStem: -115 231<20 172.5 165.5 172.5 165.5 314>
VStem: 0 337<-96 -90.5>
LayerCount: 2
Fore
SplineSet
23 -115 m 2
 17 -115 12 -113 7 -108 c 0
 2 -104 0 -99 0 -93 c 0
 0 -88 2 -83 5 -79 c 2
 151 106 l 2
 156 113 162 116 169 116 c 0
 176 116 182 113 187 106 c 2
 332 -79 l 2
 335 -83 337 -88 337 -93 c 0
 337 -99 335 -104 330 -108 c 0
 326 -113 321 -115 314 -115 c 2
 23 -115 l 2
EndSplineSet
Validated: 1
EndChar

StartChar: uniE1BC
Encoding: 57788 57788 24
Width: 355
GlyphClass: 2
Flags: MW
HStem: -115 44<160 196 160 202.5> 71 44<45 45 45 311>
VStem: 0 45<37 71 21.5 93> 311 44<37 71 71 71>
LayerCount: 2
Fore
SplineSet
45 71 m 1
 45 37 l 2
 45 6 58 -20 84 -40 c 0
 111 -61 142 -71 178 -71 c 0
 214 -71 245 -61 272 -40 c 0
 298 -20 311 6 311 37 c 2
 311 71 l 1
 45 71 l 1
0 93 m 2
 0 99 2 104 6 108 c 0
 11 113 16 115 23 115 c 2
 334 115 l 2
 340 115 345 113 349 108 c 0
 353 104 355 99 355 93 c 2
 355 37 l 2
 355 -7 338 -43 303 -72 c 0
 268 -101 227 -115 178 -115 c 0
 129 -115 88 -101 52 -72 c 0
 18 -43 0 -7 0 37 c 2
 0 93 l 2
EndSplineSet
Validated: 1
EndChar

StartChar: uniE1BD
Encoding: 57789 57789 25
Width: 336
GlyphClass: 2
Flags: MW
HStem: -115 230<146 192>
VStem: 0 337<37 93 15.5 96>
LayerCount: 2
Fore
SplineSet
0 93 m 2
 0 99 2 104 6 108 c 0
 11 113 16 115 23 115 c 2
 314 115 l 2
 320 115 325 113 330 108 c 0
 335 104 337 99 337 93 c 2
 337 37 l 2
 337 -6 320 -42 288 -72 c 0
 254 -100 215 -115 169 -115 c 0
 123 -115 83 -100 50 -72 c 0
 17 -42 0 -6 0 37 c 2
 0 93 l 2
EndSplineSet
Validated: 1
EndChar

StartChar: uniE1BE
Encoding: 57790 57790 26
Width: 355
GlyphClass: 2
Flags: MW
HStem: -115 50<178 178 178 180.5> 71 44<162.5 193.5 162.5 201>
LayerCount: 2
Fore
SplineSet
178 -65 m 1
 299 28 l 1
 264 57 224 71 178 71 c 0
 133 71 92 57 57 28 c 1
 178 -65 l 1
178 115 m 0
 209 115 240 109 268 96 c 0
 298 84 319 71 334 57 c 0
 349 43 356 32 356 25 c 0
 356 19 353 13 347 8 c 2
 191 -111 l 2
 188 -114 183 -115 178 -115 c 0
 172 -115 167 -114 164 -111 c 2
 9 8 l 2
 3 13 0 18 0 25 c 0
 0 33 7 44 22 58 c 0
 37 71 59 84 88 96 c 0
 116 109 147 115 178 115 c 0
EndSplineSet
Validated: 1
EndChar

StartChar: uniE1BF
Encoding: 57791 57791 27
Width: 336
GlyphClass: 2
Flags: MW
HStem: -115 230<166 171.5>
VStem: 0 337<21.5 27.5 21.5 28.5>
LayerCount: 2
Fore
SplineSet
169 115 m 0
 193 115 216 111 238 104 c 0
 260 96 278 87 292 76 c 0
 305 65 316 55 324 46 c 0
 333 37 337 30 337 25 c 0
 337 18 334 13 329 8 c 2
 182 -111 l 2
 179 -114 174 -115 169 -115 c 0
 163 -115 158 -114 155 -111 c 2
 8 8 l 2
 3 12 0 18 0 25 c 0
 0 32 7 43 20 57 c 0
 34 71 55 84 82 96 c 0
 110 109 139 115 169 115 c 0
EndSplineSet
Validated: 1
EndChar

StartChar: uniE1C0
Encoding: 57792 57792 28
Width: 246
VWidth: 1000
GlyphClass: 2
Flags: MW
HStem: -112 48<66.5 169 78 169 78 177> 64 48<42 205 42 42>
VStem: 0 247<95.5 100.5>
LayerCount: 2
Fore
SplineSet
169 -64 m 1
 205 64 l 1
 42 64 l 1
 78 -64 l 1
 169 -64 l 1
177 -112 m 2
 70 -112 l 2
 63 -112 56 -108 54 -101 c 2
 1 92 l 2
 1 93 0 95 0 96 c 0
 0 105 7 112 16 112 c 2
 231 112 l 2
 240 112 247 105 247 96 c 0
 247 95 246 93 246 92 c 2
 193 -101 l 2
 191 -108 184 -112 177 -112 c 2
EndSplineSet
Validated: 1
EndChar

StartChar: uniE1C3
Encoding: 57795 57795 29
Width: 246
VWidth: 1000
GlyphClass: 2
Flags: MW
HStem: -113 225<11.5 71>
VStem: 43 204<-16 16>
LayerCount: 2
Fore
SplineSet
247 0 m 0
 247 -94 126 -113 16 -113 c 0
 7 -113 0 -105 0 -96 c 0
 0 -91 2 -87 5 -84 c 0
 29 -63 43 -32 43 0 c 0
 43 32 29 63 5 84 c 0
 2 87 0 91 0 96 c 0
 0 105 7 112 16 112 c 0
 126 112 247 94 247 0 c 0
EndSplineSet
Validated: 1
EndChar

StartChar: uniE1C4
Encoding: 57796 57796 30
Width: 246
VWidth: 1000
GlyphClass: 2
Flags: MW
HStem: -112 224<230 235.5>
VStem: 214 33<-57 57 57 57>
LayerCount: 2
Fore
SplineSet
88 0 m 1
 214 -57 l 1
 214 57 l 1
 88 0 l 1
10 -15 m 2
 4 -12 0 -6 0 0 c 0
 0 6 4 12 10 15 c 2
 224 111 l 2
 226 112 229 112 231 112 c 0
 240 112 247 105 247 96 c 2
 247 -96 l 2
 247 -105 240 -112 231 -112 c 0
 229 -112 226 -112 224 -111 c 2
 10 -15 l 2
EndSplineSet
Validated: 1
EndChar

StartChar: uniE1C5
Encoding: 57797 57797 31
Width: 246
VWidth: 1000
GlyphClass: 2
Flags: MW
HStem: -112 224<230 235.5>
VStem: 0 247<-3 3>
LayerCount: 2
Fore
SplineSet
10 -15 m 2
 4 -12 0 -6 0 0 c 0
 0 6 4 12 10 15 c 2
 224 111 l 2
 226 112 229 112 231 112 c 0
 240 112 247 105 247 96 c 2
 247 -96 l 2
 247 -105 240 -112 231 -112 c 0
 229 -112 226 -112 224 -111 c 2
 10 -15 l 2
EndSplineSet
Validated: 1
EndChar

StartChar: uniE1C7
Encoding: 57799 57799 32
Width: 246
VWidth: 1000
GlyphClass: 2
Flags: MW
HStem: -112 225<176 235.5>
VStem: 0 247<-47 47>
LayerCount: 2
Fore
SplineSet
231 -112 m 0
 121 -112 0 -94 0 0 c 0
 0 94 121 113 231 113 c 0
 240 113 247 105 247 96 c 2
 247 -96 l 2
 247 -105 240 -112 231 -112 c 0
EndSplineSet
Validated: 1
EndChar

StartChar: uniE1C8
Encoding: 57800 57800 33
Width: 246
VWidth: 1000
GlyphClass: 2
Flags: MW
HStem: -112 224<230 235.5>
VStem: 193 32<-7.5 7.5>
LayerCount: 2
Fore
SplineSet
67 0 m 1
 197 -44 l 1
 194 -30 193 -15 193 0 c 0
 193 15 194 30 197 44 c 1
 67 0 l 1
10 -15 m 2
 4 -12 0 -6 0 0 c 0
 0 6 4 12 10 15 c 2
 224 111 l 2
 226 112 229 112 231 112 c 0
 240 112 247 105 247 96 c 0
 247 94 246 91 245 89 c 0
 235 60 225 31 225 0 c 0
 225 -31 235 -60 245 -89 c 0
 246 -91 247 -94 247 -96 c 0
 247 -105 240 -112 231 -112 c 0
 229 -112 226 -112 224 -111 c 2
 10 -15 l 2
EndSplineSet
Validated: 1
EndChar

StartChar: uniE1C9
Encoding: 57801 57801 34
Width: 246
VWidth: 1000
GlyphClass: 2
Flags: MW
HStem: -112 224<230 235.5>
VStem: 0 247<-100.5 3>
CounterMasks: 1 70
LayerCount: 2
Fore
SplineSet
10 -15 m 2
 4 -12 0 -6 0 0 c 0
 0 6 4 12 10 15 c 2
 224 111 l 2
 226 112 229 112 231 112 c 0
 240 112 247 105 247 96 c 0
 247 94 246 91 245 89 c 0
 235 60 225 31 225 0 c 0
 225 -31 235 -60 245 -89 c 0
 246 -91 247 -94 247 -96 c 0
 247 -105 240 -112 231 -112 c 0
 229 -112 226 -112 224 -111 c 2
 10 -15 l 2
EndSplineSet
Validated: 1
EndChar

StartChar: uniE1CA
Encoding: 57802 57802 35
Width: 246
VWidth: 1000
GlyphClass: 2
Flags: MW
HStem: -113 226<186 190>
VStem: 214 33<-11 11>
CounterMasks: 1 1c
LayerCount: 2
Fore
SplineSet
57 0 m 1
 197 -61 l 1
 208 -43 214 -22 214 0 c 0
 214 22 208 43 197 61 c 1
 57 0 l 1
8 -14 m 2
 3 -11 0 -6 0 0 c 0
 0 6 3 11 8 14 c 2
 180 110 l 2
 182 111 185 113 187 113 c 0
 193 113 198 108 202 104 c 0
 231 77 247 39 247 0 c 0
 247 -39 231 -77 202 -104 c 0
 198 -108 193 -113 187 -113 c 0
 185 -113 182 -111 180 -110 c 2
 8 -14 l 2
EndSplineSet
Validated: 1
EndChar

StartChar: uniE4A0
Encoding: 58528 58528 36
Width: 460
GlyphClass: 2
Flags: W
HStem: 0 21G<8.5 14> 238 20G<8.5 14>
LayerCount: 2
Fore
SplineSet
460 129 m 0
 460 116 454 110 441 110 c 2
 19 1 l 2
 17 0 15 0 13 0 c 0
 4 0 0 7 0 20 c 0
 0 31 5 37 14 39 c 2
 271 105 l 1
 414 129 l 1
 271 153 l 1
 14 219 l 2
 5 221 0 227 0 238 c 0
 0 251 4 258 13 258 c 0
 15 258 17 258 19 257 c 2
 441 148 l 2
 454 148 460 142 460 129 c 0
EndSplineSet
Validated: 1
EndChar

StartChar: uniE4A2
Encoding: 58530 58530 38
Width: 102
GlyphClass: 2
Flags: MW
HStem: 0 102<44 58>
VStem: 0 102<44 58>
LayerCount: 2
Fore
SplineSet
0 51 m 0
 0 65 5 77 15 87 c 0
 25 97 37 102 51 102 c 0
 65 102 77 97 87 87 c 0
 97 77 102 65 102 51 c 0
 102 37 97 25 87 15 c 0
 77 5 65 0 51 0 c 0
 37 0 25 5 15 15 c 0
 5 25 0 37 0 51 c 0
EndSplineSet
Validated: 1
EndChar

StartChar: uniE4A3
Encoding: 58531 58531 39
Width: 102
GlyphClass: 2
Flags: MW
HStem: -102 102<44 58>
VStem: 0 102<-58 -44>
LayerCount: 2
Fore
SplineSet
0 -51 m 0
 0 -37 5 -25 15 -15 c 0
 25 -5 37 0 51 0 c 0
 65 0 77 -5 87 -15 c 0
 97 -25 102 -37 102 -51 c 0
 102 -65 97 -77 87 -87 c 0
 77 -97 65 -102 51 -102 c 0
 37 -102 25 -97 15 -87 c 0
 5 -77 0 -65 0 -51 c 0
EndSplineSet
Validated: 1
EndChar

StartChar: uniE4A4
Encoding: 58532 58532 40
Width: 308
GlyphClass: 2
Flags: MW
HStem: 0 40<18.5 287 21 287>
VStem: 0 308<17.5 22.5>
LayerCount: 2
Fore
SplineSet
287 0 m 2
 21 0 l 2
 16 0 11 2 6 6 c 0
 2 10 0 15 0 20 c 0
 0 25 2 30 6 34 c 0
 11 38 16 40 21 40 c 2
 287 40 l 2
 292 40 297 38 302 34 c 0
 306 30 308 25 308 20 c 0
 308 15 306 10 302 6 c 0
 297 2 292 0 287 0 c 2
EndSplineSet
Validated: 1
EndChar

StartChar: uniE4A5
Encoding: 58533 58533 41
Width: 308
GlyphClass: 2
Flags: MW
HStem: -40 40<18.5 287 21 287>
VStem: 0 308<-22.5 -17.5>
LayerCount: 2
Fore
SplineSet
287 -40 m 2
 21 -40 l 2
 16 -40 11 -38 6 -34 c 0
 2 -30 0 -25 0 -20 c 0
 0 -15 2 -10 6 -6 c 0
 11 -2 16 0 21 0 c 2
 287 0 l 2
 292 0 297 -2 302 -6 c 0
 306 -10 308 -15 308 -20 c 0
 308 -25 306 -30 302 -34 c 0
 297 -38 292 -40 287 -40 c 2
EndSplineSet
Validated: 1
EndChar

StartChar: fadeout
Encoding: 59460 59460 44
Width: 362
VWidth: 1000
Flags: W
HStem: 0 21G<14.5 18.5> 167 31<308.73 361.988>
LayerCount: 2
Fore
SplineSet
3 340 m 0
 1 343 0 346 0 349 c 0
 0 354 3 359 7 362 c 0
 10 364 13 365 16 365 c 0
 21 365 26 362 29 358 c 0
 54 322 151 277 206 254 c 0
 281 222 350 198 351 198 c 0
 358 196 362 189 362 183 c 0
 362 176 358 169 351 167 c 0
 350 167 281 143 206 111 c 0
 111 71 48 34 29 7 c 0
 26 2 21 0 16 0 c 0
 13 0 10 1 7 3 c 0
 3 6 0 11 0 16 c 0
 0 19 1 22 3 25 c 0
 25 58 90 97 194 141 c 0
 233 158 272 172 299 182 c 1
 272 193 233 207 194 224 c 0
 90 268 25 307 3 340 c 0
EndSplineSet
Validated: 1
EndChar

StartChar: fadein
Encoding: 59459 59459 45
Width: 362
VWidth: 1000
Flags: W
HStem: 0 21G<343.5 347.5> 167 31<0.0116882 53.2695>
LayerCount: 2
Fore
SplineSet
359 340 m 0
 337 307 272 268 168 224 c 0
 129 207 90 193 63 182 c 1
 90 172 129 158 168 141 c 0
 272 97 337 58 359 25 c 0
 361 22 362 19 362 16 c 0
 362 11 359 6 355 3 c 0
 352 1 349 0 346 0 c 0
 341 0 336 2 333 7 c 0
 314 34 251 71 156 111 c 0
 81 143 12 167 11 167 c 0
 4 169 0 176 0 183 c 0
 0 189 4 196 11 198 c 0
 12 198 81 222 156 254 c 0
 211 277 308 322 333 358 c 0
 336 362 341 365 346 365 c 0
 349 365 352 364 355 362 c 0
 359 359 362 354 362 349 c 0
 362 346 361 343 359 340 c 0
EndSplineSet
Validated: 1
EndChar

StartChar: volumeswell
Encoding: 59461 59461 46
Width: 724
VWidth: 1000
Flags: HMW
LayerCount: 2
Fore
SplineSet
370 340 m 0
 368 343 367 346 367 349 c 0
 367 354 370 359 374 362 c 0
 377 364 380 365 383 365 c 0
 388 365 393 362 396 358 c 0
 421 322 518 277 573 254 c 0
 648 222 717 198 718 198 c 0
 725 196 729 189 729 183 c 0
 729 176 725 169 718 167 c 0
 717 167 648 143 573 111 c 0
 478 71 415 34 396 7 c 0
 393 2 388 0 383 0 c 0
 380 0 377 1 374 3 c 0
 370 6 367 11 367 16 c 0
 367 19 368 22 370 25 c 0
 392 58 457 97 561 141 c 0
 600 158 639 172 666 182 c 1
 639 193 600 207 561 224 c 0
 457 268 392 307 370 340 c 0
354 340 m 0
 332 307 267 268 163 224 c 0
 124 207 85 193 58 182 c 1
 85 172 124 158 163 141 c 0
 267 97 332 58 354 25 c 0
 356 22 357 19 357 16 c 0
 357 11 354 6 350 3 c 0
 347 1 344 0 341 0 c 0
 336 0 331 2 328 7 c 0
 309 34 246 71 151 111 c 0
 76 143 7 167 6 167 c 0
 -1 169 -5 176 -5 183 c 0
 -5 189 -1 196 6 198 c 0
 7 198 76 222 151 254 c 0
 206 277 303 322 328 358 c 0
 331 362 336 365 341 365 c 0
 344 365 347 364 350 362 c 0
 354 359 357 354 357 349 c 0
 357 346 356 343 354 340 c 0
EndSplineSet
Validated: 1
EndChar

StartChar: wigglesawtooth
Encoding: 60091 60091 47
Width: 748
VWidth: 1000
Flags: W
LayerCount: 2
Fore
SplineSet
373 39 m 0
 368 39 364 41 361 46 c 2
 -15 546 l 2
 -17 549 -17 553 -17 556 c 0
 -17 561 -15 565 -11 568 c 0
 -8 570 -4 571 -1 571 c 0
 4 571 8 569 11 565 c 2
 373 82 l 1
 735 565 l 2
 738 569 742 571 747 571 c 0
 750 571 754 570 757 568 c 0
 761 565 765 560 765 555 c 0
 765 552 763 549 761 546 c 2
 385 46 l 2
 382 41 378 39 373 39 c 0
EndSplineSet
Validated: 1
EndChar

StartChar: wigglesawtoothwide
Encoding: 60092 60092 48
Width: 1000
VWidth: 1000
Flags: W
LayerCount: 2
Fore
SplineSet
501 44 m 0
 496 44 492 46 489 49 c 2
 -11 549 l 2
 -14 552 -16 556 -16 560 c 0
 -16 564 -14 568 -11 571 c 0
 -8 574 -3 576 1 576 c 0
 5 576 9 574 12 571 c 2
 501 83 l 1
 989 571 l 2
 992 574 997 576 1001 576 c 0
 1005 576 1009 574 1012 571 c 0
 1015 568 1016 564 1016 560 c 0
 1016 556 1015 552 1012 549 c 2
 512 49 l 2
 509 46 505 44 501 44 c 0
EndSplineSet
Validated: 1
EndChar

StartChar: wigglevibratolargefaster
Encoding: 60132 60132 49
Width: 376
VWidth: 1000
Flags: W
LayerCount: 2
Fore
SplineSet
-38 196 m 5
 -42 196 l 6
 -44 197 -44 200 -44 202 c 4
 -27 291 -5 386 48 440 c 4
 71 463 95 474 102 474 c 4
 207 474 209 111 286 82 c 5
 301 109 318 154 328 202 c 4
 330 210 343 224 358 234 c 4
 368 241 374 242 380 242 c 6
 384 242 l 5
 387 241 386 240 386 238 c 4
 372 173 356 110 310 64 c 4
 284 38 258 28 248 28 c 4
 146 28 144 377 70 418 c 5
 50 377 27 306 14 238 c 4
 11 223 -10 212 -18 204 c 5
 -24 200 -31 196 -38 196 c 5
EndSplineSet
Validated: 1
EndChar

StartChar: wigglevibratolargeslowest
Encoding: 60136 60136 50
Width: 763
VWidth: 1000
Flags: W
HStem: 34 52<538.974 627.125> 426 52<147.441 225.92>
LayerCount: 2
Fore
SplineSet
-34 200 m 1
 -40 202 l 2
 -41 203 -42 205 -42 206 c 0
 -42 207 -40 207 -40 208 c 0
 -11 277 31 351 88 408 c 0
 130 450 177 478 206 478 c 0
 413 478 419 86 606 86 c 0
 621 86 636 92 646 98 c 0
 666 111 708 150 734 210 c 0
 738 219 754 233 768 242 c 0
 775 246 779 248 782 248 c 0
 783 248 785 249 786 248 c 2
 790 246 l 2
 792 245 792 245 792 244 c 0
 792 243 791 241 790 240 c 0
 772 198 744 156 704 116 c 0
 652 64 597 34 560 34 c 0
 353 34 344 426 158 426 c 0
 151 426 139 421 138 420 c 0
 119 408 54 332 16 240 c 0
 11 227 -5 219 -18 206 c 1
 -23 203 -28 200 -34 200 c 1
EndSplineSet
Validated: 1
EndChar

StartChar: uniE094
Encoding: 57492 57492 51
Width: 138
Flags: W
VStem: 0 96<-169.47 170.919>
LayerCount: 2
Back
SplineSet
183 -464 m 2
 183 -491 l 2
 183 -493 182 -497 181 -497 c 0
 180 -497 179 -497 178 -496 c 0
 53 -374 -1 -199 -1 2 c 0
 -1 205 56 379 178 499 c 1
 178 499 178 500 179 500 c 0
 181 500 183 497 183 492 c 2
 183 471 l 1
 183 471 183 460 180 455 c 0
 105 356 77 223 77 2 c 0
 77 -219 107 -350 179 -452 c 0
 181 -454 183 -459 183 -464 c 2
EndSplineSet
Fore
SplineSet
213 -471 m 0
 213 -488 206 -495 189 -495 c 0
 178 -495 158 -473 129 -427 c 0
 100 -381 70 -319 42 -236 c 0
 14 -155 0 -75 0 0 c 0
 0 75 14 153 40 236 c 0
 69 319 98 381 129 427 c 0
 158 473 178 495 189 495 c 0
 206 495 213 488 213 471 c 0
 213 469 204 454 184 423 c 0
 164 394 145 343 125 269 c 0
 105 195 96 105 96 0 c 0
 96 -105 105 -195 125 -269 c 0
 145 -341 164 -392 184 -423 c 0
 204 -454 213 -469 213 -471 c 0
EndSplineSet
Validated: 1
EndChar

StartChar: uniE095
Encoding: 57493 57493 52
Width: 128
Flags: W
VStem: 33 95<-169.47 170.919>
LayerCount: 2
Back
SplineSet
-58 -491 m 6
 -58 -464 l 6
 -58 -459 -56 -454 -54 -452 c 4
 18 -350 48 -219 48 2 c 4
 48 223 20 356 -55 455 c 4
 -58 460 -58 471 -58 471 c 5
 -58 492 l 6
 -58 497 -56 500 -54 500 c 4
 -53 500 -53 499 -53 499 c 5
 69 379 126 205 126 2 c 4
 126 -199 72 -374 -53 -496 c 4
 -54 -497 -55 -497 -56 -497 c 4
 -57 -497 -58 -493 -58 -491 c 6
EndSplineSet
Fore
SplineSet
-85 -471 m 0
 -85 -469 -76 -454 -56 -423 c 0
 -36 -392 -17 -341 3 -269 c 0
 23 -195 33 -105 33 0 c 0
 33 105 23 195 3 269 c 0
 -17 343 -36 394 -56 423 c 0
 -76 454 -85 469 -85 471 c 0
 -85 488 -78 495 -61 495 c 0
 -50 495 -29 473 0 427 c 0
 31 381 60 319 88 236 c 0
 114 153 128 75 128 0 c 0
 128 -75 114 -155 86 -236 c 0
 58 -319 29 -381 0 -427 c 0
 -29 -473 -50 -495 -61 -495 c 0
 -78 -495 -85 -488 -85 -471 c 0
EndSplineSet
Validated: 1
EndChar

StartChar: uniEBAE
Encoding: 60334 60334 53
Width: 128
VWidth: 0
Flags: W
HStem: 64 128<25.4912 102.509>
VStem: 0 128<89.4912 166.509>
LayerCount: 2
Fore
SplineSet
24 168 m 0
 40 184 53 192 64 192 c 0
 75 192 88 184 104 168 c 0
 120 152 128 139 128 128 c 0
 128 117 120 104 104 88 c 0
 88 72 75 64 64 64 c 0
 53 64 40 72 24 88 c 0
 8 104 0 117 0 128 c 0
 0 139 8 152 24 168 c 0
EndSplineSet
Validated: 1
EndChar

StartChar: uniEBAF
Encoding: 60335 60335 54
Width: 328
VWidth: 0
Flags: W
HStem: 64 128<25.4912 102.509 225.491 302.509>
VStem: 0 128<89.4912 166.509> 200 128<89.4912 166.509>
LayerCount: 2
Fore
SplineSet
224 168 m 0
 240 184 253 192 264 192 c 0
 275 192 288 184 304 168 c 0
 320 152 328 139 328 128 c 0
 328 117 320 104 304 88 c 0
 288 72 275 64 264 64 c 0
 253 64 240 72 224 88 c 0
 208 104 200 117 200 128 c 0
 200 139 208 152 224 168 c 0
24 168 m 0
 40 184 53 192 64 192 c 0
 75 192 88 184 104 168 c 0
 120 152 128 139 128 128 c 0
 128 117 120 104 104 88 c 0
 88 72 75 64 64 64 c 0
 53 64 40 72 24 88 c 0
 8 104 0 117 0 128 c 0
 0 139 8 152 24 168 c 0
EndSplineSet
Validated: 1
EndChar

StartChar: uniEBB0
Encoding: 60336 60336 55
Width: 428
VWidth: 0
Flags: W
HStem: 64 128<25.4912 102.509 175.491 252.509 325.491 402.509>
VStem: 0 128<89.4912 166.509> 150 128<89.4912 166.509> 300 128<89.4912 166.509>
CounterMasks: 1 70
LayerCount: 2
Fore
SplineSet
324 168 m 0
 340 184 353 192 364 192 c 0
 375 192 388 184 404 168 c 0
 420 152 428 139 428 128 c 0
 428 117 420 104 404 88 c 0
 388 72 375 64 364 64 c 0
 353 64 340 72 324 88 c 0
 308 104 300 117 300 128 c 0
 300 139 308 152 324 168 c 0
174 168 m 0
 190 184 203 192 214 192 c 0
 225 192 238 184 254 168 c 0
 270 152 278 139 278 128 c 0
 278 117 270 104 254 88 c 0
 238 72 225 64 214 64 c 0
 203 64 190 72 174 88 c 0
 158 104 150 117 150 128 c 0
 150 139 158 152 174 168 c 0
24 168 m 0
 40 184 53 192 64 192 c 0
 75 192 88 184 104 168 c 0
 120 152 128 139 128 128 c 0
 128 117 120 104 104 88 c 0
 88 72 75 64 64 64 c 0
 53 64 40 72 24 88 c 0
 8 104 0 117 0 128 c 0
 0 139 8 152 24 168 c 0
EndSplineSet
Validated: 1
EndChar

StartChar: uniEBAD
Encoding: 60333 60333 56
Width: 48
VWidth: 0
Flags: W
HStem: 28 200<0 48>
VStem: 0 48<28 228>
LayerCount: 2
Fore
SplineSet
0 228 m 25
 48 228 l 25
 48 28 l 25
 0 28 l 25
 0 228 l 25
EndSplineSet
Validated: 1
EndChar

StartChar: uniE910
Encoding: 59664 59664 57
Width: 513
Flags: W
HStem: -269 25<187.345 324.655> -80 160<201.509 310.491> 243 25<187.336 324.664>
VStem: 0 100<-126.686 123.064> 176 160<-54.4912 54.4912> 412 100<-127.989 123.064>
CounterMasks: 1 1c
LayerCount: 2
Fore
SplineSet
176 0 m 0
 176 21 184 40 200 56 c 0
 216 72 235 80 256 80 c 0
 277 80 296 72 312 56 c 0
 328 40 336 21 336 0 c 0
 336 -21 328 -40 312 -56 c 0
 296 -72 277 -80 256 -80 c 0
 235 -80 216 -72 200 -56 c 0
 184 -40 176 -21 176 0 c 0
256 -244 m 0
 296 -244 332 -233 364 -210 c 0
 396 -187 412 -134 412 -52 c 2
 412 52 l 2
 412 134 396 186 364 209 c 0
 332 232 296 243 256 243 c 0
 216 243 180 232 148 209 c 0
 116 186 100 134 100 52 c 2
 100 -52 l 2
 100 -135 116 -187 148 -210 c 0
 180 -233 216 -244 256 -244 c 0
256 268 m 0
 339 268 402 243 446 194 c 0
 490 145 512 80 512 0 c 0
 512 -49 505 -92 490 -128 c 0
 475 -164 455 -192 429 -212 c 0
 402 -233 375 -247 348 -256 c 0
 319 -265 289 -269 256 -269 c 0
 223 -269 193 -265 164 -256 c 0
 137 -247 110 -233 83 -212 c 0
 57 -192 37 -164 22 -128 c 0
 7 -92 0 -49 0 0 c 0
 0 80 22 145 66 194 c 0
 110 243 173 268 256 268 c 0
EndSplineSet
Validated: 1
EndChar

StartChar: uniE911
Encoding: 59665 59665 58
Width: 513
Flags: W
HStem: -269 25<187.345 324.655> 243 25<187.336 324.664>
VStem: 0 100<-126.686 123.064> 412 100<-126.686 123.064>
LayerCount: 2
Fore
SplineSet
256 -244 m 0
 296 -244 332 -233 364 -210 c 0
 396 -187 412 -135 412 -52 c 2
 412 52 l 2
 412 134 396 186 364 209 c 0
 332 232 296 243 256 243 c 0
 216 243 180 232 148 209 c 0
 116 186 100 134 100 52 c 2
 100 -52 l 2
 100 -135 116 -187 148 -210 c 0
 180 -233 216 -244 256 -244 c 0
256 268 m 0
 339 268 402 243 446 194 c 0
 490 145 512 80 512 0 c 0
 512 -49 505 -92 490 -128 c 0
 475 -164 455 -192 429 -212 c 0
 402 -233 375 -247 348 -256 c 0
 319 -265 289 -269 256 -269 c 0
 223 -269 193 -265 164 -256 c 0
 137 -247 110 -233 83 -212 c 0
 57 -192 37 -164 22 -128 c 0
 7 -92 0 -49 0 0 c 0
 0 80 22 145 66 194 c 0
 110 243 173 268 256 268 c 0
EndSplineSet
Validated: 1
EndChar

StartChar: uniE912
Encoding: 59666 59666 59
Width: 513
Flags: W
HStem: 242 26<184.688 237 275 327.312>
VStem: 0 100<-126.686 122.785> 237 38<-438 -268 -243 242 266.678 438> 412 100<-126.686 123.761>
CounterMasks: 1 70
LayerCount: 2
Fore
SplineSet
275 -428 m 2
 275 -435 271 -438 264 -438 c 2
 247 -438 l 2
 240 -438 237 -435 237 -428 c 2
 237 -268 l 1
 212 -267 187 -263 164 -256 c 0
 136 -247 109 -233 83 -212 c 0
 57 -192 37 -164 22 -128 c 0
 7 -92 0 -49 0 0 c 0
 0 79 22 144 66 194 c 0
 106 239 163 264 237 268 c 1
 237 428 l 2
 237 435 240 438 247 438 c 2
 264 438 l 2
 271 438 275 435 275 428 c 2
 275 268 l 1
 349 264 406 239 446 194 c 0
 490 145 512 81 512 0 c 0
 512 -49 505 -92 490 -128 c 0
 475 -164 455 -192 429 -212 c 0
 402 -234 375 -249 348 -256 c 0
 325 -263 300 -267 275 -268 c 1
 275 -428 l 2
275 242 m 1
 275 -243 l 1
 308 -240 337 -229 364 -210 c 0
 396 -187 412 -135 412 -52 c 2
 412 52 l 2
 412 135 396 187 364 210 c 0
 339 228 309 239 275 242 c 1
237 -243 m 1
 237 242 l 1
 203 239 173 228 148 210 c 0
 116 187 100 135 100 52 c 2
 100 -52 l 2
 100 -135 116 -187 148 -210 c 0
 175 -229 204 -240 237 -243 c 1
EndSplineSet
Validated: 1
EndChar

StartChar: uniE913
Encoding: 59667 59667 60
Width: 513
Flags: W
HStem: 242 26<184.688 237 275 327.312>
VStem: 0 100<-126.686 122.785> 176 160<-54.4912 54.4912> 237 38<-438 -268 -243 -70.2945 70.2945 242 266.678 438> 412 100<-126.686 123.761>
LayerCount: 2
Fore
SplineSet
275 -428 m 2xd8
 275 -435 271 -438 264 -438 c 2
 247 -438 l 2
 240 -438 237 -435 237 -428 c 2
 237 -268 l 1
 212 -267 187 -263 164 -256 c 0
 136 -247 109 -233 83 -212 c 0
 58 -192 37 -164 22 -128 c 0
 8 -91 0 -49 0 0 c 0
 0 79 22 144 66 194 c 0
 106 239 163 264 237 268 c 1
 237 428 l 2
 237 435 240 438 247 438 c 2
 264 438 l 2
 271 438 275 435 275 428 c 2
 275 268 l 1
 349 264 406 239 446 194 c 0
 490 145 512 81 512 0 c 0
 512 -49 504 -91 490 -128 c 0
 474 -164 454 -192 429 -212 c 0
 402 -234 375 -249 348 -256 c 0
 325 -263 300 -267 275 -268 c 1
 275 -428 l 2xd8
176 0 m 0xe8
 176 21 184 40 200 56 c 0
 211 67 223 74 237 78 c 1
 237 242 l 1
 203 239 173 228 148 210 c 0
 116 187 100 135 100 52 c 2
 100 -52 l 2
 100 -135 116 -187 148 -210 c 0
 175 -229 204 -240 237 -243 c 1
 237 -78 l 1xd8
 223 -74 211 -67 200 -56 c 0
 184 -40 176 -21 176 0 c 0xe8
275 -78 m 1
 275 -243 l 1
 308 -240 337 -229 364 -210 c 0
 396 -187 412 -135 412 -52 c 2
 412 52 l 2
 412 135 396 187 364 210 c 0
 339 228 309 239 275 242 c 1
 275 78 l 1xd8
 289 74 301 67 312 56 c 0
 328 40 336 21 336 0 c 0xe8
 336 -21 328 -40 312 -56 c 0
 301 -67 289 -74 275 -78 c 1
EndSplineSet
Validated: 1
EndChar

StartChar: uniE914
Encoding: 59668 59668 61
Width: 435
Flags: W
HStem: -269 25<187.345 312.808> -80 160<201.509 310.491> 243 25<187.327 313.786>
VStem: 0 100<-126.686 123.516> 176 160<-54.4912 54.4912> 418 25<-126.963 -79.0117 78.0117 122.732>
LayerCount: 2
Fore
SplineSet
176 0 m 0
 176 21 184 40 200 56 c 0
 216 72 235 80 256 80 c 0
 277 80 296 72 312 56 c 0
 328 40 336 21 336 0 c 0
 336 -21 328 -40 312 -56 c 0
 296 -72 277 -80 256 -80 c 0
 235 -80 216 -72 200 -56 c 0
 184 -40 176 -21 176 0 c 0
256 268 m 0
 282 268 306 263 328 252 c 0
 351 241 369 228 382 212 c 0
 395 196 407 179 416 162 c 0
 425 145 432 129 437 116 c 0
 441 104 443 95 443 90 c 0
 443 82 439 78 430 78 c 0
 424 78 420 81 418 88 c 0
 405 134 385 171 359 198 c 0
 330 228 296 243 256 243 c 0
 197 243 157 224 134 186 c 0
 111 148 100 103 100 52 c 2
 100 -52 l 2
 100 -135 116 -187 148 -210 c 0
 180 -233 216 -244 256 -244 c 0
 295 -244 329 -229 358 -200 c 0
 387 -171 407 -134 418 -89 c 0
 420 -82 424 -79 430 -79 c 0
 439 -79 443 -83 443 -91 c 0
 443 -97 441 -106 437 -118 c 0
 432 -130 425 -145 416 -162 c 0
 407 -179 395 -196 382 -213 c 0
 369 -228 351 -242 328 -253 c 0
 306 -264 282 -269 256 -269 c 0
 223 -269 193 -265 164 -256 c 0
 137 -248 110 -233 83 -212 c 0
 57 -192 37 -164 22 -128 c 0
 7 -92 0 -49 0 0 c 0
 0 80 22 145 66 194 c 0
 110 243 173 268 256 268 c 0
EndSplineSet
Validated: 1
EndChar

StartChar: uniE915
Encoding: 59669 59669 62
Width: 435
Flags: W
HStem: -269 25<197.186 313.001> 28 155<316.843 378.858> 243 25<196.301 316.961>
VStem: 0 140<-127.989 124.248> 291 145<50.3318 159.222> 418 25<-126.337 -79.0117>
LayerCount: 2
Fore
SplineSet
368 28 m 0xf8
 351 28 334 34 316 48 c 0
 300 60 291 79 291 104 c 0xf8
 291 125 298 143 312 159 c 0
 325 175 343 183 365 183 c 0
 371 183 376 183 379 182 c 1
 348 222 307 242 256 243 c 0
 235 243 217 240 202 234 c 0
 187 227 176 219 168 210 c 0
 161 201 155 187 150 168 c 0
 145 150 142 133 142 116 c 0
 140 100 140 79 140 52 c 2
 140 0 l 1
 140 -52 l 2
 140 -79 140 -100 142 -117 c 0
 143 -134 145 -151 150 -169 c 0
 155 -187 161 -201 168 -210 c 0
 176 -219 187 -227 202 -234 c 0
 217 -241 235 -244 256 -244 c 0
 295 -244 330 -229 358 -200 c 0
 388 -170 407 -133 418 -89 c 0
 420 -82 424 -79 430 -79 c 0
 439 -79 443 -83 443 -91 c 0xf4
 443 -96 441 -105 437 -118 c 0
 433 -130 426 -145 416 -162 c 0
 407 -180 395 -197 382 -213 c 0
 368 -229 350 -242 328 -253 c 0
 306 -264 282 -269 256 -269 c 0
 223 -269 193 -264 164 -256 c 0
 135 -246 108 -232 83 -212 c 0
 58 -192 37 -164 22 -128 c 0
 8 -91 0 -49 0 0 c 0
 0 81 22 146 66 194 c 0
 109 244 173 268 256 268 c 0
 310 268 354 249 386 212 c 0
 420 174 436 137 436 101 c 0
 436 80 430 63 416 49 c 0
 404 35 387 28 368 28 c 0xf8
EndSplineSet
Validated: 1
EndChar

StartChar: uniE916
Encoding: 59670 59670 63
Width: 435
Flags: W
HStem: -269 25<122.192 237.814> 28 155<56.1421 118.203> 243 25<116.355 238.95>
VStem: -8 25<-126.963 -79.0117> -1 145<50.5076 158.249> 295 140<-127.989 123.516>
LayerCount: 2
Fore
SplineSet
67 28 m 0xec
 48 28 32 35 19 49 c 0
 6 63 -1 80 -1 101 c 0xec
 -1 138 16 175 49 212 c 0
 82 249 126 268 179 268 c 0
 262 268 325 243 369 194 c 0
 413 145 435 80 435 0 c 0
 435 -49 428 -92 413 -128 c 0
 398 -164 378 -192 352 -212 c 0
 325 -233 298 -248 271 -256 c 0
 242 -265 212 -269 179 -269 c 0
 153 -269 129 -264 107 -253 c 0
 84 -242 66 -228 53 -213 c 0
 40 -196 28 -179 19 -162 c 0
 10 -145 3 -130 -2 -118 c 0
 -6 -106 -8 -97 -8 -91 c 0
 -8 -83 -4 -79 5 -79 c 0
 11 -79 15 -82 17 -89 c 0xf4
 28 -134 48 -171 77 -200 c 0
 106 -229 140 -244 179 -244 c 0
 200 -244 218 -241 233 -234 c 0
 248 -227 259 -219 267 -210 c 0
 275 -201 281 -187 285 -169 c 0
 289 -151 292 -134 293 -117 c 0
 294 -100 295 -79 295 -52 c 2
 295 0 l 1
 295 52 l 2
 295 79 294 100 293 116 c 0
 292 132 289 149 285 168 c 0
 281 187 275 201 267 210 c 0
 259 220 248 228 233 234 c 0
 218 240 200 243 179 243 c 0
 128 243 87 223 56 182 c 1
 59 183 64 183 70 183 c 0
 91 183 109 175 123 159 c 0
 137 143 144 125 144 104 c 0
 144 80 136 61 119 48 c 0
 102 35 85 28 67 28 c 0xec
EndSplineSet
Validated: 1
EndChar

StartChar: uniE917
Encoding: 59671 59671 64
Width: 435
Flags: W
HStem: -268 25<237 237> 242 25<275 275>
VStem: 0 100<-24.5 40> 176 160<-10.5 10.5> 237 38<-428 -268 -243 -78 78 242 268 428>
LayerCount: 2
Fore
SplineSet
275 -428 m 2xe8
 275 -435 271 -438 264 -438 c 2
 247 -438 l 2
 240 -438 237 -435 237 -428 c 2
 237 -268 l 1
 212 -267 187 -263 164 -256 c 0
 135 -247 108 -232 83 -212 c 0
 58 -192 37 -164 22 -128 c 0
 8 -91 0 -49 0 0 c 0
 0 80 22 145 66 194 c 0
 106 239 163 264 237 268 c 1
 237 428 l 2
 237 435 240 438 247 438 c 2
 264 438 l 2
 271 438 275 435 275 428 c 2
 275 267 l 1
 294 265 311 260 328 252 c 0
 350 241 368 228 382 212 c 0
 395 196 407 179 416 162 c 0
 426 144 433 129 437 116 c 0
 441 104 443 95 443 90 c 0
 443 82 439 78 430 78 c 0
 424 78 420 81 418 88 c 0
 405 134 385 171 359 198 c 0
 335 223 307 238 275 242 c 1
 275 78 l 1xe8
 289 74 301 67 312 56 c 0
 328 40 336 21 336 0 c 0xf0
 336 -21 328 -40 312 -56 c 0
 301 -67 289 -74 275 -78 c 1
 275 -243 l 1
 306 -240 334 -225 358 -200 c 0
 387 -171 407 -134 418 -89 c 0
 420 -82 424 -79 430 -79 c 0
 439 -79 443 -83 443 -91 c 0
 443 -96 441 -105 437 -118 c 0
 433 -130 426 -145 416 -162 c 0
 407 -180 395 -197 382 -213 c 0
 368 -229 350 -242 328 -253 c 0
 311 -261 294 -266 275 -268 c 1
 275 -428 l 2xe8
176 0 m 0xf0
 176 21 184 40 200 56 c 0
 211 67 223 74 237 78 c 1
 237 242 l 1
 188 238 154 219 134 186 c 0
 111 148 100 103 100 52 c 2
 100 -52 l 2
 100 -135 116 -187 148 -210 c 0
 175 -229 204 -240 237 -243 c 1
 237 -78 l 1xe8
 223 -74 211 -67 200 -56 c 0
 184 -40 176 -21 176 0 c 0xf0
EndSplineSet
Validated: 1
EndChar

StartChar: uniE918
Encoding: 59672 59672 65
Width: 435
Flags: W
HStem: -268 24<243 312.202> 28 155<316.843 378.858> 243 25<243 316.727>
VStem: 0 140<-122.197 124.75> 205 38<-358 -268 -236 236 268 358> 291 145<50.3318 159.222> 418 25<-126.337 -79.0117>
LayerCount: 2
Fore
SplineSet
368 28 m 0xfc
 351 28 334 34 316 48 c 0
 300 60 291 79 291 104 c 0xfc
 291 125 298 143 312 159 c 0
 325 175 343 183 365 183 c 0
 371 183 376 183 379 182 c 1
 348 222 307 242 256 243 c 2
 243 243 l 1
 243 -243 l 2
 244 -243 246 -243 250 -244 c 0
 252 -244 255 -244 256 -244 c 0
 295 -244 330 -229 358 -200 c 0
 388 -170 407 -133 418 -89 c 0
 420 -82 424 -79 430 -79 c 0
 439 -79 443 -83 443 -91 c 0xfa
 443 -96 441 -105 437 -118 c 0
 433 -130 426 -145 416 -162 c 0
 407 -180 395 -197 382 -213 c 0
 368 -229 350 -242 328 -253 c 0
 306 -264 282 -269 256 -269 c 0
 255 -269 252 -269 250 -268 c 0
 246 -268 244 -268 243 -268 c 2
 243 -348 l 2
 243 -355 239 -358 232 -358 c 2
 215 -358 l 2
 208 -358 205 -355 205 -348 c 2
 205 -265 l 1
 136 -254 84 -225 50 -176 c 0
 17 -127 0 -69 0 0 c 0
 0 69 16 128 50 176 c 0
 82 225 134 254 205 265 c 1
 205 348 l 2
 205 355 208 358 215 358 c 2
 232 358 l 2
 239 358 242 355 243 348 c 2
 243 268 l 1
 256 268 l 2
 310 268 354 249 386 212 c 0
 420 174 436 137 436 101 c 0
 436 80 430 63 416 49 c 0
 404 35 387 28 368 28 c 0xfc
205 -236 m 1
 205 236 l 1
 178 226 160 207 152 178 c 0
 144 149 140 107 140 52 c 2
 140 0 l 1
 140 -52 l 2
 140 -107 144 -149 152 -178 c 0
 160 -207 178 -226 205 -236 c 1
EndSplineSet
Validated: 1
EndChar

StartChar: uniE919
Encoding: 59673 59673 66
Width: 435
Flags: W
HStem: -269 25<122.192 192> 28 155<56.1421 118.203> 243 25<118.996 192>
VStem: -8 25<-126.963 -79.0117> -1 145<50.5076 158.249> 192 38<-358 -268 -236 236 268 358> 295 140<-122.197 122.641>
LayerCount: 2
Fore
SplineSet
67 28 m 0xee
 48 28 32 35 19 49 c 0
 6 63 -1 80 -1 101 c 0xee
 -1 138 16 175 49 212 c 0
 82 249 126 268 179 268 c 2
 192 268 l 1
 192 348 l 2
 193 355 196 358 203 358 c 2
 220 358 l 2
 227 358 230 355 230 348 c 2
 230 265 l 1
 300 254 352 224 385 176 c 0
 418 128 435 69 435 0 c 0
 435 -69 418 -127 385 -176 c 0
 352 -225 300 -254 230 -265 c 1
 230 -348 l 2
 230 -355 227 -358 220 -358 c 2
 203 -358 l 2
 196 -358 192 -355 192 -348 c 2
 192 -268 l 2
 189 -269 184 -269 179 -269 c 0
 153 -269 129 -264 107 -253 c 0
 84 -242 66 -229 53 -213 c 0
 40 -196 28 -179 19 -162 c 0
 10 -145 3 -130 -2 -118 c 0
 -6 -106 -8 -97 -8 -91 c 0
 -8 -83 -4 -79 5 -79 c 0
 11 -79 15 -82 17 -89 c 0xf6
 28 -134 48 -171 77 -200 c 0
 106 -229 140 -244 179 -244 c 0
 183 -244 187 -244 192 -243 c 1
 192 243 l 1
 179 243 l 2
 128 242 87 222 56 182 c 1
 59 183 64 183 70 183 c 0
 91 183 109 175 123 159 c 0
 137 143 144 125 144 104 c 0
 144 80 136 61 119 48 c 0
 102 35 85 28 67 28 c 0xee
230 -236 m 1
 257 -226 275 -207 283 -178 c 0
 291 -149 295 -107 295 -52 c 2
 295 0 l 1
 295 52 l 2
 295 107 291 149 283 178 c 0
 275 207 257 226 230 236 c 1
 230 -236 l 1
EndSplineSet
Validated: 1
EndChar

StartChar: uniE91A
Encoding: 59674 59674 67
Width: 435
Flags: W
HStem: -269 25<122.192 247.177> -80 160<124.509 233.491> 243 25<121.214 247.673>
VStem: -8 25<-126.963 -79.0117 78.0117 122.732> 99 160<-54.4912 54.4912> 335 100<-126.686 123.516>
LayerCount: 2
Fore
SplineSet
259 0 m 0
 259 -21 251 -40 235 -56 c 0
 219 -72 200 -80 179 -80 c 0
 158 -80 139 -72 123 -56 c 0
 107 -40 99 -21 99 0 c 0
 99 21 107 40 123 56 c 0
 139 72 158 80 179 80 c 0
 200 80 219 72 235 56 c 0
 251 40 259 21 259 0 c 0
179 268 m 0
 262 268 325 243 369 194 c 0
 413 145 435 80 435 0 c 0
 435 -49 428 -92 413 -128 c 0
 398 -164 378 -192 352 -212 c 0
 325 -233 298 -247 271 -256 c 0
 243 -265 212 -269 179 -269 c 0
 153 -269 129 -264 107 -253 c 0
 82 -241 64 -228 53 -213 c 0
 40 -196 28 -179 19 -162 c 0
 10 -145 3 -130 -2 -118 c 0
 -6 -106 -8 -97 -8 -91 c 0
 -8 -83 -4 -79 5 -79 c 0
 11 -79 15 -82 17 -89 c 0
 28 -134 48 -171 77 -200 c 0
 106 -229 140 -244 179 -244 c 0
 219 -244 255 -233 287 -210 c 0
 319 -187 335 -135 335 -52 c 2
 335 52 l 2
 335 103 324 148 301 186 c 0
 278 224 238 243 179 243 c 0
 139 243 105 228 76 198 c 0
 50 171 30 134 17 88 c 0
 15 81 11 78 5 78 c 0
 -4 78 -8 82 -8 90 c 0
 -8 95 -6 104 -2 116 c 0
 3 129 10 145 19 162 c 0
 28 179 40 196 53 212 c 0
 66 228 84 241 107 252 c 0
 129 263 153 268 179 268 c 0
EndSplineSet
Validated: 1
EndChar

StartChar: uniE057
Encoding: 57431 57431 70
Width: 641
Flags: W
HStem: -928 12<229.237 283.135> -684 12<242.68 294.559> -635 43<189.57 337.406> -533 198<146.469 235.266> -262 43<235.468 419.194> 151 112<288.361 333 401 473.542>
VStem: 2 72<-26.2948 150.105> 65 207<-498.452 -376.678> 95 28<-880.671 -728.231> 174 52<-751.096 -694.324 -28.8244 86.8921> 198 48<672.919 927.5> 304 52<-903.329 -839.625> 324 22<-761.122 -702.222> 396 28<-878.671 -726.231> 428 72<790.214 970.983> 428 42<-482.105 -254> 574 71<-105.409 49.0738>
LayerCount: 2
Fore
SplineSet
361 -944 m 1xfc0480
 361 -944 363 -939 369 -930 c 0
 375 -921 381 -905 387 -884 c 0
 393 -862 396 -834 396 -803 c 0
 396 -772 393 -744 387 -722 c 0
 381 -700 375 -685 369 -676 c 0
 363 -667 361 -662 361 -662 c 1
 361 -657 363 -654 368 -654 c 0
 371 -654 377 -661 386 -675 c 0
 395 -689 404 -707 412 -732 c 0
 420 -757 424 -780 424 -803 c 0
 424 -826 420 -850 412 -874 c 0
 403 -899 395 -917 386 -931 c 0
 377 -945 371 -952 368 -952 c 0
 363 -952 361 -949 361 -944 c 1xfc0480
158 -946 m 1
 158 -951 156 -954 151 -954 c 0
 148 -954 142 -947 133 -933 c 0
 125 -919 116 -901 107 -876 c 0
 99 -852 95 -828 95 -805 c 0
 95 -782 99 -759 107 -734 c 0
 115 -709 124 -691 133 -677 c 0
 142 -663 148 -656 151 -656 c 0
 156 -656 158 -659 158 -664 c 1
 158 -664 156 -669 150 -678 c 0
 144 -687 138 -702 132 -724 c 0
 126 -746 123 -774 123 -805 c 0xfc8480
 123 -836 126 -864 132 -886 c 0
 138 -907 144 -923 150 -932 c 0
 156 -941 158 -946 158 -946 c 1
376 262 m 1
 382 262 l 1
 386 263 388 263 389 263 c 0
 464 263 525 237 573 184 c 0
 621 132 645 71 645 2 c 0
 645 -84 609 -154 538 -208 c 0
 519 -223 494 -235 465 -244 c 1
 468 -283 470 -318 470 -349 c 0
 470 -362 469 -382 468 -407 c 0
 465 -469 444 -522 404 -568 c 0
 366 -612 317 -635 260 -635 c 0
 206 -635 160 -616 122 -578 c 0
 84 -539 65 -493 65 -438 c 0
 65 -409 76 -385 98 -365 c 0
 121 -345 147 -335 177 -335 c 0
 204 -335 226 -345 244 -366 c 1
 263 -386 272 -410 272 -438 c 0
 272 -464 263 -486 244 -505 c 0
 225 -524 203 -533 177 -533 c 0
 166 -533 156 -531 146 -527 c 1
 175 -570 214 -592 263 -592 c 0
 309 -592 347 -573 376 -536 c 0
 406 -498 423 -453 426 -401 c 0
 427 -377 428 -359 428 -346 c 0xfd0580
 428 -312 427 -281 424 -254 c 1
 393 -259 364 -262 335 -262 c 0
 242 -262 163 -225 98 -152 c 1
 34 -78 2 10 2 112 c 0
 2 133 4 155 8 177 c 0
 13 199 18 218 23 236 c 0
 28 253 38 272 50 294 c 1
 64 317 74 335 82 348 c 0
 89 361 102 379 121 402 c 0
 140 425 153 442 161 451 c 0
 169 460 184 478 206 504 c 1
 229 529 243 546 250 553 c 1
 226 632 211 695 205 743 c 0
 200 784 198 836 198 899 c 0
 198 956 211 1011 238 1062 c 1
 264 1114 300 1157 347 1191 c 0
 350 1193 354 1194 357 1194 c 0
 362 1194 365 1193 367 1191 c 0
 403 1148 434 1092 460 1022 c 0
 487 952 500 889 500 833 c 0xfe2680
 500 768 484 708 454 653 c 1
 422 598 378 536 320 469 c 1
 337 416 355 347 376 262 c 1
461 -203 m 1
 494 -191 522 -170 542 -138 c 1
 564 -108 574 -74 574 -39 c 0
 574 8 558 50 526 87 c 0
 494 124 452 146 401 151 c 1
 430 10 450 -108 461 -203 c 1
74 28 m 0xfe0480
 74 -39 101 -96 154 -146 c 1
 208 -194 269 -219 338 -219 c 0
 366 -219 393 -217 420 -213 c 1
 409 -111 388 10 357 151 c 1
 319 147 289 134 266 111 c 0
 244 88 233 62 233 32 c 0
 233 -19 260 -60 314 -91 c 1
 319 -96 321 -101 321 -106 c 0
 321 -111 319 -116 314 -121 c 0
 310 -126 305 -128 299 -128 c 0
 297 -128 294 -127 290 -126 c 1
 251 -105 222 -78 202 -46 c 1
 183 -12 173 22 173 59 c 0
 173 105 187 146 216 184 c 1
 245 220 284 245 333 256 c 1
 316 324 301 382 287 431 c 1
 259 400 238 375 222 357 c 1
 208 339 189 315 167 284 c 0
 145 254 128 227 117 203 c 0
 106 179 96 152 87 120 c 0
 78 90 74 59 74 28 c 0xfe0480
408 1045 m 1
 359 1021 319 986 290 939 c 0
 261 892 246 841 246 786 c 0
 246 738 258 673 282 592 c 1
 329 649 365 702 390 753 c 0
 415 804 428 858 428 916 c 0xfc2680
 428 960 421 1003 408 1045 c 1
298 -780 m 1
 315 -763 324 -745 324 -728 c 1
 323 -715 318 -704 306 -696 c 0
 294 -688 280 -684 264 -684 c 0
 252 -684 243 -688 236 -695 c 0
 229 -702 226 -711 226 -720 c 0xfc4c80
 226 -732 231 -741 241 -747 c 2
 298 -780 l 1
314 -789 m 1
 341 -804 356 -826 356 -851 c 2
 356 -854 l 2
 356 -874 348 -892 331 -906 c 0
 314 -921 290 -928 260 -928 c 0
 234 -928 212 -921 194 -908 c 0
 175 -895 166 -878 166 -856 c 0
 166 -849 168 -840 173 -832 c 0
 178 -824 182 -818 186 -814 c 0
 190 -810 196 -803 205 -795 c 1
 184 -781 174 -762 174 -740 c 0xfc5480
 174 -722 182 -706 198 -692 c 0xfc2480
 214 -679 236 -672 264 -672 c 0
 286 -672 306 -677 322 -687 c 0
 338 -697 346 -711 346 -728 c 0
 346 -746 335 -767 314 -789 c 1
220 -804 m 1
 199 -822 189 -840 188 -856 c 1
 189 -873 196 -888 210 -899 c 0
 224 -910 241 -916 260 -916 c 0
 273 -916 284 -912 292 -903 c 0
 300 -895 304 -885 304 -874 c 0
 303 -859 298 -849 286 -842 c 2
 220 -804 l 1
EndSplineSet
Validated: 1
EndChar

StartChar: uniE4E5
Encoding: 58597 58597 71
Width: 242
Flags: W
HStem: -150 74<3.5 118.5>
VStem: -24 78<-238.5 -104.5> -6 128<-10 86.5> 121 128<183.5 279.5>
LayerCount: 2
Fore
SplineSet
-6 80 m 0xa0
 -6 93 1 106 14 120 c 0
 27 134 42 146 58 158 c 0
 73 168 88 184 101 203 c 0
 114 222 121 243 121 266 c 0
 121 293 112 317 95 337 c 2
 59 380 l 2
 56 383 55 386 55 390 c 0
 55 394 57 398 61 401 c 0
 65 404 69 406 73 406 c 0
 78 406 81 404 84 400 c 2
 239 216 l 2
 246 207 249 199 249 190 c 0x90
 249 177 242 164 229 150 c 0
 216 136 201 124 186 112 c 0
 170 102 155 86 142 67 c 0
 129 48 122 27 122 4 c 0xa0
 122 -24 130 -48 146 -67 c 2
 232 -168 l 2
 235 -171 236 -174 237 -178 c 0
 237 -183 235 -187 232 -190 c 0
 228 -193 224 -195 220 -195 c 0
 219 -195 213 -191 204 -184 c 0
 194 -176 180 -168 164 -161 c 0
 146 -154 128 -150 109 -150 c 0
 92 -150 78 -155 68 -164 c 0
 59 -173 54 -191 54 -218 c 0
 54 -259 64 -291 83 -314 c 0
 85 -317 85 -320 84 -324 c 0
 83 -326 80 -328 77 -328 c 0
 72 -328 62 -316 46 -292 c 0
 30 -268 14 -239 -1 -205 c 0
 -16 -171 -24 -142 -24 -119 c 0xc0
 -24 -90 -10 -76 17 -76 c 0
 50 -76 90 -87 139 -108 c 1
 4 54 l 2
 -3 63 -6 72 -6 80 c 0xa0
EndSplineSet
Validated: 1
EndChar

StartChar: uniE4C4
Encoding: 58564 58564 72
Width: 512
Flags: W
HStem: 0 136<221.5 240.5>
VStem: 163 136<58.5 77.5>
LayerCount: 2
Fore
SplineSet
163 68 m 0
 163 87 170 103 183 116 c 0
 196 129 212 136 231 136 c 0
 250 136 266 129 279 116 c 0
 292 103 299 87 299 68 c 0
 299 49 292 33 279 20 c 0
 266 7 250 0 231 0 c 0
 212 0 196 7 183 20 c 0
 170 33 163 49 163 68 c 0
19 0 m 0
 14 0 10 2 6 6 c 0
 2 10 0 14 0 19 c 0
 0 22 2 28 5 35 c 2
 239 552 l 2
 242 559 248 563 256 563 c 0
 264 563 270 559 273 552 c 2
 507 34 l 2
 510 29 511 24 511 18 c 0
 511 11 509 7 506 4 c 0
 503 1 498 0 493 0 c 2
 442 0 l 2
 434 0 428 4 425 11 c 2
 230 439 l 1
 37 11 l 2
 34 4 28 0 19 0 c 0
EndSplineSet
Validated: 1
EndChar

StartChar: uniE261
Encoding: 57953 57953 73
Width: 171
Flags: W
VStem: -8 49 0 37 127 52<-384 -384>
LayerCount: 2
Fore
SplineSet
-8 384 m 5xa0
 1 389 10 391 18 391 c 4
 26 391 35 389 44 384 c 5
 41 197 l 5xa0
 150 217 l 5
 154 217 l 6
 166 217 172 211 172 200 c 6
 179 -384 l 5
 170 -389 161 -391 153 -391 c 4
 145 -391 136 -389 127 -384 c 5
 130 -197 l 5
 22 -217 l 5
 18 -217 l 6
 6 -217 0 -211 0 -200 c 6x60
 -8 384 l 5xa0
131 -97 m 5
 134 115 l 5
 40 97 l 5
 37 -115 l 5x60
 131 -97 l 5
EndSplineSet
Validated: 1
EndChar

StartChar: uniE048
Encoding: 57416 57416 74
Width: 540
Flags: W
HStem: 705 30
VStem: 390 75 545 30 655 75
LayerCount: 2
Fore
SplineSet
295 14 m 2
 295 10 294 6 290 4 c 0
 288 0 284 -1 280 -1 c 0
 276 -1 272 0 270 4 c 0
 266 6 265 10 265 14 c 2
 265 105 l 1
 218 110 180 135 154 181 c 0
 126 227 112 282 110 345 c 1
 20 345 l 2
 16 345 12 346 10 350 c 0
 6 352 5 356 5 360 c 0
 5 364 6 368 10 370 c 0
 12 374 16 375 20 375 c 2
 110 375 l 1
 112 438 126 492 154 538 c 0
 180 585 218 610 265 615 c 1
 265 706 l 2
 265 710 266 714 270 716 c 0
 272 720 276 721 280 721 c 0
 284 721 288 720 290 716 c 0
 294 714 295 710 295 706 c 2
 295 615 l 1
 342 610 380 585 406 539 c 0
 434 493 448 438 450 375 c 1
 540 375 l 2
 544 375 548 374 550 370 c 0
 554 368 555 364 555 360 c 0
 555 356 554 352 550 350 c 0
 548 346 544 345 540 345 c 2
 450 345 l 1
 448 282 434 228 406 182 c 0
 380 135 342 110 295 105 c 1
 295 14 l 2
295 375 m 1
 375 375 l 1
 375 404 374 428 372 448 c 0
 370 467 367 488 362 510 c 0
 357 531 349 548 338 561 c 0
 327 574 312 581 295 584 c 1
 295 375 l 1
295 345 m 1
 295 136 l 1
 312 139 327 146 338 159 c 0
 349 172 357 189 362 210 c 0
 367 232 370 253 372 272 c 0
 374 292 375 316 375 345 c 1
 295 345 l 1
265 375 m 1
 265 584 l 1
 248 581 233 574 222 561 c 0
 211 548 203 531 198 510 c 0
 193 488 190 467 188 448 c 0
 186 428 185 404 185 375 c 1
 265 375 l 1
265 345 m 1
 185 345 l 1
 185 316 186 292 188 272 c 0
 190 253 193 232 198 210 c 0
 203 189 211 172 222 159 c 0
 233 146 248 139 265 136 c 1
 265 345 l 1
EndSplineSet
Validated: 1
EndChar

StartChar: uniEB86
Encoding: 60294 60294 75
Width: 256
Flags: W
HStem: -20 40<-6.5 17.5>
VStem: -20 276<-111 6.5>
LayerCount: 2
Fore
SplineSet
-20 0 m 0
 -20 13 -13 20 0 20 c 0
 35 20 68 26 98 37 c 0
 129 48 152 61 168 74 c 0
 185 87 199 100 211 111 c 0
 223 122 231 128 236 128 c 0
 241 128 246 126 250 122 c 0
 254 119 256 114 256 108 c 0
 256 98 242 81 212 56 c 0
 184 31 151 13 115 0 c 1
 149 -12 181 -30 211 -54 c 0
 241 -79 256 -97 256 -108 c 0
 256 -114 254 -119 250 -122 c 0
 246 -126 241 -128 236 -128 c 0
 232 -128 224 -122 212 -111 c 0
 199 -100 185 -87 168 -74 c 0
 152 -61 129 -48 98 -37 c 0
 68 -26 35 -20 0 -20 c 0
 -13 -20 -20 -13 -20 0 c 0
EndSplineSet
Validated: 1
EndChar

StartChar: uniE240
Encoding: 57920 57920 76
Width: 246
Flags: W
HStem: -20 20G<0 32 32 32>
VStem: 0 32<-18.5 0> 203 43<-577.5 -529.5>
LayerCount: 2
Fore
SplineSet
0 -256 m 1
 0 0 l 1
 32 0 l 1
 32 -37 39 -75 54 -114 c 0
 69 -153 86 -189 107 -222 c 0
 128 -255 149 -289 170 -323 c 0
 191 -357 209 -393 224 -432 c 0
 239 -471 246 -509 246 -546 c 0
 246 -614 232 -685 203 -758 c 0
 198 -766 192 -770 184 -770 c 0
 177 -770 171 -767 166 -762 c 0
 162 -758 160 -753 160 -747 c 0
 160 -745 160 -744 160 -742 c 0
 189 -675 203 -609 203 -546 c 0
 203 -513 193 -477 173 -438 c 0
 153 -399 133 -368 112 -344 c 0
 91 -319 65 -290 32 -256 c 1
 0 -256 l 1
EndSplineSet
Validated: 1
EndChar

StartChar: uniE442
Encoding: 58434 58434 77
Width: 203
Flags: W
HStem: 106 44<94 147>
VStem: -3 43 5 42 146 79<36 47.5>
LayerCount: 2
Fore
SplineSet
48 42 m 2xb0
 47 -37 l 2
 47 -62 48 -85 51 -104 c 1
 71 -87 87 -73 98 -62 c 0
 109 -51 119 -37 130 -18 c 0
 141 1 146 19 146 38 c 0
 146 57 142 73 134 86 c 0
 126 99 115 106 102 106 c 0
 86 106 73 100 64 88 c 0
 54 75 49 60 48 42 c 2xb0
-4 253 m 1
 -8 468 l 1
 1 473 11 476 20 476 c 0
 29 476 39 473 48 468 c 1
 44 276 l 1
 114 311 l 2
 117 312 120 313 123 313 c 0
 126 313 130 312 133 310 c 0
 139 307 142 301 142 294 c 0
 141 287 138 282 131 278 c 2
 43 233 l 1
 40 115 l 1xd0
 67 138 99 150 134 150 c 0
 160 150 182 139 199 118 c 0
 216 97 225 73 225 45 c 0
 225 27 219 9 208 -10 c 0
 197 -29 185 -43 174 -52 c 0
 162 -62 145 -75 123 -92 c 0
 101 -108 85 -120 74 -128 c 0
 71 -130 66 -135 61 -144 c 0
 56 -151 50 -157 45 -161 c 0
 40 -165 34 -167 28 -167 c 0
 21 -167 16 -165 12 -160 c 0
 7 -155 5 -149 5 -141 c 2xb0
 -3 211 l 1xd0
 -74 175 l 2
 -77 174 -79 173 -82 173 c 2
 -92 176 l 2
 -99 179 -102 184 -102 191 c 0
 -102 199 -98 205 -91 209 c 2
 -4 253 l 1
EndSplineSet
Validated: 1
EndChar

StartChar: uniE4F5
Encoding: 58613 58613 78
Width: 384
Flags: W
HStem: -26 52<-137.5 0 -134 0 384 518> -26 186<-137.5 374 10 374 374 377.5 10 518>
LayerCount: 2
Fore
SplineSet
518 -26 m 2x80
 -134 -26 l 2
 -141 -26 -147 -23 -152 -18 c 0
 -158 -13 -160 -7 -160 0 c 0
 -160 7 -158 13 -152 18 c 0
 -148 23 -141 26 -134 26 c 2
 0 26 l 1x80
 0 150 l 2
 0 157 3 160 10 160 c 2
 374 160 l 2x40
 381 160 384 157 384 150 c 2
 384 26 l 1
 518 26 l 2
 525 26 531 23 536 18 c 0
 541 13 544 7 544 0 c 0
 544 -7 541 -13 536 -18 c 0
 531 -23 525 -26 518 -26 c 2x80
EndSplineSet
Validated: 1
EndChar

StartChar: uniE273
Encoding: 57971 57971 79
Width: 169
Flags: W
VStem: -8 49 0 37 131 44<-440.5 -434>
LayerCount: 2
Fore
SplineSet
131 -434 m 2xa0
 132 -197 l 1
 18 -217 l 2
 6 -217 0 -211 0 -200 c 2x60
 -8 384 l 1
 1 389 10 391 18 391 c 0
 25 391 34 389 44 384 c 1
 41 197 l 1
 153 217 l 2
 165 217 171 211 171 200 c 2
 175 -434 l 2
 175 -447 179 -453 188 -453 c 0
 192 -453 204 -447 225 -436 c 2
 267 -414 l 2
 273 -414 276 -417 276 -422 c 0
 276 -424 275 -426 274 -428 c 0
 237 -483 204 -552 172 -636 c 0
 164 -661 157 -673 153 -673 c 0
 149 -673 142 -661 134 -636 c 0
 102 -552 69 -483 32 -428 c 0
 31 -426 30 -424 30 -422 c 0
 30 -417 33 -414 39 -414 c 2
 81 -436 l 2
 102 -447 114 -453 118 -453 c 0
 127 -453 131 -447 131 -434 c 2xa0
133 -97 m 1
 134 116 l 1
 40 97 l 1
 37 -115 l 1
 133 -97 l 1
EndSplineSet
Validated: 1
EndChar

StartChar: uniE0A4
Encoding: 57508 57508 80
Width: 336
Flags: W
HStem: -141 282<95.5 241.5>
VStem: 0 337<-62 62>
LayerCount: 2
Fore
SplineSet
225 141 m 0
 258 141 285 132 306 116 c 0
 327 98 337 76 337 48 c 0
 337 2 313 -41 266 -81 c 0
 218 -121 167 -141 112 -141 c 0
 79 -141 52 -132 31 -116 c 0
 10 -98 0 -76 0 -48 c 0
 0 -2 24 41 72 81 c 0
 119 121 170 141 225 141 c 0
EndSplineSet
Validated: 1
EndChar

StartChar: uniE4C5
Encoding: 58565 58565 81
Width: 512
Flags: W
HStem: -136 136<272 291>
VStem: 213 136<-78 -59>
LayerCount: 2
Fore
SplineSet
349 -68 m 0
 349 -88 342 -104 330 -116 c 0
 316 -130 300 -136 282 -136 c 0
 262 -136 246 -130 233 -116 c 0
 220 -104 213 -88 213 -68 c 0
 213 -50 220 -33 233 -20 c 0
 246 -7 262 0 282 0 c 0
 300 0 316 -7 330 -20 c 0
 342 -33 349 -49 349 -68 c 0
493 0 m 0
 498 0 503 -2 506 -6 c 0
 510 -9 512 -14 512 -19 c 0
 512 -20 511 -22 510 -27 c 2
 273 -552 l 2
 270 -559 264 -563 256 -563 c 0
 248 -563 242 -559 239 -552 c 2
 2 -27 l 2
 1 -23 0 -20 0 -19 c 0
 0 -14 2 -9 6 -6 c 0
 9 -2 14 0 19 0 c 2
 70 0 l 2
 78 0 84 -4 87 -11 c 2
 282 -439 l 1
 475 -11 l 2
 479 -4 485 0 493 0 c 0
EndSplineSet
Validated: 1
EndChar

StartChar: uniEB84
Encoding: 60292 60292 82
Width: 128
Flags: W
HStem: -20 276<-111 6.5>
VStem: -20 40<-6.5 17.5>
LayerCount: 2
Fore
SplineSet
0 -20 m 0
 -13 -20 -20 -13 -20 0 c 0
 -20 35 -26 68 -37 98 c 0
 -48 129 -61 152 -74 168 c 0
 -87 185 -100 199 -111 211 c 0
 -122 223 -128 231 -128 236 c 0
 -128 241 -126 246 -122 250 c 0
 -119 254 -114 256 -108 256 c 0
 -98 256 -81 242 -56 212 c 0
 -31 184 -13 151 0 115 c 1
 12 149 30 181 54 211 c 0
 79 241 97 256 108 256 c 0
 114 256 119 254 122 250 c 0
 126 246 128 241 128 236 c 0
 128 232 122 224 111 212 c 0
 100 199 87 185 74 168 c 0
 61 152 48 129 37 98 c 0
 26 68 20 35 20 0 c 0
 20 -13 13 -20 0 -20 c 0
EndSplineSet
Validated: 1
EndChar

StartChar: uniEAA0
Encoding: 60064 60064 83
Width: 214
Flags: W
HStem: 128 256
VStem: 203 248
LayerCount: 2
Fore
SplineSet
27 129 m 1
 19 117 l 1
 -15 139 l 1
 57 247 l 2
 61 253 67 256 74 256 c 0
 80 256 85 254 90 249 c 2
 191 127 l 1
 199 139 l 1
 233 117 l 1
 161 9 l 2
 157 3 151 0 144 0 c 0
 138 0 133 2 128 7 c 2
 27 129 l 1
EndSplineSet
Validated: 1
EndChar

StartChar: uniE246
Encoding: 57926 57926 84
Width: 246
Flags: W
HStem: -20 20G<0 32 32 32>
VStem: 0 32<-1024 -908 -705.5 -691 -691 -678 -475.5 -461 -461 -447 -244.5 -230 -230 -217 -17.5 0> 186 44<-501 -482> 196 44<-931 -912.5 -947 -910 -711.5 -681.5>
LayerCount: 2
Fore
SplineSet
32 -217 m 1xe0
 32 -230 l 2
 32 -259 37 -287 48 -314 c 0
 60 -345 71 -369 82 -386 c 0
 94 -405 111 -431 134 -462 c 0
 156 -494 172 -517 182 -531 c 1
 185 -520 186 -508 186 -494 c 0
 186 -470 181 -445 172 -420 c 0
 163 -395 149 -369 132 -344 c 0
 115 -319 100 -297 85 -279 c 0
 70 -261 53 -240 32 -217 c 1xe0
32 0 m 1
 32 -35 39 -70 52 -103 c 0
 67 -140 83 -173 102 -202 c 2
 160 -292 l 2
 182 -326 198 -359 210 -390 c 0
 223 -425 230 -460 230 -494 c 0xe0
 230 -523 223 -553 210 -583 c 1
 230 -624 240 -663 240 -700 c 0
 240 -738 230 -776 210 -814 c 1
 230 -855 240 -894 240 -931 c 0xd0
 240 -963 228 -993 204 -1022 c 1
 232 -1071 246 -1118 246 -1161 c 0
 246 -1222 232 -1283 203 -1345 c 0
 198 -1352 192 -1356 184 -1356 c 0
 177 -1356 171 -1353 166 -1348 c 0
 162 -1343 160 -1338 160 -1332 c 0
 160 -1331 160 -1330 160 -1328 c 0
 189 -1272 203 -1216 203 -1161 c 0
 203 -1136 198 -1113 188 -1091 c 0
 177 -1068 163 -1045 144 -1022 c 0
 125 -999 107 -979 91 -963 c 0
 75 -947 55 -929 32 -908 c 1
 32 -1024 l 1
 0 -1024 l 1
 0 0 l 1
 32 0 l 1
32 -447 m 1
 32 -461 l 2
 32 -490 37 -519 48 -546 c 0
 58 -573 70 -597 84 -619 c 0
 96 -638 113 -664 136 -695 c 0
 158 -726 174 -750 184 -766 c 1
 192 -745 196 -723 196 -700 c 0xd0
 196 -658 181 -616 150 -575 c 0
 119 -534 80 -491 32 -447 c 1
32 -678 m 1
 32 -691 l 2
 32 -720 37 -747 48 -774 c 0
 58 -799 69 -822 82 -843 c 0
 93 -860 110 -885 133 -918 c 0
 156 -950 172 -972 180 -984 c 1
 190 -968 195 -950 196 -931 c 0
 196 -889 181 -847 150 -806 c 0
 119 -765 80 -722 32 -678 c 1
EndSplineSet
Validated: 1
EndChar

StartChar: uniE568
Encoding: 58728 58728 85
Width: 559
Flags: W
HStem: 0 80<85.5 150.5> 0 108<433.5 440 420.5 459.5> 162 108<120 126.5 100.5 139.5> 190 80
VStem: 0 31<127 143 127 153.5> 529 31<127 143>
LayerCount: 2
Fore
SplineSet
422 270 m 0x9c
 460 270 493 257 520 230 c 0
 547 204 560 172 560 135 c 0
 560 98 549 67 526 40 c 0
 504 13 476 0 443 0 c 0
 424 0 408 5 394 16 c 0
 380 26 373 39 373 54 c 0
 373 71 378 84 389 94 c 0
 400 103 413 108 428 108 c 0
 452 108 469 98 478 77 c 1
 493 79 505 85 514 96 c 0
 524 106 529 119 529 135 c 0
 529 151 523 164 510 174 c 0
 498 185 483 190 466 190 c 0x5c
 444 190 422 183 400 170 c 0
 378 157 357 142 338 123 c 0
 319 104 299 86 279 67 c 0
 259 48 237 33 212 20 c 0
 188 7 163 0 138 0 c 0
 100 0 67 13 40 40 c 0
 13 66 0 98 0 135 c 0
 0 172 11 203 34 230 c 0
 56 257 84 270 117 270 c 0
 136 270 152 265 166 254 c 0
 180 244 187 231 187 216 c 0
 187 199 182 186 171 176 c 0
 160 167 147 162 132 162 c 0xac
 108 162 91 172 82 193 c 1
 67 191 55 185 46 174 c 0
 36 164 31 151 31 135 c 0
 31 119 37 106 50 96 c 0
 62 85 77 80 94 80 c 0
 116 80 138 87 160 100 c 0
 182 113 203 128 222 147 c 0
 241 166 261 184 281 203 c 0
 301 222 323 237 348 250 c 0
 372 263 397 270 422 270 c 0x9c
EndSplineSet
Validated: 1
EndChar

StartChar: uniE243
Encoding: 57923 57923 86
Width: 307
Flags: W
HStem: 0 21G<0 32 0 0>
VStem: 0 32<0 17 205 230 435 512> 251 43<436.5 461.5> 264 43<658.5 681.5 658.5 688.5>
LayerCount: 2
Fore
SplineSet
32 205 m 1xe0
 65 224 90 240 108 252 c 0
 132 269 155 287 176 306 c 0
 199 327 218 350 231 374 c 0
 244 399 251 424 251 449 c 0
 251 474 246 497 237 520 c 1
 227 508 205 487 172 456 c 0
 142 428 119 405 102 387 c 0
 85 369 69 346 54 317 c 0
 39 288 32 259 32 230 c 2
 32 205 l 1xe0
307 679 m 0xd0
 307 638 294 599 269 560 c 1
 286 524 294 487 294 449 c 0xe0
 294 416 285 383 267 350 c 0
 248 315 226 285 202 262 c 2
 124 186 l 2
 99 160 77 131 59 99 c 0
 41 67 32 34 32 0 c 1
 0 0 l 1
 0 512 l 1
 32 512 l 1
 32 435 l 1
 187 516 264 597 264 679 c 0
 264 698 259 719 250 742 c 0
 250 743 250 745 250 746 c 0
 250 752 252 757 256 762 c 0
 261 767 267 770 274 770 c 0
 281 770 287 766 292 758 c 0
 297 749 301 739 302 727 c 0
 304 715 305 705 306 698 c 0
 307 691 307 684 307 679 c 0xd0
EndSplineSet
Validated: 1
EndChar

StartChar: uniE4E7
Encoding: 58599 58599 87
Width: 307
Flags: W
HStem: -201 55 55 55
VStem: -27 135 53 134 68 56<-512 -512>
LayerCount: 2
Fore
SplineSet
128 210 m 0xd0
 147 210 162 205 171 194 c 0
 180 183 186 172 188 160 c 0xd0
 189 147 193 136 198 126 c 0
 202 115 210 110 220 110 c 0
 227 110 237 118 250 134 c 0
 264 151 274 164 279 174 c 0
 282 180 287 184 293 184 c 2
 293 184 293 184 294 184 c 0
 300 183 304 180 307 174 c 1
 124 -512 l 1
 117 -519 107 -522 96 -522 c 0
 85 -522 75 -519 68 -512 c 1xc8
 171 -177 l 1
 126 -193 90 -201 62 -201 c 0
 38 -201 17 -193 0 -178 c 0
 -18 -163 -27 -143 -27 -120 c 0
 -27 -99 -20 -82 -6 -68 c 0
 9 -53 26 -46 47 -46 c 0
 66 -46 81 -51 90 -62 c 0
 100 -73 106 -84 108 -96 c 0xe0
 110 -109 113 -120 118 -130 c 0
 123 -141 130 -146 140 -146 c 0
 147 -146 159 -137 174 -118 c 0
 190 -100 199 -86 202 -77 c 2
 249 78 l 1
 207 63 171 55 142 55 c 0
 118 55 97 63 80 78 c 0
 62 93 53 113 53 136 c 0
 53 157 60 174 75 188 c 0
 90 203 107 210 128 210 c 0xd0
EndSplineSet
Validated: 1
EndChar

StartChar: uniE282
Encoding: 57986 57986 88
Width: 178
Flags: W
VStem: 71 38<-326 -200 -200 -200 -69 69 69 69 200 326>
LayerCount: 2
Fore
SplineSet
109 -326 m 2
 109 -339 103 -345 90 -345 c 0
 77 -345 71 -339 71 -326 c 2
 71 -200 l 1
 31 -222 l 2
 28 -224 25 -225 20 -225 c 0
 15 -225 10 -223 6 -220 c 0
 2 -216 0 -211 0 -205 c 2
 0 -143 l 2
 0 -136 3 -130 10 -125 c 2
 71 -91 l 1
 71 69 l 1
 31 46 l 2
 29 45 25 44 20 44 c 0
 15 44 10 46 6 50 c 0
 2 53 0 58 0 65 c 2
 0 126 l 2
 0 133 3 138 10 143 c 2
 71 178 l 1
 71 326 l 2
 71 339 77 345 90 345 c 0
 103 345 109 339 109 326 c 2
 109 200 l 1
 148 222 l 2
 151 224 155 225 159 225 c 0
 164 225 169 223 173 220 c 0
 177 216 179 211 179 205 c 2
 179 143 l 2
 179 136 176 130 169 125 c 2
 109 91 l 1
 109 -69 l 1
 148 -46 l 2
 150 -45 154 -44 159 -44 c 0
 164 -44 169 -46 173 -50 c 0
 177 -53 179 -58 179 -65 c 2
 179 -126 l 2
 179 -133 176 -138 169 -143 c 2
 109 -178 l 1
 109 -326 l 2
EndSplineSet
Validated: 1
EndChar

StartChar: uniE272
Encoding: 57970 57970 89
Width: 169
Flags: W
VStem: 0 37 127 51<-384 -384>
LayerCount: 2
Fore
SplineSet
40 434 m 2
 39 197 l 1
 153 217 l 2
 165 217 171 211 171 200 c 2
 178 -384 l 1
 169 -389 160 -391 152 -391 c 0
 145 -391 136 -389 127 -384 c 1
 130 -197 l 1
 18 -217 l 2
 6 -217 0 -211 0 -200 c 2
 -4 434 l 2
 -4 447 -8 453 -17 453 c 0
 -21 453 -33 447 -54 436 c 2
 -96 414 l 2
 -102 414 -105 417 -105 422 c 0
 -105 424 -104 426 -103 428 c 0
 -66 483 -33 552 -2 636 c 0
 8 661 14 673 18 673 c 0
 22 673 28 661 38 636 c 0
 69 552 102 483 139 428 c 0
 140 426 141 424 141 422 c 0
 141 417 138 414 132 414 c 2
 90 436 l 2
 69 447 57 453 53 453 c 0
 44 453 40 447 40 434 c 2
131 -97 m 1
 134 115 l 1
 38 97 l 1
 37 -116 l 1
 131 -97 l 1
EndSplineSet
Validated: 1
EndChar

StartChar: uniE064
Encoding: 57444 57444 90
Width: 688
Flags: W
HStem: -1097 12<224.5 240.5 224.5 249> -853 12<232 246> -180 104<614.5 629.5> -89 211<109.5 129 109.5 129.5> 76 104<614.5 629.5> 243 26<219.5 264.5>
VStem: 0 217<4 33 4 53> 140 22<-1026 -1026> 148 52<-921 -884.5> 278 53 298 22<-906 -898> 413 125<-14 34.5> 570 104<-135.5 -120.5 120.5 135.5>
LayerCount: 2
Fore
SplineSet
272 -950 m 1xc4b8
 289 -932 298 -914 298 -898 c 0
 297 -884 292 -873 280 -865 c 0
 268 -857 254 -853 238 -853 c 0
 226 -853 217 -857 210 -864 c 0
 203 -871 200 -880 200 -889 c 0
 200 -901 205 -910 215 -916 c 2
 272 -950 l 1xc4b8
288 -958 m 1
 315 -973 330 -995 330 -1021 c 0
 330 -1022 330 -1023 330 -1024 c 0
 330 -1044 322 -1061 305 -1075 c 0
 288 -1090 264 -1097 234 -1097 c 0
 208 -1097 186 -1090 168 -1077 c 0
 149 -1064 140 -1047 140 -1026 c 0xc558
 140 -1018 142 -1009 147 -1001 c 0
 152 -993 156 -987 160 -983 c 0
 164 -979 170 -972 179 -964 c 1
 158 -950 148 -932 148 -910 c 0
 148 -891 156 -875 172 -861 c 0
 188 -848 210 -841 238 -841 c 0
 260 -841 280 -846 296 -856 c 0
 312 -866 320 -880 320 -898 c 0
 320 -915 309 -936 288 -958 c 1
194 -973 m 1
 173 -991 163 -1009 162 -1026 c 0
 163 -1042 170 -1057 184 -1068 c 0
 198 -1079 215 -1085 234 -1085 c 0
 247 -1085 258 -1081 266 -1072 c 0
 274 -1064 278 -1054 278 -1042 c 0
 277 -1028 272 -1018 260 -1011 c 2
 194 -973 l 1
570 128 m 0
 570 143 575 155 585 165 c 0
 595 175 607 180 622 180 c 0
 637 180 649 175 659 165 c 0
 669 155 674 143 674 128 c 0
 674 113 669 101 659 91 c 0
 649 81 637 76 622 76 c 0xcc18
 607 76 595 81 585 91 c 0
 575 101 570 113 570 128 c 0
570 -128 m 0
 570 -113 575 -101 585 -91 c 0
 595 -81 607 -76 622 -76 c 0
 637 -76 649 -81 659 -91 c 0
 669 -101 674 -113 674 -128 c 0
 674 -143 669 -155 659 -165 c 0
 649 -175 637 -180 622 -180 c 0xe418
 607 -180 595 -175 585 -165 c 0
 575 -155 570 -143 570 -128 c 0
238 269 m 0
 328 269 400 246 456 202 c 0
 510 156 538 93 538 12 c 0
 538 -40 528 -90 506 -136 c 0
 486 -183 459 -225 427 -260 c 0
 395 -295 355 -330 306 -364 c 0
 257 -398 210 -426 164 -450 c 0
 65 -500 10 -525 0 -525 c 0
 -9 -525 -13 -521 -13 -512 c 0
 -13 -509 -12 -506 -9 -503 c 0
 39 -475 80 -449 116 -426 c 0
 151 -403 188 -374 228 -340 c 0
 267 -307 300 -274 324 -242 c 0
 350 -209 370 -172 388 -130 c 0
 404 -87 413 -43 413 2 c 0
 413 67 397 123 365 171 c 0
 333 219 291 243 238 243 c 0
 201 243 169 231 142 207 c 0
 114 183 93 152 80 114 c 1
 92 119 104 122 115 122 c 0
 143 122 167 112 187 92 c 0
 207 71 217 47 217 19 c 0
 217 -11 207 -36 188 -58 c 0
 168 -78 144 -89 115 -89 c 0
 84 -89 57 -78 34 -58 c 0
 12 -36 0 -11 0 19 c 0xd618
 0 87 23 146 70 195 c 0
 116 244 172 269 238 269 c 0
EndSplineSet
Validated: 1
EndChar

StartChar: uniE651
Encoding: 58961 58961 91
Width: 427
Flags: W
HStem: 0 21G<109.5 118> 230 68<53.5 89.5> 296 66<342.5 379> 494 18<249 256 249 249>
VStem: -1 45<297.5 362.5> 128 18<350.5 360> 168 41 258 53<168.5 224> 380 46<354.5 410.5>
LayerCount: 2
Fore
SplineSet
44 347 m 0xbf80
 44 330 49 317 58 310 c 0
 68 302 77 298 84 298 c 0
 95 298 106 304 114 316 c 0
 124 329 128 343 128 358 c 0
 128 362 131 364 137 364 c 0
 143 365 146 363 146 358 c 0
 146 326 137 297 120 270 c 0
 102 243 82 230 61 230 c 0xdf80
 46 230 31 237 18 252 c 0
 6 266 -1 285 -1 310 c 0
 -1 358 23 404 70 447 c 0
 117 490 179 512 256 512 c 0
 307 512 349 496 380 465 c 0
 410 434 426 400 426 365 c 0
 426 344 420 327 408 314 c 0
 397 302 385 296 373 296 c 0
 342 296 313 327 284 388 c 0
 283 390 284 392 286 394 c 0
 289 397 291 398 294 398 c 0
 297 398 299 397 300 395 c 0
 304 386 311 378 320 372 c 0
 329 365 338 362 347 362 c 0
 355 362 362 365 370 372 c 0
 376 378 380 387 380 399 c 0
 380 422 368 443 346 464 c 0
 322 484 293 494 256 494 c 2
 249 494 l 1
 242 482 234 462 224 434 c 0
 214 405 209 388 209 383 c 0
 209 368 226 340 260 301 c 0
 294 262 311 233 311 215 c 0
 311 204 291 173 252 123 c 1
 267 122 285 116 308 106 c 0
 330 96 346 87 356 78 c 0
 361 74 368 75 377 81 c 2
 415 110 l 2
 417 111 420 111 423 108 c 0
 426 105 428 102 428 99 c 0
 428 95 410 78 373 48 c 0
 336 17 312 2 300 2 c 0
 293 2 284 18 272 50 c 0
 260 83 248 101 237 104 c 1
 195 52 163 20 140 8 c 0
 131 3 122 0 114 0 c 0
 105 0 100 4 99 12 c 0
 99 28 116 50 149 78 c 0
 182 105 208 120 227 123 c 1
 248 148 258 164 258 173 c 0
 258 190 243 217 213 253 c 0
 183 289 168 314 168 327 c 0
 168 338 176 366 193 410 c 0
 210 453 222 481 229 493 c 1
 175 488 131 470 96 440 c 0
 61 408 44 378 44 347 c 0xbf80
EndSplineSet
Validated: 1
EndChar

StartChar: uniE274
Encoding: 57972 57972 92
Width: 281
Flags: W
VStem: 0 98<-209 -203 60 67> 60 38<-365 -216 -216 -216 -97 52 52 52 171 319> 183 38<-319 -171 -171 -171 -52 97 97 97 216 432>
LayerCount: 2
Fore
SplineSet
221 432 m 2x60
 221 216 l 1
 254 228 l 2
 255 229 258 229 261 229 c 0
 266 229 271 227 276 223 c 0
 280 219 282 214 282 209 c 2
 282 147 l 2
 282 138 277 131 268 128 c 2
 221 112 l 1
 221 -52 l 1
 254 -41 l 2
 255 -40 258 -40 261 -40 c 0
 266 -40 271 -42 276 -46 c 0
 280 -50 282 -55 282 -60 c 2
 282 -122 l 2
 282 -131 277 -137 268 -140 c 2
 221 -158 l 1
 221 -319 l 2
 221 -324 219 -329 216 -333 c 0
 212 -337 208 -339 203 -339 c 0
 198 -339 193 -337 189 -334 c 0
 185 -330 183 -325 183 -319 c 2
 183 -171 l 1
 98 -203 l 1xa0
 98 -365 l 2
 98 -370 96 -375 92 -378 c 0
 88 -382 84 -384 79 -384 c 0
 74 -384 70 -382 66 -378 c 0
 62 -375 60 -370 60 -365 c 2
 60 -216 l 1x60
 28 -228 l 2
 27 -229 24 -229 20 -229 c 0
 15 -229 10 -227 6 -223 c 0
 2 -219 0 -214 0 -209 c 2
 0 -147 l 2xa0
 0 -138 4 -131 13 -128 c 2
 60 -112 l 1
 60 52 l 1x60
 28 41 l 2
 27 40 24 40 20 40 c 0
 15 40 10 42 6 46 c 0
 2 50 0 55 0 60 c 2
 0 122 l 2xa0
 0 131 4 137 13 140 c 2
 60 158 l 1
 60 319 l 2
 60 324 62 329 66 333 c 0
 70 337 74 339 79 339 c 0
 84 339 88 337 92 334 c 0
 96 330 98 325 98 319 c 2
 98 171 l 1
 183 203 l 1
 183 432 l 2
 183 445 178 451 167 451 c 0
 163 451 151 445 130 434 c 2
 88 412 l 2
 82 412 79 415 79 420 c 0
 79 422 80 424 81 426 c 0
 118 481 151 550 182 634 c 0
 192 659 198 671 202 671 c 0
 206 671 212 659 222 634 c 0
 253 550 286 481 323 426 c 0
 324 424 325 422 325 420 c 0
 325 415 322 412 316 412 c 2
 274 434 l 2
 253 445 241 451 237 451 c 0
 226 451 221 445 221 432 c 2x60
183 97 m 1
 98 67 l 1xa0
 98 -97 l 1x60
 183 -67 l 1
 183 97 l 1
EndSplineSet
Validated: 1
EndChar

StartChar: uniE083
Encoding: 57475 57475 93
Width: 340
Flags: W
HStem: -256 24<149 169.5 149 184.5> 0 30<84.5 171 89 171> 232 24<134.5 176.5>
VStem: 0 93<-201.5 -130.5> 12 81 222 105<125 131 131 139 139 158.5 125 170> 222 119<-113 -101 -136 -96 -136 -84.5>
LayerCount: 2
Fore
SplineSet
269 15 m 0xec
 269 8 273 2 280 -4 c 0
 288 -10 296 -16 305 -22 c 0
 314 -27 322 -38 330 -54 c 0
 337 -69 341 -89 341 -113 c 0
 341 -159 324 -194 290 -219 c 0
 255 -244 211 -256 158 -256 c 0
 116 -256 79 -246 48 -224 c 0
 16 -204 0 -175 0 -140 c 0
 0 -121 7 -106 20 -92 c 0
 33 -80 49 -73 68 -73 c 0
 86 -73 102 -80 114 -93 c 0
 128 -106 134 -122 134 -140 c 0
 134 -149 127 -158 114 -168 c 0
 100 -177 93 -186 93 -195 c 0
 93 -208 99 -217 112 -223 c 0
 125 -229 140 -232 158 -232 c 0
 181 -232 198 -220 208 -198 c 0
 217 -174 222 -146 222 -113 c 2
 222 -96 l 2xf2
 222 -73 221 -56 220 -45 c 0
 219 -34 214 -23 206 -14 c 0
 199 -5 187 0 171 0 c 2
 89 0 l 2
 80 0 75 5 75 15 c 0
 75 24 80 29 89 30 c 2
 171 30 l 2
 190 30 203 36 211 48 c 0
 217 57 221 74 222 98 c 2
 222 131 l 1
 222 139 l 2
 222 201 199 232 154 232 c 0
 114 232 94 221 93 199 c 0
 93 192 99 184 112 175 c 0
 124 166 130 158 130 151 c 0
 130 134 124 120 112 108 c 0
 101 97 87 91 70 91 c 0
 54 91 40 97 29 108 c 0
 18 120 12 134 12 151 c 0
 12 183 26 208 54 228 c 0
 82 246 115 256 154 256 c 0
 205 256 246 246 278 227 c 0
 311 208 327 178 327 139 c 0
 327 111 324 89 318 74 c 0
 312 59 305 49 298 46 c 0
 291 43 284 39 278 34 c 0
 272 29 269 23 269 15 c 0xec
EndSplineSet
Validated: 1
EndChar

StartChar: uniE0C0
Encoding: 57536 57536 94
Width: 336
Flags: W
HStem: -115 230<20 23 23 25 19.5 314>
VStem: 0 337<-93 -89 -96 93 -96 96>
LayerCount: 2
Fore
SplineSet
337 -93 m 0
 337 -99 335 -104 330 -108 c 0
 326 -113 321 -115 314 -115 c 2
 23 -115 l 2
 17 -115 12 -113 7 -108 c 0
 2 -104 0 -99 0 -93 c 2
 0 93 l 2
 0 99 2 104 6 108 c 0
 11 113 16 115 23 115 c 0
 27 115 31 114 35 112 c 2
 327 -74 l 2
 334 -79 337 -85 337 -93 c 0
EndSplineSet
Validated: 1
EndChar

StartChar: uniEAA4
Encoding: 60068 60068 95
Width: 256
Flags: W
HStem: 199 114<158.662 220.5> 292 114<35.5 96.3846>
LayerCount: 2
Fore
SplineSet
179 199 m 0x80
 167 199 155 207 142 222 c 0
 129 237 115 253 98 268 c 0
 82 284 64 292 45 292 c 0
 26 292 10 286 -3 275 c 2
 -29 243 l 2
 -32 239 -36 237 -41 237 c 0
 -45 237 -49 239 -52 242 c 0
 -55 245 -57 248 -57 253 c 0
 -57 257 -56 260 -53 263 c 2
 56 395 l 2
 61 402 68 406 77 406 c 0x40
 89 406 101 398 114 383 c 0
 127 368 141 352 158 336 c 0
 174 321 192 313 211 313 c 0
 230 313 246 319 259 330 c 2
 285 362 l 2
 288 366 292 368 297 368 c 0
 301 368 305 367 308 364 c 0
 311 361 313 357 313 352 c 0
 313 348 312 344 309 341 c 2
 200 210 l 2
 194 203 187 199 179 199 c 0x80
EndSplineSet
Validated: 1
EndChar

StartChar: uniE564
Encoding: 58724 58724 96
Width: 212
Flags: W
LayerCount: 2
Fore
SplineSet
-170 -534 m 2
 199 -237 l 2
 204 -234 209 -232 214 -231 c 0
 221 -231 227 -234 232 -238 c 0
 237 -244 239 -249 239 -256 c 0
 239 -265 236 -271 229 -275 c 2
 -138 -572 l 2
 -143 -575 -148 -577 -154 -578 c 0
 -161 -578 -167 -576 -172 -570 c 0
 -177 -566 -179 -560 -179 -553 c 0
 -179 -544 -176 -538 -170 -534 c 2
EndSplineSet
Validated: 1
EndChar

StartChar: uniE4E9
Encoding: 58601 58601 97
Width: 358
Flags: W
HStem: -457 55<8 127.56> -201 55<70 186.849> 55 55<130 232.921> 311 55<192 293.989>
VStem: -69 135<-399.542 -324.004> -7 135<-143.542 -68.6584> 53 135<112.458 187.996> 115 135<368.458 445.357>
LayerCount: 2
Fore
SplineSet
188 466 m 0xf2
 207 466 222 461 232 450 c 0
 242 439 248 428 250 416 c 0
 251 403 254 392 259 382 c 0
 264 371 271 366 282 366 c 0
 288 366 296 374 307 390 c 0
 318 406 325 419 330 430 c 0
 333 436 338 440 344 440 c 0
 352 440 355 436 358 430 c 1
 118 -768 l 1
 111 -775 101 -778 89 -778 c 0
 78 -778 69 -775 61 -768 c 1
 136 -432 l 1
 91 -449 52 -457 20 -457 c 0
 -4 -457 -25 -449 -42 -434 c 0
 -60 -419 -69 -399 -69 -376 c 0
 -69 -355 -62 -338 -47 -324 c 0
 -32 -309 -15 -302 6 -302 c 0
 25 -302 40 -307 49 -318 c 0
 58 -329 64 -340 66 -352 c 0xf9
 68 -365 71 -376 76 -386 c 0
 81 -397 88 -402 98 -402 c 0
 106 -402 118 -392 134 -372 c 0
 149 -353 158 -338 160 -328 c 2
 194 -177 l 1
 152 -193 115 -201 82 -201 c 0
 58 -201 37 -193 20 -178 c 0
 2 -163 -7 -143 -7 -120 c 0
 -7 -99 0 -82 14 -68 c 0
 29 -53 46 -46 67 -46 c 0
 86 -46 101 -51 110 -62 c 0
 120 -73 126 -84 128 -96 c 0xf4
 129 -109 132 -120 137 -130 c 0
 142 -141 149 -146 160 -146 c 0
 167 -146 178 -136 192 -118 c 0
 206 -98 214 -84 216 -74 c 2
 251 79 l 1
 206 63 170 55 142 55 c 0
 118 55 97 63 80 78 c 0
 62 93 53 113 53 136 c 0xf2
 53 157 60 174 75 188 c 0
 90 203 107 210 128 210 c 0xf4
 147 210 162 205 171 194 c 0
 180 183 186 172 188 160 c 0xf2
 189 147 193 136 198 126 c 0
 202 115 210 110 220 110 c 0
 227 110 237 119 250 138 c 0
 262 156 270 170 273 179 c 2
 308 334 l 1
 267 319 232 311 204 311 c 0
 180 311 159 319 142 334 c 0
 124 349 115 369 115 392 c 0xf1
 115 413 122 430 136 444 c 0
 150 459 167 466 188 466 c 0xf2
EndSplineSet
Validated: 1
EndChar

StartChar: uniE610
Encoding: 58896 58896 98
Width: 384
Flags: W
HStem: 205 136<32 354 32 32>
VStem: 0 32<15 205> 354 32<15 205 205 205>
LayerCount: 2
Fore
SplineSet
11 341 m 2
 375 341 l 2
 382 341 386 338 386 331 c 2
 386 15 l 2
 386 11 384 7 381 4 c 0
 378 1 374 0 370 0 c 0
 366 0 362 1 359 4 c 0
 356 7 354 11 354 15 c 2
 354 205 l 1
 32 205 l 1
 32 15 l 2
 32 11 31 7 28 4 c 0
 25 1 21 0 17 0 c 0
 13 0 9 1 6 4 c 0
 2 7 0 11 0 15 c 2
 0 331 l 2
 0 338 4 341 11 341 c 2
EndSplineSet
Validated: 1
EndChar

StartChar: uniE624
Encoding: 58916 58916 99
Width: 203
Flags: W
HStem: 0 21G<98.5 105.5> 302 31<87 117 87 118.5>
VStem: 0 54<190 222.5> 80 44<77 79 77 79> 151 53<190 222.5 190 237.5>
LayerCount: 2
Fore
SplineSet
124 77 m 1
 127 25 l 2
 128 18 125 12 120 7 c 0
 115 2 109 0 102 0 c 0
 95 0 89 2 84 7 c 0
 79 12 76 18 77 25 c 2
 80 77 l 1
 80 79 l 1
 55 85 36 100 22 124 c 0
 7 148 0 175 0 205 c 0
 0 240 9 270 28 295 c 0
 47 320 72 333 102 333 c 0
 132 333 157 320 176 295 c 0
 195 270 204 240 204 205 c 0
 204 175 197 148 182 124 c 0
 167 100 148 85 124 79 c 1
 124 77 l 1
151 205 m 0
 151 270 135 302 102 302 c 0
 70 302 54 270 54 205 c 0
 54 140 70 108 102 108 c 0
 135 108 151 140 151 205 c 0
EndSplineSet
Validated: 1
EndChar

StartChar: uniE093
Encoding: 57491 57491 100
Width: 180
Flags: W
VStem: 102 52<-126.266 128.29>
LayerCount: 2
Fore
SplineSet
38 -256 m 0
 38 -255 43 -247 54 -230 c 0
 65 -213 75 -185 86 -146 c 0
 97 -106 102 -57 102 0 c 0
 102 57 97 106 86 146 c 0
 75 186 65 214 54 230 c 0
 43 247 38 255 38 256 c 0
 38 265 42 269 51 269 c 0
 57 269 68 257 84 232 c 0
 101 207 117 173 132 128 c 0
 146 83 154 41 154 0 c 0
 154 -41 146 -84 131 -128 c 0
 116 -173 100 -207 84 -232 c 0
 68 -257 57 -269 51 -269 c 0
 42 -269 38 -265 38 -256 c 0
EndSplineSet
Validated: 1
EndChar

StartChar: uniE0D9
Encoding: 57561 57561 101
Width: 372
Flags: W
HStem: -108 25 83 25
VStem: 0 74<-104.5 -51.5> 299 74<51.5 104.5>
LayerCount: 2
Fore
SplineSet
299 56 m 0
 299 74 289 83 269 83 c 0
 252 83 220 68 173 37 c 0
 126 6 96 -17 83 -32 c 0
 77 -39 74 -47 74 -56 c 0
 74 -74 84 -83 103 -83 c 0
 120 -83 152 -68 199 -37 c 0
 246 -6 277 17 290 32 c 0
 296 39 299 47 299 56 c 0
331 141 m 0
 343 141 353 137 361 128 c 0
 369 119 373 110 373 99 c 0
 373 88 366 73 354 54 c 0
 340 34 333 20 330 12 c 0
 327 3 325 -10 324 -28 c 0
 323 -45 321 -59 318 -70 c 0
 316 -81 309 -91 297 -100 c 0
 285 -109 268 -114 245 -114 c 0
 237 -114 224 -113 206 -111 c 0
 187 -109 174 -108 165 -108 c 0
 148 -108 126 -113 99 -124 c 0
 72 -135 53 -140 42 -140 c 0
 30 -140 20 -136 12 -128 c 0
 4 -119 0 -110 0 -99 c 0
 0 -88 6 -73 20 -54 c 0
 33 -34 40 -20 43 -12 c 0
 46 -3 48 10 49 28 c 0
 50 45 52 59 54 70 c 0
 56 81 63 91 76 100 c 0
 88 109 105 114 128 114 c 0
 136 114 149 113 168 111 c 0
 186 109 199 108 208 108 c 0
 225 108 247 114 274 124 c 0
 301 136 320 141 331 141 c 0
EndSplineSet
Validated: 1
EndChar

StartChar: uniE092
Encoding: 57490 57490 102
Width: 180
Flags: W
VStem: 26 52<-126.266 128.29>
LayerCount: 2
Fore
SplineSet
142 -256 m 0
 142 -265 138 -269 129 -269 c 0
 123 -269 112 -257 96 -232 c 0
 80 -207 64 -173 49 -128 c 0
 34 -84 26 -41 26 0 c 0
 26 41 34 83 48 128 c 0
 64 173 79 207 96 232 c 0
 112 257 123 269 129 269 c 0
 138 269 142 265 142 256 c 0
 142 255 137 247 126 230 c 0
 115 214 105 186 94 146 c 0
 83 106 78 57 78 0 c 0
 78 -57 83 -106 94 -146 c 0
 105 -185 115 -213 126 -230 c 0
 137 -247 142 -255 142 -256 c 0
EndSplineSet
Validated: 1
EndChar

StartChar: uniE522
Encoding: 58658 58658 103
Width: 437
Flags: W
HStem: -170 33<-21 -15 -15 -12.5 -21 7> 251 34<71.5 136 74 127 263 321> 446 32<354 357 354 354.5>
VStem: -102 58<-130.5 -94.5> 379 58<403.5 438.5>
LayerCount: 2
Fore
SplineSet
254 251 m 1
 203 86 l 2
 185 27 155 -31 114 -86 c 0
 72 -142 29 -170 -15 -170 c 0
 -38 -170 -59 -164 -76 -152 c 0
 -93 -140 -102 -124 -102 -105 c 0
 -102 -84 -98 -66 -88 -50 c 0
 -80 -36 -67 -28 -50 -28 c 0
 -38 -28 -28 -32 -19 -41 c 0
 -10 -50 -6 -60 -6 -72 c 0
 -6 -82 -12 -91 -25 -100 c 0
 -38 -108 -44 -117 -44 -127 c 0
 -44 -134 -36 -137 -21 -137 c 2
 -15 -137 l 2
 -10 -137 -5 -136 0 -135 c 0
 5 -134 9 -131 13 -128 c 0
 17 -125 20 -122 24 -120 c 0
 26 -117 29 -113 32 -107 c 0
 35 -101 37 -96 38 -93 c 0
 40 -90 42 -84 44 -76 c 0
 47 -68 48 -62 49 -60 c 0
 50 -56 51 -50 54 -41 c 0
 56 -32 57 -26 58 -24 c 2
 127 251 l 1
 74 251 l 2
 69 251 65 253 62 256 c 0
 60 259 58 263 58 268 c 0
 58 273 60 277 62 280 c 0
 66 283 69 285 74 285 c 2
 136 285 l 1
 153 336 181 381 222 420 c 0
 262 459 305 478 350 478 c 0
 373 478 394 472 411 460 c 0
 428 449 437 433 437 414 c 0
 437 393 432 374 424 359 c 0
 414 344 402 336 385 336 c 0
 373 336 363 340 354 349 c 0
 345 358 341 368 341 380 c 0
 341 390 347 399 360 408 c 0
 373 416 379 425 379 435 c 0
 379 442 372 446 357 446 c 0
 356 446 355 446 354 446 c 0
 352 445 351 445 350 445 c 0
 337 445 327 442 318 436 c 0
 309 430 302 420 296 407 c 0
 290 394 286 382 282 372 c 0
 280 361 276 346 272 326 c 0
 268 307 265 293 263 285 c 1
 321 285 l 2
 326 285 330 283 333 280 c 0
 336 277 338 273 338 268 c 0
 338 263 336 259 333 256 c 0
 330 253 326 251 321 251 c 2
 254 251 l 1
EndSplineSet
Validated: 1
EndChar

StartChar: uniE520
Encoding: 58656 58656 104
Width: 407
Flags: W
HStem: -141 16 -136 12 235 48<110.5 143 295.5 296>
VStem: 312 95<145 214>
LayerCount: 2
Fore
SplineSet
288 235 m 0x30
 270 235 253 225 238 205 c 0
 222 184 210 161 202 136 c 0
 194 111 190 90 190 72 c 0
 190 47 200 34 219 34 c 0
 236 34 251 41 262 53 c 0
 275 67 287 92 297 127 c 0
 307 163 312 188 312 203 c 0
 312 225 304 235 288 235 c 0x30
134 283 m 0
 152 283 167 278 179 269 c 0
 192 260 200 248 204 232 c 1
 218 248 234 260 252 269 c 0
 270 278 287 283 304 283 c 0
 337 283 362 273 380 252 c 0
 398 231 407 205 407 172 c 0
 407 118 388 74 350 40 c 0
 316 11 285 -4 256 -4 c 0
 240 -4 227 -3 215 1 c 0
 204 4 194 7 188 10 c 0
 181 14 177 15 174 15 c 0
 165 15 160 12 157 5 c 2
 119 -107 l 2
 119 -108 119 -110 119 -112 c 0
 119 -118 124 -122 134 -123 c 0
 144 -124 155 -125 165 -126 c 0
 175 -127 180 -129 180 -134 c 0
 180 -139 178 -141 173 -141 c 0xb0
 119 -138 79 -136 56 -136 c 0x70
 31 -136 -8 -138 -61 -141 c 0xb0
 -67 -141 -69 -139 -69 -134 c 0
 -69 -130 -64 -127 -55 -125 c 0
 -49 -124 -31 -124 -2 -124 c 0
 12 -124 21 -120 23 -111 c 2
 131 202 l 2
 133 208 134 213 134 217 c 0
 134 229 128 235 118 235 c 0
 103 235 86 225 69 205 c 0
 52 185 39 163 30 141 c 0
 27 135 23 132 16 132 c 0
 11 132 9 134 9 138 c 0
 9 143 10 148 14 154 c 0
 29 188 44 214 56 232 c 0
 65 245 77 257 91 267 c 0
 105 278 120 283 134 283 c 0
EndSplineSet
Validated: 1
EndChar

StartChar: uniE062
Encoding: 57442 57442 105
Width: 688
Flags: W
HStem: -180 104<614.5 629.5> -89 211<109.5 129 109.5 129.5> 76 104<614.5 629.5> 243 26<219.5 264.5>
VStem: 0 217<4 33 4 53> 413 125<-14 34.5> 570 104<-135.5 -120.5 120.5 135.5>
LayerCount: 2
Fore
SplineSet
570 128 m 0x3e
 570 143 575 155 585 165 c 0
 595 175 607 180 622 180 c 0
 637 180 649 175 659 165 c 0
 669 155 674 143 674 128 c 0
 674 113 669 101 659 91 c 0
 649 81 637 76 622 76 c 0
 607 76 595 81 585 91 c 0
 575 101 570 113 570 128 c 0x3e
570 -128 m 0
 570 -113 575 -101 585 -91 c 0
 595 -81 607 -76 622 -76 c 0
 637 -76 649 -81 659 -91 c 0
 669 -101 674 -113 674 -128 c 0
 674 -143 669 -155 659 -165 c 0
 649 -175 637 -180 622 -180 c 0x9e
 607 -180 595 -175 585 -165 c 0
 575 -155 570 -143 570 -128 c 0
238 269 m 0
 328 269 400 246 456 202 c 0
 510 156 538 93 538 12 c 0
 538 -40 528 -90 506 -136 c 0
 486 -183 459 -225 427 -260 c 0
 395 -295 355 -330 306 -364 c 0
 257 -398 210 -426 164 -450 c 0
 65 -500 10 -525 0 -525 c 0
 -9 -525 -13 -521 -13 -512 c 0
 -13 -509 -12 -506 -9 -503 c 0
 39 -475 80 -449 116 -426 c 0
 151 -403 188 -374 228 -340 c 0
 267 -307 300 -274 324 -242 c 0
 350 -209 370 -172 388 -130 c 0
 404 -87 413 -43 413 2 c 0
 413 67 397 123 365 171 c 0
 333 219 291 243 238 243 c 0
 201 243 169 231 142 207 c 0
 114 183 93 152 80 114 c 1
 92 119 104 122 115 122 c 0
 143 122 167 112 187 92 c 0
 207 71 217 47 217 19 c 0
 217 -11 207 -36 188 -58 c 0
 168 -78 144 -89 115 -89 c 0x5e
 84 -89 57 -78 34 -58 c 0
 12 -36 0 -11 0 19 c 0
 0 87 23 146 70 195 c 0
 116 244 172 269 238 269 c 0
EndSplineSet
Validated: 1
EndChar

StartChar: uniE4D1
Encoding: 58577 58577 106
Width: 457
Flags: W
HStem: 0 21G<8 52.5 153.5 196>
LayerCount: 2
Fore
SplineSet
145 19 m 2
 382 494 l 2
 387 506 397 512 412 512 c 2
 445 512 l 2
 453 512 457 508 457 500 c 0
 457 497 457 495 456 494 c 2
 218 19 l 2
 213 7 203 1 189 0 c 2
 156 0 l 2
 151 0 148 2 146 6 c 0
 145 8 144 11 144 14 c 0
 144 15 144 17 145 19 c 2
1 19 m 2
 239 494 l 2
 244 506 254 512 268 512 c 2
 301 512 l 2
 309 512 313 508 314 500 c 0
 314 497 314 495 313 494 c 2
 75 19 l 2
 70 7 60 1 45 0 c 2
 12 0 l 2
 4 0 0 4 0 12 c 0
 0 15 0 18 1 19 c 2
EndSplineSet
Validated: 1
EndChar

StartChar: uniE047
Encoding: 57415 57415 107
Width: 512
Flags: W
HStem: 384 31 686 62 788 62 1121 31
VStem: 256 61 256 80 305 62 433 115 476 115 657 62 688 80 707 61
LayerCount: 2
Fore
SplineSet
401 435 m 0xf0
 401 444 404 451 410 457 c 0
 416 463 423 466 432 466 c 0
 441 466 448 463 454 457 c 0
 460 451 463 444 463 435 c 0
 463 426 460 419 454 413 c 0
 448 407 441 404 432 404 c 0
 423 404 416 407 410 413 c 0
 404 419 401 426 401 435 c 0xf0
49 333 m 0
 49 342 52 349 58 355 c 0
 64 361 71 364 80 364 c 0
 89 364 96 361 102 355 c 0
 108 349 111 342 111 333 c 0
 111 324 108 317 102 311 c 0
 96 305 89 302 80 302 c 0
 71 302 64 305 58 311 c 0
 52 317 49 324 49 333 c 0
220 152 m 0
 220 192 238 212 275 212 c 0
 294 212 309 206 320 193 c 0
 330 180 335 165 335 148 c 0
 335 133 331 120 324 108 c 0
 316 96 306 88 294 83 c 1
 298 68 307 55 320 46 c 0
 333 36 348 31 365 31 c 0
 384 31 400 38 413 54 c 0
 426 69 432 87 432 108 c 0
 432 190 373 265 256 332 c 1
 61 0 l 1
 0 0 l 1
 209 357 l 1
 145 392 94 430 56 470 c 0
 19 509 0 555 0 608 c 0
 0 653 14 691 43 722 c 0
 72 752 106 768 147 768 c 0
 187 768 221 753 250 724 c 0
 278 694 292 658 292 616 c 0
 292 576 274 556 237 556 c 0
 218 556 203 562 192 575 c 0
 182 588 177 603 177 620 c 0
 177 635 181 648 188 660 c 0
 196 672 206 680 218 685 c 1
 214 700 205 713 192 722 c 0
 179 732 164 737 147 737 c 0
 128 737 112 730 99 714 c 0
 86 699 80 681 80 660 c 0
 80 578 139 503 256 436 c 1xf8
 451 768 l 1
 512 768 l 1
 303 411 l 1
 367 376 418 338 456 298 c 0
 493 259 512 213 512 160 c 0
 512 115 498 77 469 46 c 0
 440 16 406 0 365 0 c 0
 325 0 291 15 262 45 c 0
 234 75 220 111 220 152 c 0
EndSplineSet
Validated: 1
EndChar

StartChar: uniE4E1
Encoding: 58593 58593 108
Width: 152
Flags: W
VStem: 0 154<-246 246>
LayerCount: 2
Fore
SplineSet
143 -256 m 2
 10 -256 l 2
 3 -256 0 -253 0 -246 c 2
 0 246 l 2
 0 253 3 256 10 256 c 2
 143 256 l 2
 150 256 154 253 154 246 c 2
 154 -246 l 2
 154 -253 150 -256 143 -256 c 2
EndSplineSet
Validated: 1
EndChar

StartChar: uniE086
Encoding: 57478 57478 109
Width: 348
Flags: W
HStem: -256 24<161.5 188.5 161.5 200.5> 6 24<174 187.5> 232 24<179.5 201>
VStem: 0 120<16 20> 237 111<-129.5 -93> 242 94<141.5 205.5>
LayerCount: 2
Fore
SplineSet
174 6 m 0xf8
 149 6 133 -4 127 -24 c 0
 122 -40 120 -65 120 -98 c 2
 120 -128 l 2
 120 -161 122 -186 127 -202 c 0
 133 -222 149 -232 174 -232 c 0
 203 -232 220 -220 227 -197 c 0
 234 -174 237 -146 237 -113 c 0
 237 -73 233 -43 226 -24 c 0
 218 -4 201 6 174 6 c 0xf8
120 16 m 1
 142 25 160 29 174 30 c 0
 228 30 270 18 302 -6 c 0
 332 -30 348 -66 348 -112 c 0xf8
 348 -159 332 -195 301 -220 c 0
 270 -244 227 -256 174 -256 c 0
 119 -256 77 -231 46 -180 c 0
 15 -129 0 -69 0 0 c 0
 0 69 18 128 54 180 c 0
 90 230 137 256 195 256 c 0
 233 256 266 246 294 227 c 0
 322 208 336 182 336 151 c 0
 336 132 330 116 316 103 c 0
 304 90 288 83 270 83 c 0
 251 83 235 90 222 103 c 0
 209 116 202 132 202 151 c 0
 202 159 209 167 222 176 c 0
 235 184 242 192 242 201 c 0xf4
 242 210 237 218 228 224 c 0
 218 229 207 232 195 232 c 0
 164 232 144 220 134 195 c 0
 123 170 118 135 118 90 c 0
 118 82 118 70 119 53 c 0
 120 36 120 24 120 16 c 1
EndSplineSet
Validated: 1
EndChar

StartChar: uniE4E0
Encoding: 58592 58592 110
Width: 460
Flags: W
VStem: 0 154<-246 246> 307 154<-246 246>
LayerCount: 2
Fore
SplineSet
451 -256 m 2
 317 -256 l 2
 310 -256 307 -253 307 -246 c 2
 307 246 l 2
 307 253 310 256 317 256 c 2
 451 256 l 2
 458 256 461 253 461 246 c 2
 461 -246 l 2
 461 -253 458 -256 451 -256 c 2
143 -256 m 2
 10 -256 l 2
 3 -256 0 -253 0 -246 c 2
 0 246 l 2
 0 253 3 256 10 256 c 2
 143 256 l 2
 150 256 154 253 154 246 c 2
 154 -246 l 2
 154 -253 150 -256 143 -256 c 2
EndSplineSet
Validated: 1
EndChar

StartChar: uniE4C9
Encoding: 58569 58569 111
Width: 784
Flags: W
HStem: -410 128<22.5 745 55 745 55 774> -230 76<150.5 617 183 617 183 646> -122 122<391.5 408.5>
VStem: 16 39<-282 -19 -282 -19 -282 -16.5> 144 39<-154 -19 -154 -19 -154 -16.5> 339 122<-69.5 -52.5> 617 39<-154 -19> 745 39<-282 -19>
LayerCount: 2
Fore
SplineSet
339 -61 m 0
 339 -44 345 -30 357 -18 c 0
 369 -6 383 0 400 0 c 0
 417 0 431 -6 443 -18 c 0
 455 -30 461 -44 461 -61 c 0
 461 -78 455 -92 443 -104 c 0
 431 -116 417 -122 400 -122 c 0
 383 -122 369 -116 357 -104 c 0
 345 -92 339 -78 339 -61 c 0
154 -230 m 2
 147 -230 144 -227 144 -220 c 2
 144 -19 l 2
 144 -14 146 -10 150 -6 c 0
 154 -2 158 0 164 0 c 0
 168 0 173 -2 177 -6 c 0
 181 -10 183 -14 183 -19 c 2
 183 -154 l 1
 617 -154 l 1
 617 -19 l 2
 617 -14 619 -10 623 -6 c 0
 627 -2 632 0 636 0 c 0
 642 0 646 -2 650 -6 c 0
 654 -10 656 -14 656 -19 c 2
 656 -220 l 2
 656 -227 653 -230 646 -230 c 2
 154 -230 l 2
26 -410 m 2
 19 -410 16 -406 16 -399 c 2
 16 -19 l 2
 16 -14 18 -10 22 -6 c 0
 25 -2 30 0 36 0 c 0
 41 0 46 -2 50 -6 c 0
 53 -10 55 -14 55 -19 c 2
 55 -282 l 1
 745 -282 l 1
 745 -19 l 2
 745 -14 747 -10 750 -6 c 0
 754 -2 759 0 764 0 c 0
 770 0 775 -2 778 -6 c 0
 782 -10 784 -14 784 -19 c 2
 784 -399 l 2
 784 -406 781 -410 774 -410 c 2
 26 -410 l 2
EndSplineSet
Validated: 1
EndChar

StartChar: uniE4E8
Encoding: 58600 58600 112
Width: 332
Flags: W
HStem: -201 55 55 55 311 55
VStem: -56 134 13 135 55 57<-512 -512> 84 134
LayerCount: 2
Fore
SplineSet
158 466 m 0xe2
 177 466 192 461 202 450 c 0
 211 439 217 428 218 416 c 0xe2
 220 403 224 392 228 382 c 0
 234 371 241 366 251 366 c 0
 258 366 267 374 280 390 c 0
 292 407 300 420 304 430 c 0
 307 436 312 440 318 440 c 2
 319 440 l 2
 326 439 330 436 333 430 c 1
 112 -512 l 1
 105 -519 95 -522 83 -522 c 0
 72 -522 63 -519 55 -512 c 1xe4
 143 -177 l 1
 101 -193 64 -201 33 -201 c 0
 9 -201 -12 -193 -30 -178 c 0
 -47 -163 -56 -143 -56 -120 c 0
 -56 -99 -49 -82 -34 -68 c 0
 -20 -53 -3 -46 17 -46 c 0
 36 -46 51 -51 61 -62 c 0
 71 -73 77 -84 78 -96 c 0xf0
 80 -109 83 -120 88 -130 c 0
 93 -141 100 -146 111 -146 c 0
 119 -146 130 -136 145 -118 c 0
 160 -98 168 -84 171 -74 c 2
 211 79 l 1
 166 63 130 55 102 55 c 0
 78 55 57 63 40 78 c 0
 22 93 13 113 13 136 c 0
 13 157 20 174 35 188 c 0
 50 203 67 210 88 210 c 0
 107 210 122 205 131 194 c 0
 140 183 146 172 148 160 c 0xe8
 150 147 153 136 158 126 c 0
 163 115 170 110 180 110 c 0
 187 110 198 119 212 138 c 0
 227 156 235 170 238 179 c 2
 279 334 l 1
 238 319 203 311 173 311 c 0
 149 311 128 319 110 334 c 0
 93 349 84 369 84 392 c 0
 84 413 91 430 106 444 c 0
 120 459 137 466 158 466 c 0xe2
EndSplineSet
Validated: 1
EndChar

StartChar: uniE0D8
Encoding: 57560 57560 113
Width: 506
Flags: W
HStem: -141 64<246 296.5> -54 108<76 76 430 430> 77 64<210.5 261.5>
VStem: 0 188<-9 9> 318 189<-9 9 -9 10.5>
LayerCount: 2
Fore
SplineSet
215 77 m 0
 206 77 199 72 194 63 c 0
 190 54 188 33 188 1 c 0
 188 -22 192 -37 201 -44 c 0
 210 -52 226 -60 251 -68 c 0
 271 -74 285 -77 292 -77 c 0
 301 -77 308 -72 312 -63 c 0
 316 -54 318 -33 318 -1 c 0
 318 22 314 37 306 44 c 0
 297 52 281 60 256 68 c 0
 236 74 222 77 215 77 c 0
507 0 m 0
 507 -18 500 -30 486 -38 c 0
 473 -44 454 -50 430 -54 c 0
 407 -58 390 -63 379 -70 c 0
 369 -75 356 -84 340 -98 c 0
 325 -110 310 -121 296 -129 c 0
 283 -137 268 -141 254 -141 c 0
 238 -141 224 -137 210 -129 c 0
 196 -121 181 -110 166 -98 c 0
 150 -85 137 -75 128 -70 c 0
 117 -64 100 -59 76 -54 c 0
 53 -50 34 -44 20 -38 c 0
 7 -30 0 -18 0 0 c 0
 0 18 7 30 20 38 c 0
 34 44 53 50 76 54 c 0
 100 58 117 63 128 70 c 0
 131 71 147 84 178 106 c 0
 209 130 234 141 254 141 c 0
 269 141 284 137 297 129 c 0
 310 121 325 110 340 98 c 0
 356 84 369 75 379 70 c 0
 390 64 407 59 430 54 c 0
 454 50 473 44 486 38 c 0
 500 30 507 18 507 0 c 0
EndSplineSet
Validated: 1
EndChar

StartChar: uniE0BC
Encoding: 57532 57532 114
Width: 355
Flags: W
HStem: -115 44<71 286 71 334>
LayerCount: 2
Fore
SplineSet
71 -71 m 1
 286 -71 l 1
 178 58 l 1
 71 -71 l 1
23 -115 m 2
 17 -115 12 -113 7 -108 c 0
 2 -104 0 -99 0 -93 c 0
 0 -88 2 -84 5 -79 c 2
 161 108 l 2
 165 113 171 116 178 116 c 0
 185 116 191 113 196 108 c 2
 350 -79 l 2
 353 -84 355 -88 355 -93 c 0
 355 -99 353 -104 349 -108 c 0
 345 -113 340 -115 334 -115 c 2
 23 -115 l 2
EndSplineSet
Validated: 1
EndChar

StartChar: uniE264
Encoding: 57956 57956 115
Width: 370
Flags: W
HStem: 106 44<67 122>
VStem: -8 56<468 468> 5 32 114 101<42 42 42 60.5> 158 56<468 468> 168 45<-49.5 -33> 306 85<36.5 47.5>
LayerCount: 2
Fore
SplineSet
215 42 m 6x92
 213 -37 l 6x86
 213 -62 214 -85 217 -104 c 5
 276 -54 306 -7 306 38 c 4
 306 57 303 73 296 86 c 4
 289 99 278 106 265 106 c 4
 250 106 238 100 229 88 c 4
 220 75 216 60 215 42 c 6x92
171 -141 m 6
 168 -33 l 5
 157 -46 139 -65 112 -88 c 4
 86 -111 71 -125 68 -128 c 4
 65 -131 62 -136 58 -144 c 4
 53 -151 49 -157 44 -161 c 4
 39 -165 34 -167 28 -167 c 4
 21 -167 16 -165 12 -160 c 4
 7 -155 5 -149 5 -141 c 6xa6
 -8 468 l 5
 1 473 11 476 20 476 c 4
 29 476 39 473 48 468 c 5
 40 115 l 5
 59 138 83 150 112 150 c 4
 132 150 150 143 165 128 c 5
 158 468 l 5
 167 473 177 476 186 476 c 4
 195 476 205 473 214 468 c 5xca
 207 115 l 5
 234 138 263 150 296 150 c 4
 323 150 345 140 364 119 c 4
 382 98 391 74 391 46 c 4
 391 27 385 8 374 -10 c 4
 363 -27 352 -41 340 -51 c 4
 328 -61 311 -74 288 -91 c 4
 273 -102 257 -114 240 -128 c 4
 238 -129 234 -134 228 -143 c 4
 223 -150 217 -156 212 -160 c 4
 207 -165 201 -167 195 -167 c 4
 188 -167 183 -164 178 -159 c 4
 173 -154 171 -148 171 -141 c 6
37 -37 m 6
 37 -62 39 -85 42 -106 c 5
 90 -59 114 -11 114 38 c 4xb2
 114 83 103 106 80 106 c 4
 54 106 40 85 39 42 c 6
 37 -37 l 6
EndSplineSet
Validated: 1
EndChar

StartChar: uniE280
Encoding: 57984 57984 116
Width: 203
Flags: W
HStem: 106 44<47.5 100>
VStem: -31 79<35.5 47.5 28.5 59> 146 56<468 468>
LayerCount: 2
Fore
SplineSet
146 42 m 2
 145 60 140 75 130 88 c 0
 121 100 108 106 92 106 c 0
 79 106 68 99 60 86 c 0
 52 73 48 57 48 38 c 0
 48 19 53 1 64 -18 c 0
 75 -37 86 -52 97 -62 c 0
 108 -73 124 -87 143 -104 c 1
 146 -84 147 -62 147 -37 c 2
 146 42 l 2
189 -141 m 2
 189 -148 187 -154 182 -160 c 0
 178 -164 173 -167 166 -167 c 0
 160 -167 154 -165 149 -161 c 0
 144 -157 138 -151 133 -144 c 0
 128 -136 123 -131 120 -128 c 0
 110 -120 94 -108 72 -92 c 0
 49 -75 32 -62 20 -52 c 0
 8 -41 -4 -27 -14 -10 c 0
 -26 7 -31 26 -31 45 c 0
 -31 73 -22 98 -4 118 c 0
 13 140 35 150 60 150 c 0
 95 150 126 138 154 115 c 1
 146 468 l 1
 155 473 164 476 174 476 c 0
 183 476 193 473 202 468 c 1
 189 -141 l 2
EndSplineSet
Validated: 1
EndChar

StartChar: uniEB7E
Encoding: 60286 60286 117
Width: 256
Flags: W
HStem: -10 20<-3.5 15.5>
VStem: -10 266<-121.5 3.5>
LayerCount: 2
Fore
SplineSet
-10 0 m 0
 -10 7 -7 10 0 10 c 0
 31 10 73 23 128 49 c 0
 182 75 219 100 238 124 c 0
 241 127 243 128 246 128 c 0
 253 128 256 125 256 118 c 0
 256 117 256 115 254 110 c 0
 254 106 252 100 252 93 c 0
 250 86 249 77 248 68 c 0
 247 59 245 48 244 36 c 0
 244 23 243 11 243 0 c 0
 243 -11 244 -23 244 -36 c 0
 246 -48 247 -59 248 -68 c 0
 249 -77 250 -86 252 -93 c 0
 252 -100 254 -106 254 -110 c 0
 256 -115 256 -117 256 -118 c 0
 256 -125 253 -128 246 -128 c 0
 243 -128 241 -127 238 -124 c 0
 219 -100 182 -75 128 -49 c 0
 73 -23 31 -10 0 -10 c 0
 -7 -10 -10 -7 -10 0 c 0
EndSplineSet
Validated: 1
EndChar

StartChar: uniE0B2
Encoding: 57522 57522 118
Width: 400
Flags: W
HStem: -177 38<183 219 183 228.5> 139 38<183 218.5>
VStem: 0 37<-16 16 -16 24.5> 172 56<0 0> 364 36<-16.5 16.5>
LayerCount: 2
Fore
SplineSet
201 177 m 0
 256 177 303 160 342 126 c 0
 380 91 400 49 400 0 c 0
 400 -49 380 -91 342 -126 c 0
 302 -160 256 -177 201 -177 c 0
 146 -177 98 -160 59 -126 c 0
 20 -91 0 -49 0 0 c 0
 0 49 20 91 59 126 c 0
 98 160 146 177 201 177 c 0
201 25 m 1
 299 111 l 1
 269 130 236 139 201 139 c 0
 165 139 132 130 101 111 c 1
 201 25 l 1
172 0 m 1
 73 87 l 1
 49 61 37 32 37 0 c 0
 37 -32 49 -61 73 -87 c 1
 172 0 l 1
228 0 m 1
 329 -87 l 1
 352 -62 364 -33 364 0 c 0
 364 33 352 62 329 87 c 1
 228 0 l 1
201 -25 m 1
 101 -111 l 1
 132 -130 165 -139 201 -139 c 0
 237 -139 270 -130 299 -111 c 1
 201 -25 l 1
EndSplineSet
Validated: 1
EndChar

StartChar: uniEB82
Encoding: 60290 60290 119
Width: 256
Flags: W
HStem: -20 40<-17.5 6.5>
VStem: -256 276<-111 6.5 -6.5 111>
LayerCount: 2
Fore
SplineSet
20 0 m 0
 20 -13 13 -20 0 -20 c 0
 -35 -20 -68 -26 -98 -37 c 0
 -129 -48 -152 -61 -168 -74 c 0
 -194 -95 -209 -108 -212 -111 c 0
 -225 -122 -233 -128 -236 -128 c 0
 -241 -128 -246 -126 -250 -122 c 0
 -254 -119 -256 -114 -256 -108 c 0
 -256 -97 -241 -79 -211 -54 c 0
 -181 -30 -149 -12 -115 0 c 1
 -151 13 -183 31 -212 56 c 0
 -241 81 -256 98 -256 108 c 0
 -256 114 -254 119 -250 122 c 0
 -246 126 -241 128 -236 128 c 0
 -231 128 -223 122 -211 111 c 0
 -199 100 -185 87 -168 74 c 0
 -152 61 -129 48 -98 37 c 0
 -67 26 -35 20 0 20 c 0
 13 20 20 13 20 0 c 0
EndSplineSet
Validated: 1
EndChar

StartChar: uniE664
Encoding: 58980 58980 120
Width: 256
Flags: W
HStem: 0 21G<121.5 134.5>
VStem: 109 38<12.5 19>
LayerCount: 2
Fore
SplineSet
128 0 m 0
 115 0 109 6 109 19 c 2
 1 359 l 2
 0 360 0 362 0 365 c 0
 0 370 2 375 6 378 c 0
 9 382 14 384 19 384 c 0
 29 384 35 380 38 371 c 2
 104 160 l 1
 128 54 l 1
 152 160 l 1
 218 371 l 2
 220 380 226 384 237 384 c 0
 242 384 247 382 250 378 c 0
 254 375 256 370 256 365 c 0
 256 363 256 361 255 359 c 2
 147 19 l 2
 147 6 141 0 128 0 c 0
EndSplineSet
Validated: 1
EndChar

StartChar: uniE1E7
Encoding: 57831 57831 121
Width: 116
Flags: W
HStem: -58 116<50 66>
VStem: 0 116<-8 8>
LayerCount: 2
Fore
SplineSet
0 0 m 0
 0 16 6 30 17 41 c 0
 28 52 42 58 58 58 c 0
 74 58 88 52 99 41 c 0
 110 30 116 16 116 0 c 0
 116 -16 110 -30 99 -41 c 0
 88 -52 74 -58 58 -58 c 0
 42 -58 28 -52 17 -41 c 0
 6 -30 0 -16 0 0 c 0
EndSplineSet
Validated: 1
EndChar

StartChar: uniE652
Encoding: 58962 58962 122
Width: 203
Flags: W
HStem: 1 21G<68.5 81> 260 34<82 82.5>
VStem: -1 34<151.5 213.5> 113 34<217 254.5>
LayerCount: 2
Fore
SplineSet
75 1 m 0
 62 1 50 7 40 20 c 0
 31 32 21 55 11 88 c 1
 8 86 6 86 2 89 c 0
 0 92 -2 95 -2 98 c 0
 -2 100 1 103 6 108 c 1
 1 127 -1 144 -1 159 c 0
 -1 194 8 225 26 252 c 0
 43 280 67 294 97 294 c 0
 112 294 125 290 134 280 c 0
 142 271 147 261 147 248 c 0
 147 218 120 180 67 135 c 2
 56 126 l 1
 72 97 85 76 94 65 c 0
 104 54 113 50 122 55 c 0
 127 58 140 66 158 80 c 0
 178 95 189 105 194 110 c 0
 196 112 199 112 202 108 c 0
 205 106 207 102 207 99 c 0
 207 98 199 89 183 74 c 0
 167 58 148 42 126 26 c 0
 104 9 87 1 75 1 c 0
78 260 m 0
 67 260 57 256 48 246 c 0
 38 238 33 223 33 204 c 0
 33 184 38 163 47 142 c 1
 91 179 113 207 113 227 c 0
 113 236 110 244 102 250 c 0
 96 257 87 260 78 260 c 0
EndSplineSet
Validated: 1
EndChar

StartChar: uniE653
Encoding: 58963 58963 123
Width: 340
Flags: W
HStem: 0 36<217.5 235 217.5 242.5> 430 19
VStem: 114 54<132 158.5 132 159.5> 273 70<126.5 144.5>
LayerCount: 2
Fore
SplineSet
2 449 m 0
 15 449 34 444 60 436 c 0
 86 426 115 413 148 396 c 0
 181 378 212 357 240 334 c 0
 270 311 294 282 314 249 c 0
 333 216 343 181 343 145 c 0
 343 108 332 75 308 45 c 0
 286 15 258 0 227 0 c 0
 196 0 170 16 148 46 c 0
 125 78 114 111 114 146 c 0
 114 173 124 200 143 227 c 0
 162 254 186 274 213 287 c 1
 186 324 154 355 116 381 c 0
 78 407 39 423 0 430 c 0
 -3 431 -4 433 -4 437 c 0
 -4 445 -2 449 2 449 c 0
224 271 m 1
 206 261 192 244 182 220 c 0
 173 196 168 171 168 146 c 0
 168 118 173 93 184 70 c 0
 194 47 208 36 227 36 c 0
 243 36 255 44 262 60 c 0
 269 75 273 95 273 119 c 0
 273 170 257 221 224 271 c 1
EndSplineSet
Validated: 1
EndChar

StartChar: uniE8C8
Encoding: 59592 59592 124
Width: 272
Flags: W
HStem: 0 24<-32 32 -32 37.5> 256 24<-239 239 -239 239> 512 24<-32 32>
VStem: -272 33<256 256 256 280 256 304.5> 239 33<256 256 280 280>
LayerCount: 2
Fore
SplineSet
272 267 m 0
 272 193 246 130 192 78 c 0
 140 26 75 0 0 0 c 0
 -75 0 -140 26 -192 78 c 0
 -246 131 -272 194 -272 267 c 0
 -272 342 -246 405 -192 458 c 0
 -140 510 -75 536 0 536 c 0
 75 536 140 510 192 458 c 0
 246 405 272 342 272 267 c 0
239 256 m 1
 -239 256 l 1
 -236 191 -211 136 -165 92 c 0
 -119 46 -64 24 0 24 c 0
 64 24 119 46 165 92 c 0
 211 137 236 191 239 256 c 1
-239 280 m 1
 239 280 l 1
 236 345 211 400 165 444 c 0
 119 490 64 512 0 512 c 0
 -64 512 -119 490 -165 444 c 0
 -211 399 -236 345 -239 280 c 1
EndSplineSet
Validated: 1
EndChar

StartChar: uniE248
Encoding: 57928 57928 125
Width: 212
Flags: W
HStem: -20 20G<-16 0 0 0>
VStem: -16 16<-1280 -1169 -965.5 -952 -952 -932 -727.5 -714 -714 -693 -489.5 -476 -476 -456 -251.5 -238 -238 -218 -16.5 0> 154 44<-489 -474.5> 164 44<-1181 -1166 -953.5 -927.5 -716.5 -690>
LayerCount: 2
Fore
SplineSet
0 -218 m 1xe0
 0 -238 l 2
 0 -265 5 -293 16 -322 c 0
 27 -351 39 -374 50 -392 c 0
 61 -410 78 -435 101 -467 c 0
 124 -499 139 -522 148 -536 c 1
 151 -525 153 -509 154 -489 c 0
 154 -460 145 -427 126 -390 c 0
 108 -354 90 -324 72 -301 c 0
 53 -278 29 -250 0 -218 c 1xe0
0 0 m 1
 0 -33 7 -67 20 -102 c 0
 34 -137 51 -170 70 -200 c 2
 128 -290 l 2
 147 -320 164 -352 178 -387 c 0
 191 -422 198 -456 198 -489 c 0xe0
 198 -521 191 -554 178 -588 c 1
 198 -629 208 -668 208 -705 c 0
 208 -745 198 -785 178 -826 c 1
 198 -867 208 -905 208 -942 c 0
 208 -982 198 -1023 178 -1064 c 1
 198 -1105 208 -1144 208 -1181 c 0xd0
 208 -1215 196 -1248 172 -1280 c 1
 200 -1329 214 -1375 214 -1418 c 0
 214 -1478 200 -1539 171 -1601 c 0
 166 -1608 160 -1612 152 -1612 c 0
 145 -1612 139 -1609 134 -1604 c 0
 130 -1599 128 -1594 128 -1588 c 0
 128 -1587 128 -1586 128 -1584 c 0
 157 -1529 171 -1473 171 -1418 c 0
 171 -1376 155 -1335 123 -1294 c 0
 91 -1253 50 -1212 0 -1169 c 1
 0 -1280 l 1
 -16 -1280 l 1
 -16 0 l 1
 0 0 l 1
0 -456 m 1
 0 -476 l 2
 0 -503 5 -531 16 -560 c 0
 27 -589 39 -613 51 -632 c 0
 63 -651 80 -676 102 -708 c 0
 125 -739 141 -762 151 -777 c 1
 160 -752 164 -728 164 -705 c 0xd0
 164 -675 154 -643 135 -610 c 0
 116 -577 96 -549 76 -528 c 0
 56 -507 31 -483 0 -456 c 1
0 -693 m 1
 0 -714 l 2
 0 -741 5 -769 16 -798 c 0
 27 -827 39 -851 51 -870 c 0
 63 -889 80 -914 102 -945 c 0
 125 -976 141 -1000 151 -1015 c 1
 160 -990 164 -965 164 -942 c 0
 164 -913 154 -881 135 -848 c 0
 116 -815 96 -787 76 -766 c 0
 56 -745 31 -720 0 -693 c 1
0 -932 m 1
 0 -952 l 2
 0 -979 5 -1006 16 -1034 c 0
 27 -1063 38 -1085 48 -1102 c 0
 58 -1119 75 -1143 100 -1176 c 0
 124 -1209 140 -1230 147 -1241 c 1
 158 -1223 163 -1203 164 -1181 c 0
 164 -1151 154 -1119 135 -1086 c 0
 116 -1053 96 -1025 76 -1004 c 0
 56 -983 31 -959 0 -932 c 1
EndSplineSet
Validated: 1
EndChar

StartChar: uniE59E
Encoding: 58782 58782 126
Width: 213
Flags: W
HStem: 0 21G<182 189> 236 20G<112 119>
VStem: 0 301
LayerCount: 2
Fore
SplineSet
250 81 m 1030,0,-1
170 7 m 6,1,-1
 69 129 l 5,2,-1
 37 81 l 6,3,-1
 33 75 27 72 20 72 c 4,6,-1
 15 72 10 74 6 78 c 4,9,-1
 2 82 0 87 0 92 c 4,12,-1
 0 97 1 100 3 103 c 6,15,-1
 98 247 l 6,16,-1
 102 253 108 256 116 256 c 4,19,-1
 122 256 127 254 131 249 c 6,22,-1
 232 127 l 5,23,-1
 264 175 l 6,24,-1
 268 181 274 184 281 184 c 4,27,-1
 286 184 291 182 295 178 c 4,30,-1
 299 174 301 169 301 164 c 4,33,-1
 301 159 300 156 298 153 c 6,36,-1
 203 9 l 6,37,-1
 199 3 193 0 185 0 c 4,40,-1
 179 0 174 2 170 7 c 6,1,-1
EndSplineSet
Validated: 1
EndChar

StartChar: uniE247
Encoding: 57927 57927 127
Width: 307
Flags: W
HStem: 0 21G<0 32 0 0>
VStem: 0 32<0 5 210 230 435 461 666 691 896 1024> 225 44<484.5 539 484.5 539> 248 43<692 710.5> 256 43<877.5 899.5> 264 43<1037.5 1056.5>
LayerCount: 2
Fore
SplineSet
307 1051 m 0xc4
 307 1024 301 1000 288 977 c 1
 295 948 299 920 299 892 c 0xc8
 299 863 293 835 280 809 c 1
 287 773 291 738 291 705 c 0xd0
 291 669 282 634 265 601 c 1
 267 568 268 535 269 502 c 0xe0
 269 467 261 431 244 396 c 0
 227 361 208 328 185 298 c 0
 162 269 139 239 116 209 c 0
 93 179 73 146 56 111 c 0
 40 76 32 40 32 5 c 2
 32 0 l 1
 0 0 l 1
 0 1024 l 1
 32 1024 l 1
 32 896 l 1
 70 902 105 911 138 922 c 0
 171 933 200 950 226 973 c 0
 251 996 264 1022 264 1051 c 0
 264 1062 263 1073 261 1084 c 0
 259 1096 258 1102 258 1103 c 0
 258 1110 260 1115 266 1119 c 0
 270 1123 276 1125 282 1125 c 0
 292 1125 299 1120 302 1110 c 0
 305 1099 307 1080 307 1051 c 0xc4
32 210 m 1
 58 234 80 255 98 274 c 0
 116 292 136 314 158 340 c 0
 180 367 197 394 208 421 c 0
 219 448 225 475 225 502 c 2
 225 539 l 1xe0
 212 522 192 499 164 468 c 0
 136 438 114 414 98 394 c 0
 82 376 67 351 53 320 c 0
 39 290 32 260 32 230 c 2
 32 210 l 1
32 435 m 1
 60 454 85 473 106 490 c 0
 127 506 150 527 174 551 c 0
 197 575 216 600 228 626 c 0
 242 653 248 679 248 705 c 0xd0
 248 716 247 733 244 756 c 1
 229 738 207 716 178 688 c 0
 150 662 126 639 108 620 c 0
 88 601 71 578 56 549 c 0
 40 520 32 491 32 461 c 2
 32 435 l 1
32 666 m 1
 181 739 256 815 256 892 c 0xc8
 256 907 255 921 252 934 c 1
 237 919 214 902 185 881 c 0
 156 860 131 843 110 828 c 0
 90 813 72 794 56 770 c 0
 40 745 32 719 32 691 c 2
 32 666 l 1
EndSplineSet
Validated: 1
EndChar

StartChar: uniE565
Encoding: 58725 58725 128
Width: 275
Flags: W
HStem: 228 322
LayerCount: 2
Fore
SplineSet
-211 504 m 2
 -219 508 -223 515 -223 525 c 0
 -223 532 -221 538 -216 542 c 0
 -211 548 -205 550 -198 550 c 0
 -195 550 -191 549 -186 547 c 2
 288 275 l 2
 297 270 301 263 301 254 c 0
 301 247 299 241 294 236 c 0
 289 231 283 228 275 228 c 0
 271 228 267 229 263 231 c 2
 -211 504 l 2
EndSplineSet
Validated: 1
EndChar

StartChar: uniE525
Encoding: 58661 58661 129
Width: 276
Flags: W
HStem: -15 73 10 58<31 112> 174 84<27 108.5>
VStem: 262 14
LayerCount: 2
Fore
SplineSet
34 10 m 0x30
 28 10 22 8 16 5 c 0
 11 2 8 0 7 0 c 0
 2 0 0 2 0 7 c 0
 0 10 1 12 3 14 c 2
 209 206 l 1
 197 202 184 199 170 197 c 0
 157 194 141 192 123 189 c 0
 105 186 92 184 83 183 c 0
 53 177 37 174 33 174 c 0
 21 174 15 180 15 190 c 0
 15 207 24 222 42 236 c 0
 60 251 78 258 96 258 c 0
 121 258 146 255 172 250 c 0
 198 244 217 241 231 241 c 0
 239 241 246 243 251 246 c 0
 257 250 260 252 261 252 c 0
 266 252 268 249 268 244 c 0
 268 242 267 240 266 238 c 2
 71 57 l 1
 86 64 97 68 103 68 c 0
 121 68 141 66 164 63 c 0
 188 59 208 57 225 57 c 0
 250 57 262 67 262 86 c 0
 262 91 261 97 260 103 c 0
 257 112 l 2
 257 117 260 119 265 119 c 0
 273 119 277 104 277 74 c 0
 277 50 272 29 261 11 c 0
 251 -7 237 -15 218 -15 c 0
 208 -15 183 -12 144 -5 c 0
 91 5 55 10 34 10 c 0x30
EndSplineSet
Validated: 1
EndChar

StartChar: uniE271
Encoding: 57969 57969 130
Width: 203
Flags: W
HStem: 106 44<74 127>
VStem: -28 56<468 468> -15 30<-303 -179> 126 79<32.5 47.5>
LayerCount: 2
Fore
SplineSet
-15 -303 m 2xb0
 -15 -141 l 1xb0
 -28 468 l 1
 -19 473 -10 476 0 476 c 0
 10 476 19 473 28 468 c 1xd0
 20 115 l 1
 47 138 79 150 114 150 c 0
 140 150 162 140 179 118 c 0
 196 98 205 73 205 45 c 0
 205 20 195 -5 176 -28 c 0
 156 -51 134 -70 112 -84 c 0
 88 -99 67 -115 47 -132 c 0
 26 -149 15 -165 15 -179 c 2
 15 -303 l 2
 15 -316 20 -322 31 -322 c 0
 38 -322 51 -316 72 -305 c 2
 114 -283 l 2
 120 -283 123 -286 123 -291 c 0
 123 -293 122 -295 121 -297 c 0
 84 -352 51 -421 20 -506 c 0
 10 -530 4 -542 0 -542 c 0
 -4 -542 -10 -530 -20 -506 c 0
 -51 -421 -84 -352 -121 -297 c 0
 -122 -295 -123 -293 -123 -291 c 0
 -123 -286 -120 -283 -114 -283 c 2
 -72 -305 l 2
 -51 -316 -38 -322 -31 -322 c 0
 -20 -322 -15 -316 -15 -303 c 2xb0
28 42 m 2xd0
 27 -37 l 2
 27 -62 28 -85 31 -104 c 1
 51 -87 66 -73 78 -62 c 0
 88 -51 99 -37 110 -18 c 0
 121 1 126 19 126 38 c 0
 126 57 122 73 114 86 c 0
 106 99 95 106 82 106 c 0
 66 106 53 100 44 88 c 0
 34 75 29 60 28 42 c 2xd0
EndSplineSet
Validated: 1
EndChar

StartChar: uniE069
Encoding: 57449 57449 131
Width: 512
Flags: W
VStem: 171 116<-246 246> 397 115<-246 246>
LayerCount: 2
Fore
SplineSet
502 -256 m 2
 408 -256 l 2
 401 -256 397 -253 397 -246 c 2
 397 246 l 2
 397 253 401 256 408 256 c 2
 502 256 l 2
 509 256 512 253 512 246 c 2
 512 -246 l 2
 512 -253 509 -256 502 -256 c 2
276 -256 m 2
 181 -256 l 2
 174 -256 171 -253 171 -246 c 2
 171 246 l 2
 171 253 174 256 181 256 c 2
 276 256 l 2
 283 256 287 253 287 246 c 2
 287 -246 l 2
 287 -253 283 -256 276 -256 c 2
EndSplineSet
Validated: 1
EndChar

StartChar: uniE4A6
Encoding: 58534 58534 132
Width: 102
Flags: W
HStem: 0 269<48.5 55.5>
VStem: 0 104<225 231> 39 26<13 13>
LayerCount: 2
Fore
SplineSet
39 13 m 2xa0
 0 225 l 2
 0 237 5 247 15 256 c 0
 25 265 37 269 52 269 c 0
 67 269 79 265 89 256 c 0
 99 247 104 237 104 225 c 2xc0
 65 13 l 2
 64 4 59 0 52 0 c 0
 45 0 40 4 39 13 c 2xa0
EndSplineSet
Validated: 1
EndChar

StartChar: uniE4E3
Encoding: 58595 58595 133
Width: 384
Flags: W
HStem: -160 160<6.5 374 10 374>
LayerCount: 2
Fore
SplineSet
374 -160 m 2
 10 -160 l 2
 3 -160 0 -157 0 -150 c 2
 0 -10 l 2
 0 -3 3 0 10 0 c 2
 374 0 l 2
 381 0 384 -3 384 -10 c 2
 384 -150 l 2
 384 -157 381 -160 374 -160 c 2
EndSplineSet
Validated: 1
EndChar

StartChar: uniE650
Encoding: 58960 58960 134
Width: 818
Flags: W
HStem: 0 36<693.5 711 693.5 719> 230 68<53.5 89.5> 260 34<480.5 514.5> 296 66<342.5 379> 430 19<474.5 479> 494 18<249 256 249 249>
VStem: -1 45<297.5 362.5> 128 18<350.5 360> 168 41 258 53<168.5 224> 380 46<354.5 410.5> 409 33<152.5 213.5> 521 36<227 254.5> 590 53<139 158.5 132 159.5> 750 69<107 176.5>
LayerCount: 2
Fore
SplineSet
44 347 m 0xbfde
 44 330 49 317 58 310 c 0
 68 302 77 298 84 298 c 0
 95 298 106 304 114 316 c 0
 124 329 128 343 128 358 c 0
 128 362 131 364 137 364 c 0
 143 365 146 363 146 358 c 0
 146 326 137 297 120 270 c 0
 102 243 82 230 61 230 c 0xcfde
 46 230 31 237 18 252 c 0
 6 266 -1 285 -1 310 c 0
 -1 358 23 404 70 447 c 0
 117 490 179 512 256 512 c 0
 307 512 349 496 380 465 c 0
 410 434 426 400 426 365 c 0
 426 344 420 327 408 314 c 0
 397 302 385 296 373 296 c 0
 342 296 313 327 284 388 c 0
 283 390 284 392 286 394 c 0
 289 397 291 398 294 398 c 0
 297 398 299 397 300 395 c 0
 304 386 311 378 320 372 c 0
 329 365 338 362 347 362 c 0
 355 362 362 365 370 372 c 0
 376 378 380 387 380 399 c 0x9fee
 380 422 368 443 346 464 c 0
 322 484 293 494 256 494 c 2
 249 494 l 1
 242 482 234 462 224 434 c 0
 214 405 209 388 209 383 c 0
 209 368 226 340 260 301 c 0
 294 262 311 233 311 215 c 0
 311 204 291 173 252 123 c 1
 267 122 285 116 308 106 c 0
 330 96 346 87 356 78 c 0
 361 74 368 75 377 81 c 2
 415 110 l 1
 411 130 409 146 409 159 c 0
 409 194 418 225 436 252 c 0
 453 280 477 294 507 294 c 0
 522 294 534 290 544 280 c 0
 552 271 557 261 557 248 c 0
 557 218 530 180 476 135 c 2
 465 126 l 1
 472 113 477 103 481 96 c 0
 485 88 490 81 496 74 c 0
 502 68 506 63 508 60 c 0
 510 57 514 55 520 56 c 0
 526 56 530 56 533 56 c 0
 536 57 541 60 550 66 c 0
 559 73 565 78 570 82 c 0
 575 85 583 92 596 103 c 1
 592 118 590 132 590 146 c 0
 590 173 600 200 619 227 c 0
 638 254 662 274 689 287 c 1
 662 324 630 355 592 381 c 0
 555 407 516 423 476 430 c 0
 473 430 472 432 472 435 c 0
 471 438 472 442 473 444 c 0
 474 448 476 449 479 449 c 0
 572 432 652 393 718 332 c 0
 786 270 819 208 819 145 c 0
 819 108 808 75 785 45 c 0
 762 15 735 0 703 0 c 0
 682 0 662 8 644 24 c 0
 625 40 611 60 602 84 c 1
 560 46 532 23 520 14 c 0
 506 5 495 1 484 1 c 0
 471 1 459 7 450 20 c 0
 440 32 430 55 421 88 c 1
 414 83 399 70 376 52 c 0
 353 32 336 20 326 12 c 0
 314 6 306 2 301 2 c 0
 293 2 283 18 272 50 c 0
 261 83 249 101 237 104 c 1
 195 52 163 20 140 8 c 0
 131 3 122 0 114 0 c 0
 105 0 100 4 99 12 c 0
 99 28 116 50 149 78 c 0
 182 105 208 120 227 123 c 1
 248 148 258 164 258 173 c 0
 258 190 243 217 213 253 c 0
 183 289 168 314 168 327 c 0
 168 338 176 366 193 410 c 0
 210 453 222 481 229 493 c 1
 175 488 131 470 96 440 c 0
 61 408 44 378 44 347 c 0xbfde
486 260 m 0xafde
 475 260 465 256 456 246 c 0
 447 238 442 223 442 204 c 0
 442 184 447 163 457 142 c 1
 499 178 520 206 521 227 c 0
 521 236 518 244 510 250 c 0
 504 257 495 260 486 260 c 0xafde
699 271 m 1
 681 261 667 244 658 220 c 0
 648 196 643 171 643 146 c 0
 643 118 648 93 659 70 c 0
 670 47 684 36 703 36 c 0
 719 36 731 44 738 60 c 0
 746 75 750 95 750 119 c 0
 749 170 732 220 699 271 c 1
EndSplineSet
Validated: 1
EndChar

StartChar: uniE082
Encoding: 57474 57474 135
Width: 375
Flags: W
HStem: 232 24<161.5 181.5>
VStem: 12 141<115.5 129.5 115 144> 241 119<94 125.5> 347 29
LayerCount: 2
Fore
SplineSet
234 -256 m 0xd0
 213 -256 195 -252 180 -245 c 0
 163 -237 152 -229 146 -222 c 0
 139 -214 131 -206 120 -199 c 0
 110 -192 99 -188 87 -188 c 0
 70 -188 56 -193 44 -204 c 0
 32 -214 25 -228 24 -245 c 0
 23 -252 19 -256 12 -256 c 0
 4 -256 0 -252 0 -245 c 0
 0 -220 6 -196 18 -175 c 0
 30 -154 45 -136 62 -122 c 0
 75 -111 95 -95 120 -76 c 0
 133 -65 153 -49 178 -28 c 0
 196 -13 211 7 223 30 c 0
 235 54 241 80 241 108 c 0
 241 143 235 172 224 196 c 0
 212 220 194 232 169 232 c 0
 154 232 142 229 132 222 c 0
 122 215 117 206 117 195 c 0
 117 186 123 174 135 160 c 0
 147 146 153 134 153 125 c 0
 153 105 146 88 132 74 c 0
 119 61 102 54 83 54 c 0
 63 54 46 61 32 75 c 0
 19 89 12 106 12 125 c 0
 12 163 27 194 58 219 c 0
 89 244 126 256 169 256 c 0
 220 256 265 242 303 214 c 0
 341 187 360 151 360 108 c 0xe0
 360 79 355 53 344 31 c 0
 334 9 319 -9 299 -22 c 0
 279 -35 259 -47 240 -56 c 0
 220 -65 197 -75 170 -86 c 0
 143 -97 122 -107 105 -118 c 1
 114 -116 123 -115 132 -115 c 0
 163 -115 195 -125 228 -145 c 0
 262 -165 288 -175 307 -175 c 0
 318 -175 327 -173 334 -169 c 0
 341 -165 345 -161 347 -156 c 0
 349 -151 351 -146 354 -142 c 0
 357 -138 360 -136 364 -136 c 0
 372 -136 376 -140 376 -148 c 0
 376 -166 363 -189 336 -216 c 0
 310 -243 276 -256 234 -256 c 0xd0
EndSplineSet
Validated: 1
EndChar

StartChar: uniE4A7
Encoding: 58535 58535 136
Width: 102
Flags: W
HStem: -269 269<48.5 55.5 48.5 59.5>
VStem: 0 104<-231 -225> 39 26<-13 -13>
LayerCount: 2
Fore
SplineSet
39 -13 m 2xa0
 40 -4 45 0 52 0 c 0
 59 0 64 -4 65 -13 c 2xa0
 104 -225 l 2
 104 -237 99 -247 89 -256 c 0
 79 -265 67 -269 52 -269 c 0
 37 -269 25 -265 15 -256 c 0
 5 -247 0 -237 0 -225 c 2xc0
 39 -13 l 2xa0
EndSplineSet
Validated: 1
EndChar

StartChar: uniE08B
Encoding: 57483 57483 137
Width: 435
Flags: W
HStem: -268 24<243 312.202> 28 155<316.843 378.858> 243 25<243 316.727>
VStem: 0 140<-122.197 124.75> 205 38<-358 -268 -236 236 268 358> 291 145<50.3318 159.222> 418 25<-126.337 -79.0117>
LayerCount: 2
Fore
SplineSet
368 28 m 0xfc
 351 28 334 34 316 48 c 0
 300 60 291 79 291 104 c 0xfc
 291 125 298 143 312 159 c 0
 325 175 343 183 365 183 c 0
 371 183 376 183 379 182 c 1
 348 222 307 242 256 243 c 2
 243 243 l 1
 243 -243 l 2
 244 -243 246 -243 250 -244 c 0
 252 -244 255 -244 256 -244 c 0
 295 -244 330 -229 358 -200 c 0
 388 -170 407 -133 418 -89 c 0
 420 -82 424 -79 430 -79 c 0
 439 -79 443 -83 443 -91 c 0xfa
 443 -96 441 -105 437 -118 c 0
 433 -130 426 -145 416 -162 c 0
 407 -180 395 -197 382 -213 c 0
 368 -229 350 -242 328 -253 c 0
 306 -264 282 -269 256 -269 c 0
 255 -269 252 -269 250 -268 c 0
 246 -268 244 -268 243 -268 c 2
 243 -348 l 2
 243 -355 239 -358 232 -358 c 2
 215 -358 l 2
 208 -358 205 -355 205 -348 c 2
 205 -265 l 1
 136 -254 84 -225 50 -176 c 0
 17 -127 0 -69 0 0 c 0
 0 69 16 128 50 176 c 0
 82 225 134 254 205 265 c 1
 205 348 l 2
 205 355 208 358 215 358 c 2
 232 358 l 2
 239 358 242 355 243 348 c 2
 243 268 l 1
 256 268 l 2
 310 268 354 249 386 212 c 0
 420 174 436 137 436 101 c 0
 436 80 430 63 416 49 c 0
 404 35 387 28 368 28 c 0xfc
205 -236 m 1
 205 236 l 1
 178 226 160 207 152 178 c 0
 144 149 140 107 140 52 c 2
 140 0 l 1
 140 -52 l 2
 140 -107 144 -149 152 -178 c 0
 160 -207 178 -226 205 -236 c 1
EndSplineSet
Validated: 1
EndChar

StartChar: uniE56E
Encoding: 58734 58734 138
Width: 684
Flags: W
HStem: 0 21G<183.5 190.5 397 403.5 610.5 617.5> 236 20G<113.5 120 326.5 333 539.5 546.5>
LayerCount: 2
Fore
SplineSet
692 175 m 2
 696 181 702 184 709 184 c 0
 714 184 719 182 724 178 c 0
 728 174 730 169 730 164 c 0
 730 161 728 157 725 153 c 2
 630 9 l 2
 626 3 621 0 614 0 c 0
 607 0 602 2 597 7 c 2
 497 129 l 1
 417 9 l 2
 413 3 407 0 400 0 c 0
 394 0 389 2 384 7 c 2
 283 129 l 1
 203 9 l 2
 199 3 194 0 187 0 c 0
 180 0 175 2 170 7 c 2
 70 129 l 1
 38 81 l 2
 34 75 28 72 21 72 c 0
 16 72 11 74 6 78 c 0
 2 82 0 87 0 92 c 0
 0 95 2 99 5 103 c 2
 100 247 l 2
 104 253 110 256 117 256 c 0
 123 256 128 254 133 249 c 2
 233 127 l 1
 313 247 l 2
 317 253 323 256 330 256 c 0
 336 256 341 254 346 249 c 2
 447 127 l 1
 527 247 l 2
 531 253 536 256 543 256 c 0
 550 256 555 254 560 249 c 2
 660 127 l 1
 692 175 l 2
EndSplineSet
Validated: 1
EndChar

StartChar: uniE4E2
Encoding: 58594 58594 139
Width: 152
Flags: W
HStem: 0 256<6.5 143 10 143>
VStem: 0 154<10 246>
LayerCount: 2
Fore
SplineSet
143 0 m 2
 10 0 l 2
 3 0 0 3 0 10 c 2
 0 246 l 2
 0 253 3 256 10 256 c 2
 143 256 l 2
 150 256 154 253 154 246 c 2
 154 10 l 2
 154 3 150 0 143 0 c 2
EndSplineSet
Validated: 1
EndChar

StartChar: uniE05C
Encoding: 57436 57436 140
Width: 697
Flags: W
HStem: -512 29<418 452.5 418 515.5> -239 164<321.5 376.5> -72 29<456.5 485> 43 29<456.5 485 444.5 494> 75 164<321.5 376.5> 483 29<418.5 452.5>
VStem: 0 142<-502 502> 184 42<-502 -19 19 502> 269 106<-449.5 -356> 312 28<-229 -203.5 -229 -184.5 203.5 229> 568 128<-293.5 -227 227 293.5>
LayerCount: 2
Fore
SplineSet
326 0 m 0xffa0
 326 -50 341 -75 372 -75 c 0
 381 -75 396 -70 416 -59 c 0
 435 -48 451 -43 462 -43 c 0
 526 -43 581 -64 627 -104 c 0
 673 -146 696 -196 696 -256 c 0
 696 -427 606 -512 425 -512 c 0
 382 -512 345 -498 314 -470 c 0
 284 -442 269 -408 269 -367 c 0
 269 -345 277 -326 292 -311 c 0
 307 -296 326 -288 347 -288 c 0
 368 -288 387 -296 402 -311 c 0
 417 -326 425 -345 425 -367 c 0
 425 -380 417 -393 400 -406 c 0
 383 -418 375 -431 375 -444 c 0xffa0
 375 -455 380 -465 390 -472 c 0
 399 -479 411 -483 425 -483 c 0
 480 -483 518 -464 538 -426 c 0
 558 -388 568 -331 568 -256 c 0
 568 -198 562 -154 550 -124 c 0
 537 -89 508 -72 462 -72 c 0
 427 -72 398 -87 374 -117 c 0
 352 -147 340 -183 340 -224 c 0
 340 -234 335 -239 326 -239 c 0
 317 -239 312 -234 312 -224 c 0
 312 -145 283 -76 226 -19 c 1
 226 -502 l 2
 226 -509 223 -512 216 -512 c 2
 195 -512 l 2
 188 -512 184 -509 184 -502 c 2
 184 502 l 2
 184 509 188 512 195 512 c 2
 216 512 l 2
 223 512 226 509 226 502 c 2
 226 19 l 1
 283 76 312 145 312 224 c 0
 312 234 317 239 326 239 c 0
 335 239 340 234 340 224 c 0xff60
 340 183 352 147 374 117 c 0
 398 87 427 72 462 72 c 0
 508 72 537 89 550 124 c 0
 562 154 568 198 568 256 c 0
 568 331 558 388 538 426 c 0
 518 464 480 483 425 483 c 0
 412 483 400 480 390 472 c 0
 380 466 375 456 375 444 c 0
 375 431 383 418 400 406 c 0
 417 393 425 380 425 367 c 0
 425 345 417 326 402 311 c 0
 387 296 368 288 347 288 c 0
 326 288 307 296 292 311 c 0
 277 326 269 345 269 367 c 0
 269 408 284 442 314 470 c 0
 345 498 382 512 425 512 c 0
 606 512 696 427 696 256 c 0
 696 196 673 146 627 104 c 0
 581 64 526 43 462 43 c 0
 451 43 436 48 416 59 c 0
 396 70 381 75 372 75 c 0
 341 75 326 50 326 0 c 0xffa0
132 -512 m 2
 10 -512 l 2
 3 -512 0 -509 0 -502 c 2
 0 502 l 2
 0 509 3 512 10 512 c 2
 132 512 l 2
 139 512 142 509 142 502 c 2
 142 -502 l 2
 142 -509 139 -512 132 -512 c 2
EndSplineSet
Validated: 1
EndChar

StartChar: uniE262
Encoding: 57954 57954 141
Width: 281
Flags: W
VStem: 0 98<-209 -203 60 67> 60 38<-365 -216 -216 -216 -97 52 52 52 171 319> 183 38<-319 -171 -171 -171 -52 97 97 97 216 365>
LayerCount: 2
Fore
SplineSet
221 -319 m 6x60
 221 -332 215 -338 202 -338 c 4
 189 -338 183 -332 183 -319 c 6
 183 -171 l 5
 98 -203 l 5xa0
 98 -365 l 6
 98 -378 92 -384 79 -384 c 4
 66 -384 60 -378 60 -365 c 6
 60 -216 l 5x60
 28 -228 l 6
 27 -229 24 -229 20 -229 c 4
 15 -229 10 -227 6 -223 c 4
 2 -219 0 -214 0 -209 c 6
 0 -147 l 6xa0
 0 -138 4 -131 13 -128 c 6
 60 -112 l 5
 60 52 l 5x60
 28 41 l 6
 27 40 24 40 20 40 c 4
 15 40 10 42 6 46 c 4
 2 50 0 55 0 60 c 6
 0 122 l 6xa0
 0 131 4 137 13 140 c 6
 60 158 l 5
 60 319 l 6
 60 332 66 338 79 338 c 4
 92 338 98 332 98 319 c 6
 98 171 l 5
 183 203 l 5
 183 365 l 6
 183 378 189 384 202 384 c 4
 215 384 221 378 221 365 c 6
 221 216 l 5
 254 228 l 6
 255 229 258 229 261 229 c 4
 266 229 271 227 276 223 c 4
 280 219 282 214 282 209 c 6
 282 147 l 6
 282 138 277 131 268 128 c 6
 221 112 l 5
 221 -52 l 5
 254 -41 l 6
 255 -40 258 -40 261 -40 c 4
 266 -40 271 -42 276 -46 c 4
 280 -50 282 -55 282 -60 c 6
 282 -122 l 6
 282 -131 277 -137 268 -140 c 6
 221 -158 l 5
 221 -319 l 6x60
183 97 m 5
 98 67 l 5xa0
 98 -97 l 5x60
 183 -67 l 5
 183 97 l 5
EndSplineSet
Validated: 1
EndChar

StartChar: uniE440
Encoding: 58432 58432 142
Width: 203
Flags: W
HStem: 106 44<94 147>
VStem: 5 42 146 79<45 47.5>
LayerCount: 2
Fore
SplineSet
48 42 m 2
 47 -37 l 2
 47 -62 48 -85 51 -104 c 1
 72 -87 87 -73 98 -62 c 0
 109 -51 119 -37 130 -18 c 0
 141 1 146 19 146 38 c 0
 146 57 142 73 134 86 c 0
 126 99 115 106 102 106 c 0
 86 106 73 100 64 88 c 0
 55 76 49 61 48 42 c 2
-5 333 m 1
 -8 468 l 1
 1 473 11 476 20 476 c 0
 29 476 39 473 48 468 c 1
 46 358 l 1
 114 392 l 2
 117 393 119 394 122 394 c 0
 126 394 130 393 133 390 c 0
 139 385 142 380 142 374 c 0
 142 367 138 362 131 358 c 2
 45 315 l 1
 43 236 l 1
 114 271 l 2
 119 273 122 274 123 274 c 0
 126 274 130 273 133 270 c 0
 139 265 142 260 142 253 c 0
 142 246 138 241 131 237 c 2
 43 193 l 1
 40 115 l 1
 67 138 99 150 134 150 c 0
 160 150 182 139 199 118 c 0
 216 97 225 72 225 45 c 0
 224 26 219 7 208 -10 c 0
 197 -27 186 -41 174 -52 c 0
 162 -63 145 -76 123 -92 c 0
 101 -108 85 -120 74 -128 c 0
 71 -131 66 -136 61 -144 c 0
 56 -152 50 -158 45 -161 c 0
 40 -165 34 -167 28 -167 c 0
 21 -167 16 -165 12 -160 c 0
 8 -155 6 -149 5 -141 c 2
 -2 170 l 1
 -74 134 l 2
 -77 133 -79 132 -82 132 c 0
 -85 132 -89 133 -92 135 c 0
 -99 139 -102 145 -102 152 c 0
 -102 160 -98 166 -91 169 c 2
 -3 213 l 1
 -5 291 l 1
 -74 256 l 2
 -77 255 -79 254 -82 254 c 0
 -85 254 -89 255 -92 257 c 0
 -99 261 -102 266 -102 273 c 0
 -102 280 -98 286 -91 290 c 2
 -5 333 l 1
EndSplineSet
Validated: 1
EndChar

StartChar: uniE003
Encoding: 57347 57347 143
Width: 466
Flags: W
HStem: 0 112<25 75 25 75 0 75>
LayerCount: 2
Fore
SplineSet
450 389 m 0
 455 389 458 387 462 384 c 0
 464 381 466 377 466 373 c 0
 466 370 465 367 463 364 c 0
 454 352 438 327 413 289 c 0
 388 251 369 223 356 204 c 0
 343 185 323 161 298 130 c 0
 272 99 249 76 229 60 c 0
 209 45 185 31 158 18 c 0
 131 6 103 0 75 0 c 2
 0 0 l 1
 0 87 l 2
 0 94 2 100 7 105 c 0
 12 110 18 112 25 112 c 2
 75 112 l 2
 113 112 150 119 184 134 c 0
 220 149 252 170 283 198 c 0
 314 226 340 254 364 282 c 0
 386 310 411 343 437 382 c 0
 440 387 445 389 450 389 c 0
EndSplineSet
Validated: 1
EndChar

StartChar: uniE5B0
Encoding: 58800 58800 144
Width: 469
Flags: W
HStem: 665 22
LayerCount: 2
Fore
SplineSet
575 357 m 0
 557 263 531 187 498 129 c 1
 417 9 l 2
 413 3 407 0 400 0 c 0
 393 0 388 2 384 7 c 2
 284 129 l 1
 204 9 l 2
 200 3 194 0 187 0 c 0
 180 0 175 2 171 7 c 2
 70 129 l 1
 38 81 l 2
 34 75 29 72 22 72 c 0
 16 72 11 74 7 78 c 0
 3 82 1 86 1 91 c 0
 1 96 2 100 4 103 c 2
 99 247 l 2
 103 253 109 256 116 256 c 0
 123 256 128 254 132 249 c 2
 232 127 l 1
 312 247 l 2
 316 253 322 256 329 256 c 0
 336 256 341 254 345 249 c 2
 446 127 l 1
 487 191 519 279 543 392 c 0
 554 442 577 485 612 520 c 0
 638 546 689 559 766 559 c 0
 775 559 779 555 779 548 c 0
 779 541 775 537 766 537 c 0
 703 537 659 524 632 497 c 0
 607 472 588 426 575 357 c 0
EndSplineSet
Validated: 1
EndChar

StartChar: uniE4C8
Encoding: 58568 58568 145
Width: 784
Flags: W
HStem: 0 122<391.5 408.5> 154 76<183 617 183 183> 282 128<55 745 55 55>
VStem: 16 39<19 282> 144 39<19 154> 339 122<52.5 69.5> 617 39<19 154 154 154> 745 39<19 282 282 282>
LayerCount: 2
Fore
SplineSet
339 61 m 0
 339 78 345 92 357 104 c 0
 369 116 383 122 400 122 c 0
 417 122 431 116 443 104 c 0
 455 92 461 78 461 61 c 0
 461 44 455 30 443 18 c 0
 431 6 417 0 400 0 c 0
 383 0 369 6 357 18 c 0
 345 30 339 44 339 61 c 0
154 230 m 2
 646 230 l 2
 653 230 656 227 656 220 c 2
 656 19 l 2
 656 14 654 10 650 6 c 0
 646 2 642 0 636 0 c 0
 632 0 627 2 623 6 c 0
 619 10 617 14 617 19 c 2
 617 154 l 1
 183 154 l 1
 183 19 l 2
 183 14 181 10 177 6 c 0
 173 2 168 0 164 0 c 0
 158 0 154 2 150 6 c 0
 146 10 144 14 144 19 c 2
 144 220 l 2
 144 227 147 230 154 230 c 2
26 410 m 2
 774 410 l 2
 781 410 784 406 784 399 c 2
 784 19 l 2
 784 14 782 10 778 6 c 0
 775 2 770 0 764 0 c 0
 759 0 754 2 750 6 c 0
 747 10 745 14 745 19 c 2
 745 282 l 1
 55 282 l 1
 55 19 l 2
 55 14 53 10 50 6 c 0
 46 2 41 0 36 0 c 0
 30 0 25 2 22 6 c 0
 18 10 16 14 16 19 c 2
 16 399 l 2
 16 406 19 410 26 410 c 2
EndSplineSet
Validated: 1
EndChar

StartChar: uniE242
Encoding: 57922 57922 146
Width: 246
Flags: W
HStem: -20 20G<0 32 32 32>
VStem: 0 32<-512 -435 -232 -218 -16.5 0> 203 43<-726.5 -685>
LayerCount: 2
Fore
SplineSet
32 0 m 1
 32 -33 39 -67 54 -102 c 0
 67 -133 84 -165 106 -197 c 2
 166 -285 l 2
 187 -314 204 -346 218 -380 c 0
 233 -414 240 -448 240 -481 c 0
 240 -512 232 -545 216 -579 c 1
 236 -620 246 -659 246 -698 c 0
 246 -759 232 -821 203 -886 c 0
 198 -894 192 -898 184 -898 c 0
 177 -898 171 -895 166 -890 c 0
 162 -886 160 -881 160 -875 c 0
 160 -873 160 -872 160 -870 c 0
 189 -813 203 -755 203 -698 c 0
 203 -672 198 -648 188 -626 c 0
 177 -602 163 -578 144 -554 c 0
 121 -524 103 -503 92 -492 c 0
 75 -475 55 -456 32 -435 c 1
 32 -512 l 1
 0 -512 l 1
 0 0 l 1
 32 0 l 1
189 -529 m 1
 194 -514 196 -498 196 -481 c 0
 196 -457 191 -433 182 -410 c 0
 172 -385 158 -361 140 -337 c 0
 121 -313 104 -293 89 -276 c 0
 74 -259 55 -240 32 -218 c 1
 32 -246 38 -275 49 -305 c 0
 60 -332 72 -357 86 -380 c 0
 99 -400 117 -426 140 -457 c 0
 163 -488 179 -512 189 -529 c 1
EndSplineSet
Validated: 1
EndChar

StartChar: uniE245
Encoding: 57925 57925 147
Width: 307
Flags: W
HStem: 0 21G<0 32 0 0>
VStem: 0 32<0 17.5 215 230 445 461 676 768> 243 43<455.5 477.5> 256 43<656.5 689> 264 43<887 916.5>
LayerCount: 2
Fore
SplineSet
32 215 m 1xe0
 60 234 84 251 104 266 c 0
 125 282 147 301 170 323 c 0
 193 345 211 368 224 393 c 0
 237 418 243 443 243 468 c 0
 243 487 239 504 232 521 c 1
 219 505 198 483 169 456 c 0
 132 421 109 398 100 388 c 0
 83 369 68 346 54 317 c 0
 39 288 32 259 32 230 c 2
 32 215 l 1xe0
307 907 m 0xc8
 307 867 294 828 269 790 c 1
 289 753 299 715 299 676 c 0xd0
 299 637 286 599 261 560 c 1
 278 529 286 499 286 468 c 0xe0
 286 434 277 400 260 366 c 0
 243 332 221 301 196 274 c 2
 122 194 l 2
 97 167 75 136 58 102 c 0
 41 69 32 35 32 0 c 1
 0 0 l 1
 0 768 l 1
 32 768 l 1
 32 676 l 1
 187 749 264 826 264 907 c 0xc8
 264 926 259 947 250 970 c 0
 250 971 250 973 250 974 c 0
 250 980 252 985 256 989 c 0xd0
 261 994 267 997 274 997 c 0
 296 997 307 967 307 907 c 0xc8
32 445 m 1
 181 520 256 597 256 677 c 0
 256 701 250 726 238 752 c 1
 223 733 201 711 173 686 c 0
 143 659 119 636 102 618 c 0
 85 601 69 577 54 548 c 0
 39 519 32 490 32 461 c 2
 32 445 l 1
EndSplineSet
Validated: 1
EndChar

StartChar: uniE5E7
Encoding: 58855 58855 148
Width: 204
Flags: W
HStem: 0 31<92 112 92 117> 225 31<92 112>
VStem: 0 44<114.5 141.5 114.5 145.5> 160 44<114.5 141.5>
LayerCount: 2
Fore
SplineSet
204 128 m 0
 204 93 194 63 176 38 c 0
 156 13 132 0 102 0 c 0
 72 0 48 13 28 38 c 0
 10 63 0 93 0 128 c 0
 0 163 10 193 28 218 c 0
 48 243 72 256 102 256 c 0
 132 256 156 243 176 218 c 0
 194 193 204 163 204 128 c 0
160 128 m 0
 160 155 155 178 146 196 c 0
 137 216 122 225 102 225 c 0
 82 225 67 216 58 196 c 0
 49 178 44 155 44 128 c 0
 44 101 49 78 58 60 c 0
 67 40 82 31 102 31 c 0
 122 31 137 40 146 60 c 0
 155 78 160 101 160 128 c 0
EndSplineSet
Validated: 1
EndChar

StartChar: uniE4E6
Encoding: 58598 58598 149
Width: 256
Flags: W
HStem: -266 21G<96.5 107.5> 55 55
VStem: -3 136 74 56<-256 -256> 227 29<174 174>
LayerCount: 2
Fore
SplineSet
72 210 m 0xe8
 91 210 106 205 116 194 c 0
 125 183 131 172 132 160 c 0xe8
 134 147 138 136 142 126 c 0
 148 115 155 110 165 110 c 0
 172 110 183 118 198 135 c 0
 213 152 222 165 227 174 c 0
 230 180 235 184 241 184 c 2
 242 184 l 2
 249 183 253 180 256 174 c 1
 130 -256 l 1
 123 -263 113 -266 102 -266 c 0
 91 -266 81 -263 74 -256 c 1xd8
 194 78 l 1
 152 63 116 55 86 55 c 0
 62 55 41 63 24 78 c 0
 6 93 -3 113 -3 136 c 0
 -3 157 4 174 19 188 c 0
 34 203 51 210 72 210 c 0xe8
EndSplineSet
Validated: 1
EndChar

StartChar: uniE612
Encoding: 58898 58898 150
Width: 332
Flags: W
HStem: 0 21G<161 173>
LayerCount: 2
Fore
SplineSet
167 0 m 0
 155 0 149 6 149 18 c 2
 1 510 l 2
 0 512 0 514 0 517 c 0
 0 527 6 532 19 532 c 0
 28 532 34 528 36 520 c 2
 167 83 l 1
 298 520 l 2
 300 528 306 532 315 532 c 0
 328 532 334 527 334 517 c 0
 334 514 334 512 333 510 c 2
 185 18 l 2
 185 6 179 0 167 0 c 0
EndSplineSet
Validated: 1
EndChar

StartChar: uniE4C6
Encoding: 58566 58566 151
Width: 638
Flags: W
HStem: 0 138<309.5 328.5> 282 102<37 601 37 37>
VStem: 0 37<19 282> 250 138<59.5 78.5> 601 39<19 282 282 282>
LayerCount: 2
Fore
SplineSet
250 69 m 0
 250 88 257 105 270 118 c 0
 283 131 300 138 319 138 c 0
 338 138 355 131 368 118 c 0
 381 105 388 88 388 69 c 0
 388 50 381 33 368 20 c 0
 355 7 338 0 319 0 c 0
 300 0 283 7 270 20 c 0
 257 33 250 50 250 69 c 0
10 384 m 2
 629 384 l 2
 636 384 640 381 640 374 c 2
 640 19 l 2
 640 14 638 10 634 6 c 0
 630 2 625 0 620 0 c 0
 615 0 610 2 606 6 c 0
 603 10 601 14 601 19 c 2
 601 282 l 1
 37 282 l 1
 37 19 l 2
 37 14 35 10 32 6 c 0
 28 2 23 0 18 0 c 0
 13 0 9 2 6 6 c 0
 2 9 0 14 0 19 c 2
 0 374 l 2
 0 381 3 384 10 384 c 2
EndSplineSet
Validated: 1
EndChar

StartChar: uniE654
Encoding: 58964 58964 152
Width: 70
Flags: W
HStem: 0 72<31.5 40.5>
VStem: 0 72<31.5 40.5>
LayerCount: 2
Fore
SplineSet
0 36 m 0
 0 45 4 54 11 61 c 0
 18 68 27 72 36 72 c 0
 45 72 54 68 61 61 c 0
 68 54 72 45 72 36 c 0
 72 27 68 18 61 11 c 0
 54 4 45 0 36 0 c 0
 27 0 18 4 11 11 c 0
 4 18 0 27 0 36 c 0
EndSplineSet
Validated: 1
EndChar

StartChar: uniE631
Encoding: 58929 58929 153
Width: 271
Flags: W
HStem: 0 33<121.5 150.5 121.5 155> 238 33<120 120 120 152>
VStem: 0 33<121.5 148.5 121.5 153.5> 120 32<136 238 271 341> 239 33<121.5 148.5>
LayerCount: 2
Fore
SplineSet
152 136 m 2
 152 125 147 120 136 120 c 0
 125 120 120 125 120 136 c 2
 120 238 l 1
 95 234 75 222 58 203 c 0
 41 184 33 161 33 136 c 0
 33 107 43 83 63 63 c 0
 83 43 107 33 136 33 c 0
 165 33 189 43 209 63 c 0
 229 83 239 107 239 136 c 0
 239 161 231 184 214 203 c 0
 197 222 177 234 152 238 c 1
 152 136 l 2
120 271 m 1
 120 341 l 2
 120 352 125 357 136 357 c 0
 147 357 152 352 152 341 c 2
 152 271 l 1
 186 267 214 252 238 226 c 0
 260 201 272 171 272 136 c 0
 272 98 259 66 232 40 c 0
 206 13 174 0 136 0 c 0
 98 0 66 13 40 40 c 0
 13 66 0 98 0 136 c 0
 0 171 12 201 34 226 c 0
 58 252 86 267 120 271 c 1
EndSplineSet
Validated: 1
EndChar

StartChar: uniE4AD
Encoding: 58541 58541 154
Width: 256
Flags: W
HStem: -282 282<13 130.5>
VStem: 0 256<-13.5 -8>
LayerCount: 2
Fore
SplineSet
243 0 m 0
 252 0 256 -4 256 -12 c 0
 256 -15 256 -17 255 -18 c 2
 139 -274 l 2
 137 -279 133 -282 128 -282 c 0
 123 -282 119 -279 117 -274 c 2
 1 -18 l 2
 0 -17 0 -15 0 -12 c 0
 0 -4 4 0 13 0 c 2
 81 0 l 2
 86 0 90 -2 93 -7 c 2
 163 -161 l 1
 231 -7 l 2
 234 -2 238 0 243 0 c 0
EndSplineSet
Validated: 1
EndChar

StartChar: uniE065
Encoding: 57445 57445 155
Width: 688
Flags: W
HStem: -180 104<614.5 629.5> -89 211<109.5 129 109.5 129.5> 76 104<614.5 629.5> 243 26<219.5 264.5> 323 12<224.5 240.5 224.5 249> 567 12<232 246>
VStem: 0 217<4 33 4 53> 140 22<394 394> 148 52<499.5 535.5> 278 53 298 22<514 522> 413 125<-14 34.5> 570 104<-135.5 -120.5 120.5 135.5>
LayerCount: 2
Fore
SplineSet
570 128 m 0x3c18
 570 143 575 155 585 165 c 0
 595 175 607 180 622 180 c 0
 637 180 649 175 659 165 c 0
 669 155 674 143 674 128 c 0
 674 113 669 101 659 91 c 0
 649 81 637 76 622 76 c 0
 607 76 595 81 585 91 c 0
 575 101 570 113 570 128 c 0x3c18
570 -128 m 0
 570 -113 575 -101 585 -91 c 0
 595 -81 607 -76 622 -76 c 0
 637 -76 649 -81 659 -91 c 0
 669 -101 674 -113 674 -128 c 0
 674 -143 669 -155 659 -165 c 0
 649 -175 637 -180 622 -180 c 0x9c18
 607 -180 595 -175 585 -165 c 0
 575 -155 570 -143 570 -128 c 0
238 269 m 0
 328 269 400 246 456 202 c 0
 510 156 538 93 538 12 c 0
 538 -40 528 -90 506 -136 c 0
 486 -183 459 -225 427 -260 c 0
 395 -295 355 -330 306 -364 c 0
 257 -398 210 -426 164 -450 c 0
 65 -500 10 -525 0 -525 c 0
 -9 -525 -13 -521 -13 -512 c 0
 -13 -509 -12 -506 -9 -503 c 0
 39 -475 80 -449 116 -426 c 0
 151 -403 188 -374 228 -340 c 0
 267 -307 300 -274 324 -242 c 0
 350 -209 370 -172 388 -130 c 0
 404 -87 413 -43 413 2 c 0
 413 67 397 123 365 171 c 0
 333 219 291 243 238 243 c 0
 201 243 169 231 142 207 c 0
 114 183 93 152 80 114 c 1
 92 119 104 122 115 122 c 0
 143 122 167 112 187 92 c 0
 207 71 217 47 217 19 c 0
 217 -11 207 -36 188 -58 c 0
 168 -78 144 -89 115 -89 c 0
 84 -89 57 -78 34 -58 c 0
 12 -36 0 -11 0 19 c 0x5e18
 0 87 23 146 70 195 c 0
 116 244 172 269 238 269 c 0
272 470 m 1
 289 488 298 506 298 522 c 0
 297 536 292 547 280 555 c 0
 268 563 254 567 238 567 c 0
 226 567 217 563 210 556 c 0
 203 549 200 540 200 531 c 0x1cb8
 200 519 205 510 215 504 c 2
 272 470 l 1
288 462 m 1
 315 447 330 425 330 399 c 0
 330 398 330 397 330 396 c 0
 330 376 322 359 305 345 c 0
 288 330 264 323 234 323 c 0
 208 323 186 330 168 343 c 0
 149 356 140 374 140 394 c 0x1d58
 140 402 142 411 147 419 c 0
 152 427 156 433 160 437 c 0
 164 441 170 448 179 456 c 1
 158 470 148 489 148 510 c 0
 148 529 156 545 172 559 c 0
 188 572 210 579 238 579 c 0
 260 579 280 574 296 564 c 0
 312 554 320 540 320 522 c 0
 320 504 309 484 288 462 c 1
194 447 m 1
 173 429 163 411 162 394 c 0
 163 378 170 363 184 352 c 0
 198 341 215 335 234 335 c 0
 247 335 258 339 266 348 c 0
 274 356 278 366 278 378 c 0
 277 392 272 402 260 409 c 2
 194 447 l 1
EndSplineSet
Validated: 1
EndChar

StartChar: uniE8C7
Encoding: 59591 59591 156
Width: 529
Flags: W
HStem: 0 24<-43.5 43.5 -43.5 47.5> 256 24<-419 419 -419 -419> 512 24<-496 496 -496 496> 768 24<-432 419 -419 419 -419 432> 1024 24<-43.5 43.5>
VStem: -528 32<512 512 512 536 512 571> 496 32<512 512 536 536>
LayerCount: 2
Fore
SplineSet
528 524 m 0
 528 428 504 341 457 260 c 0
 410 179 346 116 264 70 c 0
 184 23 95 0 0 0 c 0
 -95 0 -184 23 -264 70 c 0
 -346 116 -410 179 -457 260 c 0
 -504 341 -528 428 -528 524 c 0
 -528 618 -504 706 -457 786 c 0
 -410 867 -346 930 -264 978 c 0
 -184 1024 -95 1048 0 1048 c 0
 95 1048 184 1024 264 978 c 0
 346 930 410 867 457 786 c 0
 504 706 528 618 528 524 c 0
419 256 m 1
 -419 256 l 1
 -374 185 -314 129 -240 87 c 0
 -167 45 -87 24 0 24 c 0
 87 24 167 45 240 87 c 0
 314 129 374 185 419 256 c 1
432 280 m 1
 472 355 493 432 496 512 c 1
 -496 512 l 1
 -494 431 -473 354 -432 280 c 1
 432 280 l 1
-432 768 m 1
 -472 693 -493 616 -496 536 c 1
 496 536 l 1
 494 617 473 694 432 768 c 1
 -432 768 l 1
-419 792 m 1
 419 792 l 1
 374 863 314 919 240 961 c 0
 167 1003 87 1024 0 1024 c 0
 -87 1024 -167 1003 -240 961 c 0
 -314 919 -374 863 -419 792 c 1
EndSplineSet
Validated: 1
EndChar

StartChar: uniE4C0
Encoding: 58560 58560 157
Width: 678
Flags: W
HStem: 0 138<330.5 349.5> 286 104<319.5 360.5 319.5 377.5>
VStem: 0 39 271 138<59.5 78.5> 641 39
LayerCount: 2
Fore
SplineSet
271 69 m 0
 271 88 278 105 291 118 c 0
 304 131 321 138 340 138 c 0
 359 138 376 131 389 118 c 0
 402 105 409 88 409 69 c 0
 409 50 402 33 389 20 c 0
 376 7 359 0 340 0 c 0
 321 0 304 7 291 20 c 0
 278 33 271 50 271 69 c 0
340 390 m 0
 381 390 420 382 456 364 c 0
 493 347 523 326 546 299 c 0
 570 272 591 244 609 214 c 0
 627 184 641 154 651 125 c 0
 661 96 668 72 673 53 c 0
 678 34 680 22 680 15 c 0
 680 11 678 8 674 4 c 0
 670 2 666 0 661 0 c 0
 650 0 644 6 641 18 c 0
 628 95 593 158 537 210 c 0
 481 260 415 286 340 286 c 0
 265 286 199 260 143 210 c 0
 87 158 52 95 39 18 c 0
 37 6 30 0 19 0 c 0
 14 0 10 2 6 4 c 0
 2 8 0 11 0 15 c 0
 0 22 2 34 7 53 c 0
 12 72 19 96 29 125 c 0
 39 154 53 184 71 214 c 0
 89 244 110 272 134 299 c 0
 157 326 187 348 224 364 c 0
 260 382 299 390 340 390 c 0
EndSplineSet
Validated: 1
EndChar

StartChar: uniE044
Encoding: 57412 57412 158
Width: 116
Flags: W
HStem: 70 116<17.5178 98.4822>
VStem: 0 116<87.5178 168.482>
LayerCount: 2
Fore
SplineSet
0 128 m 0
 0 144 6 158 17 169 c 0
 28 180 42 186 58 186 c 0
 74 186 88 180 99 169 c 0
 110 158 116 144 116 128 c 0
 116 112 110 98 99 87 c 0
 88 76 74 70 58 70 c 0
 42 70 28 76 17 87 c 0
 6 98 0 112 0 128 c 0
EndSplineSet
Validated: 1
EndChar

StartChar: uniE5E5
Encoding: 58853 58853 159
Width: 282
Flags: W
HStem: 0 21G<137.5 144.5> 115 52<22.5 115 26 115 167 256>
VStem: 115 52<26 115 167 256>
LayerCount: 2
Fore
SplineSet
141 0 m 0
 134 0 128 2 123 8 c 0
 118 13 115 19 115 26 c 2
 115 115 l 1
 26 115 l 2
 19 115 12 118 8 123 c 0
 2 128 0 134 0 141 c 0
 0 148 2 154 8 159 c 0
 13 164 19 167 26 167 c 2
 115 167 l 1
 115 256 l 2
 115 263 118 270 123 274 c 0
 128 280 134 282 141 282 c 0
 148 282 154 280 159 274 c 0
 164 270 167 263 167 256 c 2
 167 167 l 1
 256 167 l 2
 263 167 270 164 274 159 c 0
 280 154 282 148 282 141 c 0
 282 134 280 128 274 123 c 0
 270 118 263 115 256 115 c 2
 167 115 l 1
 167 26 l 2
 167 19 164 12 159 8 c 0
 154 2 148 0 141 0 c 0
EndSplineSet
Validated: 1
EndChar

StartChar: uniEAAE
Encoding: 60078 60078 160
Width: 257
Flags: W
HStem: -62 328
VStem: -91 311
LayerCount: 2
Fore
SplineSet
-63 162 m 6
 -36 130 l 6
 -28 120 -19 116 -8 116 c 4
 -4 116 1 117 8 120 c 4
 14 123 18 126 22 130 c 4
 27 134 33 138 40 144 c 4
 47 151 52 156 56 158 c 5
 12 252 l 6
 10 256 10 259 10 262 c 4
 12 264 14 265 18 266 c 4
 22 266 35 255 56 234 c 4
 76 213 102 189 132 162 c 4
 165 135 194 117 220 108 c 4
 221 107 222 106 223 104 c 4
 223 99 222 96 219 96 c 4
 196 87 168 69 133 40 c 4
 96 9 70 -14 55 -30 c 4
 36 -50 23 -61 17 -62 c 4
 12 -63 10 -61 10 -56 c 4
 10 -54 11 -51 13 -48 c 6
 51 32 l 5
 34 36 19 43 7 52 c 6
 -87 142 l 6
 -90 145 -92 149 -91 152 c 4
 -90 157 -88 161 -87 162 c 4
 -84 165 -80 167 -75 168 c 4
 -70 169 -66 167 -63 162 c 6
EndSplineSet
Validated: 1
EndChar

StartChar: uniE614
Encoding: 58900 58900 161
Width: 272
Flags: W
HStem: 0 20<120 152 120 155> 252 20<120 152>
VStem: 0 20<120 152 120 155> 252 20<120 152>
LayerCount: 2
Fore
SplineSet
136 272 m 0
 174 272 206 259 232 232 c 0
 259 206 272 174 272 136 c 0
 272 98 259 66 232 40 c 0
 206 13 174 0 136 0 c 0
 98 0 66 13 40 40 c 0
 13 66 0 98 0 136 c 0
 0 174 13 206 40 232 c 0
 66 259 98 272 136 272 c 0
136 252 m 0
 104 252 77 241 54 218 c 0
 31 195 20 168 20 136 c 0
 20 104 31 77 54 54 c 0
 77 31 104 20 136 20 c 0
 168 20 195 31 218 54 c 0
 241 77 252 104 252 136 c 0
 252 168 241 195 218 218 c 0
 195 241 168 252 136 252 c 0
EndSplineSet
Validated: 1
EndChar

StartChar: uniE658
Encoding: 58968 58968 163
Width: 214
Flags: W
HStem: 173 63<40.5 92>
VStem: 0 215<159 245>
LayerCount: 2
Fore
SplineSet
0 159 m 1
 36 221 l 1
 47 230 65 235 88 236 c 0
 96 236 109 235 126 234 c 0
 143 232 156 231 163 231 c 0
 188 231 205 236 215 245 c 1
 179 183 l 1
 168 174 150 169 127 169 c 0
 119 169 106 170 89 171 c 0
 72 172 59 173 52 173 c 0
 29 173 11 168 0 159 c 1
EndSplineSet
Validated: 1
EndChar

StartChar: uniE088
Encoding: 57480 57480 164
Width: 375
Flags: W
HStem: -256 24<168 200.5 168 217.5> 232 24<184.5 212.5>
VStem: 0 45<-130 -113 -130 -105> 15 104<119 169.5> 275 106<-158.5 -81.5> 315 45<143 156.5>
LayerCount: 2
Fore
SplineSet
265 39 m 1xd4
 298 75 315 110 315 143 c 0
 315 170 303 192 280 208 c 0
 257 224 229 232 196 232 c 0
 173 232 154 225 140 210 c 0
 126 195 119 179 119 160 c 0
 119 137 129 119 150 106 c 2
 265 39 l 1xd4
296 22 m 1
 353 -11 381 -54 381 -109 c 0
 381 -149 364 -184 330 -212 c 0
 295 -242 248 -256 187 -256 c 0
 136 -256 92 -243 56 -216 c 0
 18 -189 0 -155 0 -113 c 0xe8
 0 -97 5 -81 14 -64 c 0
 23 -48 32 -36 40 -28 c 0
 47 -19 60 -7 78 10 c 1
 37 39 16 75 15 119 c 0
 15 156 31 188 64 216 c 0
 96 242 140 256 196 256 c 0
 241 256 279 246 312 226 c 0
 344 206 360 178 360 143 c 0
 359 107 338 67 296 22 c 1
109 -8 m 1
 67 -45 46 -80 45 -113 c 0
 45 -147 59 -175 88 -198 c 0
 116 -221 149 -232 187 -232 c 0
 214 -232 235 -224 251 -206 c 0
 267 -190 275 -170 275 -147 c 0
 275 -118 263 -97 240 -84 c 2
 109 -8 l 1
EndSplineSet
Validated: 1
EndChar

StartChar: uniE089
Encoding: 57481 57481 165
Width: 348
Flags: W
HStem: -256 24<147.5 169.5 147.5 183> -30 24<161.5 181> 232 24<159 186.5>
VStem: 0 112<92 131 92 136> 12 94<-205.5 -141.5> 228 120<-20 -16 -34.5 128 -34.5 144.5>
LayerCount: 2
Fore
SplineSet
174 -6 m 0xf4
 199 -6 215 4 221 24 c 0
 226 40 228 65 228 98 c 2
 228 128 l 2
 228 161 226 186 221 202 c 0
 215 222 199 232 174 232 c 0
 144 232 126 220 120 197 c 0
 115 177 112 149 112 113 c 0
 112 71 116 41 123 24 c 0
 132 4 149 -6 174 -6 c 0xf4
228 -16 m 1
 206 -25 188 -30 174 -30 c 0
 120 -30 78 -18 46 6 c 0
 16 30 0 66 0 112 c 0xf4
 0 160 16 195 47 220 c 0
 78 244 121 256 174 256 c 0
 229 256 271 231 302 180 c 0
 333 129 348 69 348 0 c 0
 348 -69 330 -128 294 -180 c 0
 259 -230 212 -256 154 -256 c 0
 116 -256 83 -246 54 -227 c 0
 26 -208 12 -182 12 -151 c 0
 12 -132 18 -116 32 -103 c 0
 44 -90 60 -83 78 -83 c 0
 97 -83 113 -90 126 -103 c 0
 139 -116 146 -132 146 -151 c 0
 146 -159 139 -167 126 -176 c 0
 113 -184 106 -192 106 -201 c 0xec
 106 -210 111 -218 120 -224 c 0
 130 -229 141 -232 154 -232 c 0
 185 -232 205 -220 215 -195 c 0
 225 -170 230 -135 230 -90 c 0
 230 -82 230 -70 229 -53 c 0
 228 -36 228 -24 228 -16 c 1
EndSplineSet
Validated: 1
EndChar

StartChar: uniE0A8
Encoding: 57512 57512 166
Width: 388
Flags: W
HStem: -67 34<194 194> 33 34<194 194 194 195.5>
VStem: 103 41<0 0> 244 41<0 0 0 2>
LayerCount: 2
Fore
SplineSet
203 36 m 2
 200 34 197 33 194 33 c 0
 191 33 188 34 185 36 c 2
 80 113 l 1
 41 84 l 1
 138 12 l 2
 142 8 144 4 144 0 c 0
 144 -4 142 -8 138 -12 c 2
 41 -84 l 1
 80 -113 l 1
 185 -36 l 2
 188 -34 191 -33 194 -33 c 0
 197 -33 200 -34 203 -36 c 2
 308 -113 l 1
 347 -84 l 1
 250 -12 l 2
 246 -8 244 -4 244 0 c 0
 244 4 246 8 250 12 c 2
 347 84 l 1
 308 113 l 1
 203 36 l 2
194 67 m 1
 299 144 l 2
 302 146 305 147 308 147 c 0
 311 147 314 146 317 144 c 2
 382 96 l 2
 386 93 388 89 388 84 c 0
 388 79 386 75 382 72 c 2
 285 0 l 1
 382 -72 l 2
 386 -75 388 -79 388 -84 c 0
 388 -89 386 -93 382 -96 c 2
 317 -144 l 2
 314 -146 311 -147 308 -147 c 0
 305 -147 302 -146 299 -144 c 2
 194 -67 l 1
 89 -144 l 2
 86 -146 83 -147 80 -147 c 0
 77 -147 74 -146 71 -144 c 2
 6 -96 l 2
 2 -93 0 -89 0 -84 c 0
 0 -79 2 -75 6 -72 c 2
 103 0 l 1
 6 72 l 2
 2 75 0 79 0 84 c 0
 0 89 2 93 6 96 c 2
 71 144 l 2
 74 146 77 147 80 147 c 0
 83 147 86 146 89 144 c 2
 194 67 l 1
EndSplineSet
Validated: 1
EndChar

StartChar: uniE0BE
Encoding: 57534 57534 167
Width: 336
Flags: W
HStem: -115 231<20 172.5 165.5 172.5 165.5 314>
VStem: 0 337<-96 -90.5>
LayerCount: 2
Fore
SplineSet
23 -115 m 2
 17 -115 12 -113 7 -108 c 0
 2 -104 0 -99 0 -93 c 0
 0 -88 2 -83 5 -79 c 2
 151 106 l 2
 156 113 162 116 169 116 c 0
 176 116 182 113 187 106 c 2
 332 -79 l 2
 335 -83 337 -88 337 -93 c 0
 337 -99 335 -104 330 -108 c 0
 326 -113 321 -115 314 -115 c 2
 23 -115 l 2
EndSplineSet
Validated: 1
EndChar

StartChar: uniE084
Encoding: 57476 57476 168
Width: 409
Flags: W
HStem: -256 24<122 133.5 387.5 399> -128 30<24.5 201 30 201 321 394> 237 21G
VStem: 201 120<-136 -128 -150 -128 -98 36 36 40.5>
LayerCount: 2
Fore
SplineSet
230 243 m 0
 249 243 266 245 281 250 c 0
 296 255 305 257 308 257 c 0
 313 257 316 256 319 253 c 0
 321 251 322 249 323 246 c 0
 323 244 322 242 321 240 c 2
 30 -98 l 1
 201 -98 l 1
 201 36 l 2
 201 45 204 53 208 58 c 0
 214 63 220 68 228 70 c 0
 237 74 247 83 260 98 c 0
 270 109 283 130 298 161 c 0
 300 165 303 167 307 167 c 0
 316 167 320 162 321 153 c 2
 321 -98 l 1
 394 -98 l 2
 404 -98 409 -103 410 -113 c 0
 410 -123 405 -128 394 -128 c 2
 321 -128 l 1
 321 -136 l 2
 321 -164 328 -186 341 -204 c 0
 356 -222 374 -232 395 -232 c 0
 403 -232 407 -236 407 -244 c 0
 407 -252 403 -256 395 -256 c 0
 380 -256 358 -254 327 -250 c 0
 296 -245 274 -243 260 -243 c 0
 246 -243 223 -245 193 -250 c 0
 163 -254 141 -256 126 -256 c 0
 118 -256 114 -252 114 -244 c 0
 114 -236 118 -232 126 -232 c 0
 147 -232 165 -222 180 -204 c 0
 194 -185 201 -163 201 -136 c 2
 201 -128 l 1
 30 -128 l 2
 19 -128 11 -126 6 -120 c 0
 1 -116 -2 -110 -2 -104 c 0
 -2 -102 3 -95 13 -83 c 0
 23 -71 35 -55 49 -34 c 0
 63 -13 77 10 91 36 c 0
 105 62 117 93 126 130 c 0
 136 166 141 203 141 240 c 0
 141 251 146 256 155 256 c 0
 156 256 161 255 168 253 c 0
 175 251 185 249 196 246 c 0
 208 244 219 243 230 243 c 0
EndSplineSet
Validated: 1
EndChar

StartChar: uniE8CA
Encoding: 59594 59594 169
Width: 62
Flags: W
HStem: -63 126<-9 9>
VStem: -63 126<-9 9>
LayerCount: 2
Fore
SplineSet
-63 0 m 0
 -63 18 -57 33 -45 45 c 0
 -33 57 -18 63 0 63 c 0
 18 63 33 57 45 45 c 0
 57 33 63 18 63 0 c 0
 63 -18 57 -33 45 -45 c 0
 33 -57 18 -63 0 -63 c 0
 -18 -63 -33 -57 -45 -45 c 0
 -57 -33 -63 -18 -63 0 c 0
EndSplineSet
Validated: 1
EndChar

StartChar: uniE275
Encoding: 57973 57973 170
Width: 281
Flags: W
VStem: 60 38<-432 -216 -216 -216 -97 52 52 52 171 319> 183 38<-319 -171 -171 -171 -52 97 97 97 216 365>
LayerCount: 2
Fore
SplineSet
60 -432 m 2
 60 -216 l 1
 28 -228 l 2
 27 -229 24 -229 20 -229 c 0
 15 -229 10 -227 6 -223 c 0
 2 -219 0 -214 0 -209 c 2
 0 -147 l 2
 0 -138 4 -131 13 -128 c 2
 60 -112 l 1
 60 52 l 1
 28 41 l 2
 27 40 24 40 20 40 c 0
 15 40 10 42 6 46 c 0
 2 50 0 55 0 60 c 2
 0 122 l 2
 0 131 4 137 13 140 c 2
 60 158 l 1
 60 319 l 2
 60 324 62 329 66 333 c 0
 70 337 74 339 79 339 c 0
 84 339 88 337 92 334 c 0
 96 330 98 325 98 319 c 2
 98 171 l 1
 183 203 l 1
 183 365 l 2
 183 370 185 375 189 378 c 0
 193 382 198 384 203 384 c 0
 208 384 212 382 216 378 c 0
 219 375 221 370 221 365 c 2
 221 216 l 1
 254 228 l 2
 255 229 258 229 261 229 c 0
 266 229 271 227 276 223 c 0
 280 219 282 214 282 209 c 2
 282 147 l 2
 282 138 277 131 268 128 c 2
 221 112 l 1
 221 -52 l 1
 254 -41 l 2
 255 -40 258 -40 261 -40 c 0
 266 -40 271 -42 276 -46 c 0
 280 -50 282 -55 282 -60 c 2
 282 -122 l 2
 282 -131 277 -137 268 -140 c 2
 221 -158 l 1
 221 -319 l 2
 221 -324 219 -329 216 -333 c 0
 212 -337 208 -339 203 -339 c 0
 198 -339 193 -337 189 -334 c 0
 185 -330 183 -325 183 -319 c 2
 183 -171 l 1
 98 -203 l 1
 98 -432 l 2
 98 -445 103 -451 114 -451 c 0
 118 -451 130 -445 151 -434 c 2
 193 -412 l 2
 199 -412 202 -415 202 -420 c 0
 202 -422 201 -424 200 -426 c 0
 163 -481 130 -550 98 -634 c 0
 90 -659 83 -671 79 -671 c 0
 75 -671 68 -659 60 -634 c 0
 28 -550 -5 -481 -42 -426 c 0
 -43 -424 -44 -422 -44 -420 c 0
 -44 -415 -41 -412 -35 -412 c 2
 7 -434 l 2
 28 -445 40 -451 44 -451 c 0
 55 -451 60 -445 60 -432 c 2
183 97 m 1
 98 67 l 1
 98 -97 l 1
 183 -67 l 1
 183 97 l 1
EndSplineSet
Validated: 1
EndChar

StartChar: uniE283
Encoding: 57987 57987 171
Width: 409
Flags: W
VStem: 71 38<-365 -220 -220 -220 -106 49 49 49 162 307> 186 38<-336 -191 -191 -191 -78 78 78 78 191 336> 301 38<-307 -162 -162 -162 -49 106 106 106 220 365>
LayerCount: 2
Fore
SplineSet
339 -307 m 2
 339 -320 333 -326 320 -326 c 0
 307 -326 301 -320 301 -307 c 2
 301 -162 l 1
 224 -181 l 1
 224 -336 l 2
 224 -349 218 -355 205 -355 c 0
 192 -355 186 -349 186 -336 c 2
 186 -191 l 1
 109 -210 l 1
 109 -365 l 2
 109 -378 103 -384 90 -384 c 0
 77 -384 71 -378 71 -365 c 2
 71 -220 l 1
 26 -231 l 1
 20 -231 l 2
 15 -231 10 -229 6 -225 c 0
 2 -221 0 -216 0 -211 c 2
 0 -150 l 2
 0 -139 5 -133 15 -130 c 2
 71 -116 l 1
 71 49 l 1
 26 38 l 1
 20 37 l 2
 15 37 10 39 6 43 c 0
 2 47 0 52 0 57 c 2
 0 119 l 2
 0 130 5 136 15 139 c 2
 71 153 l 1
 71 307 l 2
 71 320 77 327 90 327 c 0
 103 327 109 320 109 307 c 2
 109 162 l 1
 186 181 l 1
 186 336 l 2
 186 349 192 355 205 355 c 0
 218 355 224 349 224 336 c 2
 224 191 l 1
 301 210 l 1
 301 365 l 2
 301 378 307 384 320 384 c 0
 333 384 339 378 339 365 c 2
 339 220 l 1
 385 231 l 1
 390 231 l 2
 395 231 400 229 404 225 c 0
 409 221 411 216 411 211 c 2
 411 150 l 2
 411 139 406 133 395 130 c 2
 339 116 l 1
 339 -49 l 1
 385 -38 l 1
 390 -37 l 2
 395 -37 400 -39 404 -43 c 0
 409 -47 411 -52 411 -57 c 2
 411 -119 l 2
 411 -130 406 -137 395 -139 c 2
 339 -153 l 1
 339 -307 l 2
301 106 m 1
 224 87 l 1
 224 -78 l 1
 301 -58 l 1
 301 106 l 1
186 78 m 1
 109 58 l 1
 109 -106 l 1
 186 -87 l 1
 186 78 l 1
EndSplineSet
Validated: 1
EndChar

StartChar: uniE080
Encoding: 57472 57472 172
Width: 375
Flags: W
HStem: -256 30<173 203 173 216.5> 226 30<173 203>
VStem: 0 119<-34.5 34.5> 257 119<-34.5 34.5 -34.5 56 -34.5 79.5>
LayerCount: 2
Fore
SplineSet
188 226 m 0
 158 226 139 207 130 170 c 0
 123 141 119 103 119 56 c 2
 119 -56 l 2
 119 -103 123 -141 130 -170 c 0
 139 -207 158 -226 188 -226 c 0
 218 -226 237 -207 246 -170 c 0
 253 -141 257 -103 257 -56 c 2
 257 56 l 2
 257 103 253 141 246 170 c 0
 237 207 218 226 188 226 c 0
188 256 m 0
 245 256 290 231 324 180 c 0
 359 129 376 69 376 0 c 0
 376 -69 359 -129 324 -180 c 0
 290 -231 245 -256 188 -256 c 0
 131 -256 86 -231 52 -180 c 0
 17 -129 0 -69 0 0 c 0
 0 69 17 129 52 180 c 0
 86 231 131 256 188 256 c 0
EndSplineSet
Validated: 1
EndChar

StartChar: uniE081
Encoding: 57473 57473 173
Width: 325
Flags: W
HStem: -256 24<41 52.5 304.5 318> 237 20G<225.5 230>
VStem: -2 29<-12 -6> 120 119<-136 115 115 117>
LayerCount: 2
Fore
SplineSet
179 243 m 0
 187 243 197 245 208 250 c 0
 219 255 225 257 226 257 c 0
 234 257 238 251 239 240 c 2
 239 -136 l 2
 239 -163 246 -185 260 -204 c 0
 275 -223 293 -232 314 -232 c 0
 322 -232 326 -236 326 -244 c 0
 326 -252 322 -256 314 -256 c 0
 295 -256 272 -254 246 -250 c 0
 215 -245 193 -243 180 -243 c 0
 165 -243 143 -245 112 -250 c 0
 82 -254 60 -256 45 -256 c 0
 37 -256 33 -252 33 -244 c 0
 33 -236 37 -232 45 -232 c 0
 66 -232 84 -223 99 -204 c 0
 113 -185 120 -163 120 -136 c 2
 120 115 l 2
 120 119 118 123 114 128 c 0
 111 132 107 134 102 134 c 0
 97 134 94 132 92 127 c 2
 27 -12 l 2
 24 -19 19 -22 12 -22 c 0
 9 -22 6 -21 3 -18 c 0
 0 -15 -2 -12 -2 -7 c 0
 -2 -5 -1 -3 0 0 c 2
 120 256 l 2
 121 258 122 259 125 259 c 0
 128 259 135 256 147 251 c 0
 159 246 170 243 179 243 c 0
EndSplineSet
Validated: 1
EndChar

StartChar: uniE249
Encoding: 57929 57929 174
Width: 275
Flags: W
HStem: 0 21G<-16 0 -16 -16>
VStem: -16 16<0 9 214 236 440 461 666 691 896 922 1126 1280> 172 43<531 543 540.5 543> 193 44<715.5 769 715.5 769> 216 43<922 940.5> 224 43<1107.5 1129.5> 232 43<1267.5 1286.5>
LayerCount: 2
Fore
SplineSet
275 1281 m 0xe2
 275 1254 269 1230 256 1207 c 1
 263 1178 267 1150 267 1122 c 0xc4
 267 1093 261 1065 248 1039 c 1
 255 1003 259 968 259 935 c 0xc8
 259 899 250 864 233 831 c 1
 235 798 236 765 237 732 c 0xd0
 237 699 229 664 212 627 c 1
 214 596 215 564 215 531 c 0
 215 487 204 442 181 394 c 0
 158 347 134 306 108 270 c 0
 81 235 57 193 34 146 c 0
 11 99 0 53 0 9 c 2
 0 0 l 1
 -16 0 l 1
 -16 1280 l 1
 0 1280 l 1
 0 1126 l 1
 38 1132 73 1141 106 1152 c 0
 139 1163 168 1180 194 1203 c 0
 219 1226 232 1252 232 1281 c 0
 232 1292 231 1303 229 1314 c 0
 227 1326 226 1332 226 1333 c 0
 226 1340 228 1345 234 1350 c 0
 238 1354 244 1356 250 1356 c 0
 260 1356 267 1351 270 1340 c 0
 273 1330 275 1310 275 1281 c 0xe2
0 214 m 1
 33 253 60 285 80 312 c 0
 101 338 121 372 142 415 c 0
 162 458 172 496 172 531 c 0xe0
 172 534 172 538 172 543 c 0
 171 548 171 552 171 555 c 1
 160 538 142 514 117 481 c 0
 92 448 72 422 58 402 c 0
 44 383 31 357 18 326 c 0
 6 296 0 265 0 236 c 2
 0 214 l 1
0 440 m 1
 26 464 48 485 66 504 c 0
 84 522 104 544 126 570 c 0
 148 597 165 624 176 651 c 0
 187 678 193 705 193 732 c 2
 193 769 l 1xd0
 180 752 160 729 132 698 c 0
 104 668 82 643 66 624 c 0
 50 606 35 581 21 551 c 0
 7 521 0 491 0 461 c 2
 0 440 l 1
0 666 m 1
 28 685 53 703 74 720 c 0
 95 737 118 757 142 781 c 0
 165 805 184 830 196 856 c 0
 210 883 216 909 216 935 c 0xc8
 216 946 215 963 212 986 c 1
 197 968 175 946 146 919 c 0
 118 892 94 870 76 850 c 0
 56 832 39 808 24 779 c 0
 8 750 0 721 0 691 c 2
 0 666 l 1
0 896 m 1
 149 969 224 1045 224 1122 c 0xc4
 224 1137 223 1151 220 1164 c 1
 205 1149 182 1132 153 1111 c 0
 124 1090 99 1073 78 1058 c 0
 58 1043 40 1024 24 1000 c 0
 8 976 0 950 0 922 c 2
 0 896 l 1
EndSplineSet
Validated: 1
EndChar

StartChar: uniE4B2
Encoding: 58546 58546 175
Width: 308
Flags: W
HStem: 0 82<148.5 159.5> 192 36<16.5 289 19 289>
VStem: 113 82<35.5 46.5>
LayerCount: 2
Fore
SplineSet
113 41 m 0
 113 52 117 62 125 70 c 0
 133 78 143 82 154 82 c 0
 165 82 175 78 183 70 c 0
 191 62 195 52 195 41 c 0
 195 30 191 20 183 12 c 0
 175 4 165 0 154 0 c 0
 143 0 133 4 125 12 c 0
 117 20 113 30 113 41 c 0
289 228 m 2
 294 228 299 226 302 223 c 0
 306 220 308 215 308 210 c 0
 308 205 306 200 302 197 c 0
 299 194 294 192 289 192 c 2
 19 192 l 2
 14 192 9 194 6 197 c 0
 2 200 0 205 0 210 c 0
 0 215 2 220 6 223 c 0
 9 226 14 228 19 228 c 2
 289 228 l 2
EndSplineSet
Validated: 1
EndChar

StartChar: uniE4F2
Encoding: 58610 58610 176
Width: 256
Flags: W
HStem: -266 21G<148.5 159.5> 55 55
VStem: 0 29<174 174> 124 136 126 56<-256 -256>
LayerCount: 2
Fore
SplineSet
184 210 m 0xf0
 205 210 222 203 237 188 c 0
 252 174 259 157 259 136 c 0xf0
 259 113 250 93 232 78 c 0
 215 63 194 55 170 55 c 0
 141 55 105 63 62 78 c 1
 182 -256 l 1
 175 -263 165 -266 154 -266 c 0
 143 -266 134 -263 126 -256 c 1xe8
 0 174 l 1
 3 180 7 184 14 184 c 0
 21 183 26 180 29 174 c 0
 34 164 44 151 58 135 c 0
 73 118 84 110 91 110 c 0
 101 110 108 115 114 126 c 0
 118 136 122 147 124 160 c 0
 125 172 131 183 140 194 c 0
 150 205 165 210 184 210 c 0xf0
EndSplineSet
Validated: 1
EndChar

StartChar: uniE051
Encoding: 57425 57425 178
Width: 641
Flags: W
HStem: -928 12<150 156 282 289 372.5 396> -778 15 -728 56 -635 43<238.5 286 238.5 288.5> -262 43<303.5 349.5>
VStem: 2 72<-5.5 122.5> 173 60<40.5 47 6.5 82> 190 60<-868 -742 -742 -741> 198 48 315 14 420 59 428 42<-352.5 -333.5 -355.5 -329> 428 72<800.5 938> 574 71<-41 -15.5>
LayerCount: 2
Fore
SplineSet
376 262 m 0xfccc
 377 262 380 262 382 262 c 0
 386 263 388 263 389 263 c 0
 464 263 525 237 573 184 c 0
 621 132 645 71 645 2 c 0
 645 -84 609 -154 538 -208 c 0
 519 -223 494 -235 465 -244 c 1
 468 -283 470 -318 470 -349 c 0
 470 -362 469 -382 468 -407 c 0
 465 -469 444 -522 404 -568 c 0
 366 -612 317 -635 260 -635 c 0
 206 -635 160 -616 122 -578 c 0
 84 -539 65 -493 65 -438 c 0
 65 -409 76 -385 98 -365 c 0
 121 -345 147 -335 177 -335 c 0
 204 -335 226 -345 244 -366 c 0
 263 -386 272 -410 272 -438 c 0
 272 -464 263 -486 244 -505 c 0
 225 -524 203 -533 177 -533 c 0
 166 -533 156 -531 146 -527 c 1
 175 -570 214 -592 263 -592 c 0
 309 -592 347 -573 376 -536 c 0
 406 -498 423 -453 426 -401 c 0
 427 -377 428 -359 428 -346 c 0xfc54
 428 -312 427 -281 424 -254 c 1
 393 -259 364 -262 335 -262 c 0
 242 -262 163 -225 98 -152 c 0
 34 -78 2 10 2 112 c 0
 2 133 4 155 8 177 c 0
 13 199 18 218 23 236 c 0
 28 253 38 272 50 294 c 0
 64 317 74 335 82 348 c 0
 89 361 102 379 121 402 c 0
 140 425 153 442 161 451 c 0
 169 460 184 478 206 504 c 0
 229 529 243 546 250 553 c 1
 226 632 211 695 205 743 c 0
 200 784 198 836 198 899 c 0
 198 956 211 1011 238 1062 c 0
 264 1114 300 1157 347 1191 c 0
 350 1193 354 1194 357 1194 c 0
 362 1194 365 1193 367 1191 c 0
 403 1148 434 1092 460 1022 c 0
 487 952 500 889 500 833 c 0
 500 768 484 708 454 653 c 0
 422 598 378 536 320 469 c 1
 337 416 355 347 376 262 c 0xfccc
461 -203 m 1
 494 -191 522 -170 542 -138 c 0
 564 -108 574 -74 574 -39 c 0
 574 8 558 50 526 87 c 0
 494 124 452 146 401 151 c 1
 430 10 450 -108 461 -203 c 1
74 28 m 0
 74 -39 101 -96 154 -146 c 0
 208 -194 269 -219 338 -219 c 0
 366 -219 393 -217 420 -213 c 1
 409 -111 388 10 357 151 c 1
 319 147 289 134 266 111 c 0
 244 88 233 62 233 32 c 0
 233 -19 260 -60 314 -91 c 0
 319 -96 321 -101 321 -106 c 0
 321 -111 319 -116 314 -121 c 0
 310 -126 305 -128 299 -128 c 0
 297 -128 294 -127 290 -126 c 0
 251 -105 222 -78 202 -46 c 0
 183 -12 173 22 173 59 c 0xfe44
 173 105 187 146 216 184 c 0
 245 220 284 245 333 256 c 1
 316 324 301 382 287 431 c 1
 259 400 238 375 222 357 c 0
 208 339 189 315 167 284 c 0
 145 254 128 227 117 203 c 0
 106 179 96 152 87 120 c 0
 78 90 74 59 74 28 c 0
408 1045 m 1
 359 1021 319 986 290 939 c 0
 261 892 246 841 246 786 c 0
 246 738 258 673 282 592 c 1
 329 649 365 702 390 753 c 0
 415 804 428 858 428 916 c 0xfccc
 428 960 421 1003 408 1045 c 1
220 -678 m 0
 224 -678 228 -677 234 -675 c 0
 243 -672 l 2
 247 -672 249 -674 250 -680 c 2
 250 -868 l 2
 250 -881 253 -893 260 -902 c 0
 267 -911 276 -916 287 -916 c 0
 291 -916 293 -918 293 -922 c 0
 293 -926 291 -928 287 -928 c 0
 277 -928 266 -927 253 -925 c 0
 238 -923 227 -922 220 -922 c 0
 219 -922 217 -922 216 -922 c 0
 208 -922 198 -923 186 -925 c 0
 171 -927 160 -928 152 -928 c 0
 148 -928 146 -926 146 -922 c 0
 146 -918 148 -916 152 -916 c 0
 163 -916 172 -911 180 -902 c 0
 186 -893 190 -881 190 -868 c 2
 190 -742 l 2
 190 -740 189 -738 187 -736 c 0
 185 -734 183 -733 181 -733 c 0
 179 -733 177 -734 176 -736 c 2
 144 -806 l 2
 142 -809 139 -811 136 -811 c 0
 135 -811 133 -810 132 -809 c 0
 130 -808 129 -806 129 -804 c 0
 129 -802 129 -801 130 -800 c 2
 190 -672 l 2xfd44
 190 -671 191 -670 192 -670 c 0
 194 -670 198 -672 204 -674 c 0
 210 -677 215 -678 220 -678 c 0
323 -672 m 0
 326 -672 328 -672 332 -674 c 2
 332 -674 340 -675 355 -676 c 0
 369 -678 382 -678 394 -678 c 0
 398 -678 402 -678 406 -678 c 0
 416 -678 426 -677 436 -676 c 0
 460 -673 l 2
 464 -672 467 -672 468 -672 c 0
 472 -672 475 -674 474 -676 c 0
 474 -678 474 -679 473 -680 c 0
 441 -712 396 -728 338 -728 c 0
 336 -728 334 -729 332 -730 c 0
 330 -732 330 -734 330 -736 c 2
 330 -786 l 1
 344 -771 362 -764 384 -764 c 0
 414 -764 437 -770 454 -784 c 0
 470 -798 478 -818 478 -846 c 0
 478 -870 469 -889 450 -905 c 0
 432 -920 409 -928 384 -928 c 0
 361 -928 341 -923 325 -913 c 0
 308 -903 300 -888 300 -870 c 0
 300 -861 303 -853 310 -846 c 0
 317 -840 325 -836 334 -836 c 0
 343 -836 351 -840 357 -846 c 0
 364 -853 367 -861 367 -870 c 0
 367 -874 364 -879 357 -884 c 0
 350 -889 346 -893 346 -898 c 0
 346 -910 359 -916 384 -916 c 0
 408 -916 420 -893 420 -846 c 0xfc64
 420 -801 408 -778 384 -778 c 0
 372 -778 363 -780 355 -782 c 0
 347 -785 341 -788 338 -792 c 0
 335 -795 332 -798 329 -800 c 0
 326 -803 324 -804 322 -804 c 0
 318 -804 315 -802 315 -797 c 2
 315 -680 l 2
 315 -675 318 -672 323 -672 c 0
EndSplineSet
Validated: 1
EndChar

StartChar: uniE054
Encoding: 57428 57428 179
Width: 641
Flags: W
HStem: -635 43<238.5 286 238.5 288.5> -262 43<303.5 349.5> 151 112 1252 12<220 226 352 359 442.5 466> 1402 15 1452 56
VStem: 2 72<-5.5 122.5> 173 60<40.5 47 6.5 82> 198 48 260 60<1312 1438 1438 1439> 385 14 428 42<-352.5 -333.5 -355.5 -329> 428 72<800.5 938> 490 59 574 71<-41 -15.5>
LayerCount: 2
Fore
SplineSet
393 1508 m 0xfe66
 396 1508 398 1508 402 1506 c 2
 402 1506 410 1505 425 1504 c 0
 435 1503 445 1502 454 1502 c 0
 457 1502 461 1502 464 1502 c 0
 479 1502 493 1502 506 1504 c 0
 530 1507 l 2
 534 1508 537 1508 538 1508 c 0
 542 1508 544 1506 544 1504 c 0
 544 1502 544 1501 543 1500 c 0
 511 1468 466 1452 408 1452 c 0
 406 1452 404 1451 402 1450 c 0
 400 1448 400 1446 400 1444 c 2
 400 1394 l 1
 414 1409 432 1416 454 1416 c 0
 484 1416 507 1410 524 1396 c 0
 540 1382 548 1362 548 1334 c 0
 548 1310 539 1291 520 1275 c 0
 502 1260 479 1252 454 1252 c 0
 431 1252 411 1257 395 1267 c 0
 378 1277 370 1292 370 1310 c 0
 370 1319 373 1327 380 1334 c 0
 387 1340 395 1344 404 1344 c 0
 413 1343 421 1340 427 1334 c 0
 434 1327 437 1319 437 1310 c 0
 437 1306 434 1301 427 1296 c 0
 420 1291 416 1287 416 1282 c 0
 416 1270 429 1264 454 1264 c 0
 478 1264 490 1287 490 1334 c 0
 490 1379 478 1402 454 1402 c 0
 442 1401 433 1400 425 1398 c 0
 417 1395 411 1392 408 1388 c 0
 405 1385 402 1382 399 1380 c 0
 396 1377 394 1375 392 1376 c 0
 388 1376 385 1378 385 1383 c 2
 385 1500 l 2
 385 1505 388 1508 393 1508 c 0xfe66
290 1502 m 0
 294 1502 298 1503 304 1505 c 0
 310 1507 313 1509 313 1508 c 1
 317 1508 319 1506 320 1500 c 2
 320 1312 l 2
 320 1299 323 1287 330 1278 c 0
 337 1269 346 1264 357 1264 c 0
 361 1264 363 1262 363 1258 c 0
 363 1254 361 1252 357 1252 c 0
 347 1252 336 1253 323 1255 c 0
 311 1257 301 1258 294 1258 c 0
 293 1258 291 1258 290 1258 c 0
 283 1258 271 1257 256 1255 c 0
 241 1253 230 1252 222 1252 c 0
 218 1252 216 1254 216 1258 c 0
 216 1262 218 1264 222 1264 c 0
 233 1264 242 1269 250 1278 c 0
 256 1287 260 1299 260 1312 c 2
 260 1438 l 2
 260 1440 259 1442 257 1444 c 0
 255 1446 253 1447 251 1447 c 0
 249 1447 247 1446 246 1444 c 2xfee2
 214 1374 l 2
 212 1371 209 1369 206 1369 c 0
 205 1369 203 1370 202 1371 c 0
 200 1372 199 1374 199 1376 c 0
 199 1378 199 1379 200 1380 c 2
 260 1508 l 2
 260 1509 261 1510 262 1510 c 0
 264 1509 268 1508 274 1506 c 0
 280 1503 285 1501 290 1502 c 0
376 262 m 0
 377 262 380 262 382 262 c 0
 386 263 388 263 389 263 c 0
 464 263 525 237 573 184 c 0
 621 132 645 71 645 2 c 0
 645 -84 609 -154 538 -208 c 0
 519 -223 494 -235 465 -244 c 1
 468 -283 470 -318 470 -349 c 0
 470 -362 469 -382 468 -407 c 0
 465 -469 444 -522 404 -568 c 0
 366 -612 317 -635 260 -635 c 0
 206 -635 160 -616 122 -578 c 0
 84 -539 65 -493 65 -438 c 0
 65 -409 76 -385 98 -365 c 0
 121 -345 147 -335 177 -335 c 0
 204 -335 226 -345 244 -366 c 0
 263 -386 272 -410 272 -438 c 0
 272 -464 263 -486 244 -505 c 0
 225 -524 203 -533 177 -533 c 0
 166 -533 156 -531 146 -527 c 1
 175 -570 214 -592 263 -592 c 0
 309 -592 347 -573 376 -536 c 0
 406 -498 423 -453 426 -401 c 0
 427 -377 428 -359 428 -346 c 0xfe72
 428 -312 427 -281 424 -254 c 1
 393 -259 364 -262 335 -262 c 0
 242 -262 163 -225 98 -152 c 0
 34 -78 2 10 2 112 c 0
 2 133 4 155 8 177 c 0
 13 199 18 218 23 236 c 0
 28 253 38 272 50 294 c 0
 64 317 74 335 82 348 c 0
 89 361 102 379 121 402 c 0
 140 425 153 442 161 451 c 0
 169 460 184 478 206 504 c 0
 229 529 243 546 250 553 c 1
 226 632 211 695 205 743 c 0
 200 784 198 836 198 899 c 0
 198 956 211 1011 238 1062 c 0
 264 1114 300 1157 347 1191 c 0
 350 1193 354 1194 357 1194 c 0
 362 1194 365 1193 367 1191 c 0
 403 1148 434 1092 460 1022 c 0
 487 952 500 889 500 833 c 0xfeea
 500 768 484 708 454 653 c 0
 422 598 378 536 320 469 c 1
 337 416 355 347 376 262 c 0
461 -203 m 1
 494 -191 522 -170 542 -138 c 0
 564 -108 574 -74 574 -39 c 0
 574 8 558 50 526 87 c 0
 494 124 452 146 401 151 c 1
 430 10 450 -108 461 -203 c 1
74 28 m 0
 74 -39 101 -96 154 -146 c 0
 208 -194 269 -219 338 -219 c 0
 366 -219 393 -217 420 -213 c 1
 409 -111 388 10 357 151 c 1
 319 147 289 134 266 111 c 0
 244 88 233 62 233 32 c 0
 233 -19 260 -60 314 -91 c 0
 319 -96 321 -101 321 -106 c 0
 321 -111 319 -116 314 -121 c 0
 310 -126 305 -128 299 -128 c 0
 297 -128 294 -127 290 -126 c 0
 251 -105 222 -78 202 -46 c 0
 183 -12 173 22 173 59 c 0xff62
 173 105 187 146 216 184 c 0
 245 220 284 245 333 256 c 1
 316 324 301 382 287 431 c 1
 259 400 238 375 222 357 c 0
 208 339 189 315 167 284 c 0
 145 254 128 227 117 203 c 0
 106 179 96 152 87 120 c 0
 78 90 74 59 74 28 c 0
408 1045 m 1
 359 1021 319 986 290 939 c 0
 261 892 246 841 246 786 c 0
 246 738 258 673 282 592 c 1
 329 649 365 702 390 753 c 0
 415 804 428 858 428 916 c 0xfeea
 428 960 421 1003 408 1045 c 1
EndSplineSet
Validated: 1
EndChar

StartChar: uniEB7C
Encoding: 60284 60284 180
Width: 256
Flags: W
HStem: 50 266
VStem: 622 20
LayerCount: 2
Fore
SplineSet
128 0 m 0
 121 0 118 3 118 10 c 0
 118 41 105 83 79 138 c 0
 53 192 28 229 4 248 c 0
 1 250 0 253 0 256 c 0
 0 263 3 266 10 266 c 0
 11 266 13 265 18 264 c 0
 21 263 35 261 60 258 c 0
 85 255 108 253 128 253 c 0
 148 253 171 255 196 258 c 0
 221 261 235 263 238 264 c 0
 241 265 244 266 246 266 c 0
 253 266 256 263 256 256 c 0
 256 253 255 250 252 248 c 0
 228 229 203 192 177 138 c 0
 151 83 138 41 138 10 c 0
 138 3 135 0 128 0 c 0
EndSplineSet
Validated: 1
EndChar

StartChar: uniE0B3
Encoding: 57523 57523 181
Width: 400
Flags: W
HStem: -177 38<183 219 183 228.5> 139 38<183 218.5>
VStem: 0 37<-16 16 -16 24.5> 172 56<0 0> 364 36<-16.5 16.5>
LayerCount: 2
Fore
SplineSet
201 177 m 0
 256 177 303 160 342 126 c 0
 380 91 400 49 400 0 c 0
 400 -49 380 -91 342 -126 c 0
 302 -160 256 -177 201 -177 c 0
 146 -177 98 -160 59 -126 c 0
 20 -91 0 -49 0 0 c 0
 0 49 20 91 59 126 c 0
 98 160 146 177 201 177 c 0
201 25 m 1
 299 111 l 1
 269 130 236 139 201 139 c 0
 165 139 132 130 101 111 c 1
 201 25 l 1
172 0 m 1
 73 87 l 1
 49 61 37 32 37 0 c 0
 37 -32 49 -61 73 -87 c 1
 172 0 l 1
228 0 m 1
 329 -87 l 1
 352 -62 364 -33 364 0 c 0
 364 33 352 62 329 87 c 1
 228 0 l 1
201 -25 m 1
 101 -111 l 1
 132 -130 165 -139 201 -139 c 0
 237 -139 270 -130 299 -111 c 1
 201 -25 l 1
EndSplineSet
Validated: 1
EndChar

StartChar: uniE270
Encoding: 57968 57968 182
Width: 203
Flags: W
HStem: 106 44<74 127>
VStem: -24 48<434 434> 126 79<35.5 47.5>
LayerCount: 2
Fore
SplineSet
24 434 m 2
 18 115 l 1
 47 138 79 150 114 150 c 0
 140 150 162 140 179 118 c 0
 196 98 205 73 205 45 c 0
 205 26 200 7 188 -10 c 0
 178 -27 166 -41 154 -52 c 0
 142 -62 125 -75 103 -92 c 0
 81 -108 65 -120 54 -128 c 0
 51 -131 46 -136 41 -144 c 0
 36 -151 30 -157 25 -161 c 0
 20 -165 14 -167 8 -167 c 0
 1 -167 -4 -164 -8 -160 c 0
 -13 -154 -15 -148 -15 -141 c 2
 -24 434 l 2
 -25 447 -29 453 -36 453 c 0
 -39 453 -51 447 -72 436 c 2
 -114 414 l 2
 -120 414 -123 417 -123 422 c 0
 -123 424 -122 426 -121 428 c 0
 -84 483 -51 552 -20 636 c 0
 -10 661 -4 673 0 673 c 0
 4 673 10 661 20 636 c 0
 51 552 84 483 121 428 c 0
 122 426 123 424 123 422 c 0
 123 417 120 414 114 414 c 2
 72 436 l 2
 51 447 39 453 36 453 c 0
 29 453 25 447 24 434 c 2
28 42 m 2
 27 -37 l 2
 27 -62 28 -85 31 -104 c 1
 51 -87 66 -73 78 -62 c 0
 88 -51 99 -37 110 -18 c 0
 121 1 126 19 126 38 c 0
 126 57 122 73 114 86 c 0
 106 99 95 106 82 106 c 0
 66 106 53 100 44 88 c 0
 34 75 29 60 28 42 c 2
EndSplineSet
Validated: 1
EndChar

StartChar: uniE241
Encoding: 57921 57921 183
Width: 307
Flags: W
HStem: 0 21G<0 32 0 0>
VStem: 0 32<0 19 0 256> 264 43<511.5 547 506.5 556.5>
LayerCount: 2
Fore
SplineSet
233 741 m 0
 249 741 265 716 282 666 c 0
 299 616 307 569 307 525 c 0
 307 488 298 450 279 412 c 0
 260 373 237 338 210 308 c 2
 128 216 l 2
 101 185 79 151 60 114 c 0
 41 76 32 38 32 0 c 1
 0 0 l 1
 0 256 l 1
 32 256 l 1
 55 270 81 288 112 310 c 0
 128 322 152 342 184 370 c 0
 209 393 229 417 243 444 c 0
 257 471 264 498 264 525 c 0
 264 588 246 651 209 714 c 0
 209 715 209 717 209 718 c 0
 209 724 211 729 215 733 c 0
 220 738 226 741 233 741 c 0
EndSplineSet
Validated: 1
EndChar

StartChar: uniE087
Encoding: 57479 57479 184
Width: 345
Flags: W
HStem: 105 94<177 263.5> 164 92<10 76.5>
VStem: 0 30<15 92 224.5 226 226 241>
LayerCount: 2
Fore
SplineSet
69 164 m 0x60
 59 164 50 158 42 146 c 0
 34 134 30 116 30 92 c 2
 30 15 l 2
 30 5 25 0 15 0 c 0
 5 0 0 5 0 15 c 2
 0 241 l 2
 0 251 5 256 15 256 c 0
 24 256 29 251 30 241 c 2
 30 226 l 2
 30 223 31 220 33 218 c 0
 35 214 37 212 40 211 c 0
 43 210 44 210 45 211 c 0
 67 241 94 256 125 256 c 0x60
 151 256 175 246 198 228 c 0
 221 208 240 199 255 199 c 0xa0
 272 199 287 204 302 213 c 0
 316 222 327 232 336 242 c 0
 344 251 349 256 352 256 c 0x60
 356 256 360 255 364 252 c 0
 367 249 369 246 369 242 c 0
 369 239 360 225 343 199 c 0
 326 173 307 143 286 109 c 0
 265 75 246 33 230 -18 c 0
 212 -69 204 -117 204 -164 c 0
 204 -175 205 -187 206 -198 c 0
 207 -210 208 -219 210 -226 c 0
 210 -233 211 -239 212 -244 c 0
 212 -245 212 -246 212 -247 c 0
 212 -251 211 -254 209 -256 c 0
 207 -258 204 -259 199 -259 c 2
 170 -251 l 2
 150 -246 133 -243 120 -243 c 0
 105 -243 89 -246 70 -251 c 0
 52 -256 42 -259 40 -259 c 0
 35 -259 32 -257 29 -254 c 0
 27 -251 27 -249 27 -247 c 0
 27 -245 27 -244 28 -242 c 0
 53 -183 83 -126 118 -70 c 0
 153 -15 196 49 249 122 c 1
 229 111 209 106 188 105 c 0xa0
 166 105 144 115 123 134 c 0
 102 154 84 164 69 164 c 0x60
EndSplineSet
Validated: 1
EndChar

StartChar: uniE460
Encoding: 58464 58464 185
Width: 565
Flags: W
VStem: -15 58
LayerCount: 2
Fore
SplineSet
302 0 m 0
 302 -7 299 -11 294 -14 c 2
 44 -141 l 1
 44 -460 l 2
 44 -470 38 -475 28 -475 c 2
 0 -475 l 2
 -10 -475 -15 -470 -15 -460 c 2
 -15 145 l 2
 -15 156 -11 162 -4 162 c 0
 -1 162 3 161 8 159 c 2
 294 14 l 2
 299 11 302 7 302 0 c 0
44 -79 m 1
 199 0 l 1
 44 80 l 1
 44 -79 l 1
EndSplineSet
Validated: 1
EndChar

StartChar: uniE0BB
Encoding: 57531 57531 186
Width: 506
Flags: W
HStem: -115 44<86 421 86 484>
LayerCount: 2
Fore
SplineSet
86 -71 m 1
 421 -71 l 1
 254 65 l 1
 86 -71 l 1
23 -115 m 2
 17 -115 12 -113 7 -108 c 0
 2 -104 0 -99 0 -93 c 0
 0 -86 3 -80 8 -76 c 2
 240 111 l 2
 243 114 248 115 254 115 c 0
 259 115 264 114 267 111 c 2
 499 -76 l 2
 504 -80 507 -86 507 -93 c 0
 507 -99 505 -104 500 -108 c 0
 496 -113 491 -115 484 -115 c 2
 23 -115 l 2
EndSplineSet
Validated: 1
EndChar

StartChar: uniEAA9
Encoding: 60073 60073 187
Width: 256
Flags: W
HStem: -1 114<158.662 220.5> 92 114<35.5 96.3846>
LayerCount: 2
Fore
SplineSet
179 -1 m 0x80
 167 -1 155 7 142 22 c 0
 129 37 115 53 98 68 c 0
 82 84 64 92 45 92 c 0
 26 92 10 86 -3 75 c 2
 -29 43 l 2
 -32 39 -36 37 -41 37 c 0
 -45 37 -49 39 -52 42 c 0
 -55 45 -57 48 -57 53 c 0
 -57 57 -56 60 -53 63 c 2
 56 195 l 2
 61 202 68 206 77 206 c 0x40
 89 206 101 198 114 183 c 0
 127 168 141 152 158 136 c 0
 174 121 192 113 211 113 c 0
 230 113 246 119 259 130 c 2
 285 162 l 2
 288 166 292 168 297 168 c 0
 301 168 305 167 308 164 c 0
 311 161 313 157 313 152 c 0
 313 148 312 144 309 141 c 2
 200 10 l 2
 194 3 187 -1 179 -1 c 0x80
EndSplineSet
Validated: 1
EndChar

StartChar: uniE8C9
Encoding: 59593 59593 188
Width: 272
Flags: W
HStem: 0 34<-261.5 240 -240 240 -240 256> 256 34<-240 240 -240 240> 512 34<-240 240 -240 240> 768 34<-240 240 -240 -240>
VStem: -272 32<34 256 290 512 546 768> 240 32<34 256 256 256 290 512 512 512 546 768 768 768>
LayerCount: 2
Fore
SplineSet
256 802 m 2
 267 802 272 796 272 784 c 2
 272 16 l 2
 272 5 267 0 256 0 c 2
 -256 0 l 2
 -267 0 -272 5 -272 16 c 2
 -272 784 l 2
 -272 796 -267 802 -256 802 c 2
 256 802 l 2
240 768 m 1
 -240 768 l 1
 -240 546 l 1
 240 546 l 1
 240 768 l 1
240 512 m 1
 -240 512 l 1
 -240 290 l 1
 240 290 l 1
 240 512 l 1
240 256 m 1
 -240 256 l 1
 -240 34 l 1
 240 34 l 1
 240 256 l 1
EndSplineSet
Validated: 1
EndChar

StartChar: uniEAAD
Encoding: 60077 60077 189
Width: 257
Flags: W
HStem: -62 328
VStem: -89 314
LayerCount: 2
Fore
SplineSet
-59 42 m 6
 -63 38 -68 36 -73 36 c 4
 -78 36 -82 38 -85 42 c 4
 -88 45 -89 48 -89 52 c 4
 -89 56 -87 60 -83 64 c 6
 11 152 l 6
 22 163 36 169 53 172 c 5
 15 252 l 6
 13 255 12 258 13 260 c 4
 13 264 16 266 21 266 c 4
 25 266 37 255 57 234 c 4
 77 213 103 189 135 162 c 4
 166 135 195 117 223 108 c 4
 224 108 225 106 225 102 c 4
 225 99 224 97 223 96 c 4
 195 87 166 69 135 42 c 4
 103 15 77 -9 57 -30 c 4
 37 -51 25 -62 21 -62 c 4
 17 -62 14 -61 13 -58 c 4
 13 -55 14 -52 15 -48 c 6
 59 46 l 5
 55 49 50 53 43 58 c 4
 34 66 28 71 25 74 c 4
 21 77 16 80 11 84 c 4
 6 87 0 88 -5 88 c 4
 -16 88 -25 83 -33 74 c 6
 -59 42 l 6
EndSplineSet
Validated: 1
EndChar

StartChar: uniE085
Encoding: 57477 57477 190
Width: 345
Flags: W
HStem: -256 24<144.5 191 142.5 193> 43 30<156 191> 144 112<40.5 77>
VStem: 0 93<-207.5 -130.5> 30 29<29 127 29 240> 239 118<-115.5 -64.5 -115.5 -47>
LayerCount: 2
Fore
SplineSet
46 256 m 0xec
 51 256 57 255 63 253 c 0
 65 252 81 251 110 248 c 0
 138 245 164 243 188 243 c 0
 218 243 246 245 272 248 c 0
 303 252 320 254 321 254 c 0
 328 255 333 256 336 256 c 0
 345 256 349 253 349 247 c 0
 349 244 348 242 346 240 c 0
 283 177 193 145 77 144 c 0
 72 144 68 142 64 139 c 0
 61 136 59 132 59 127 c 2
 59 29 l 1xec
 88 58 124 73 167 73 c 0
 228 73 275 59 308 32 c 0
 340 5 357 -37 357 -92 c 0
 357 -139 338 -178 301 -210 c 0
 264 -240 219 -256 167 -256 c 0
 122 -256 82 -246 50 -226 c 0
 16 -205 0 -177 0 -140 c 0
 0 -121 7 -106 20 -92 c 0
 33 -80 49 -73 68 -73 c 0
 86 -73 102 -80 114 -93 c 0
 128 -106 134 -122 134 -140 c 0
 134 -149 127 -158 114 -168 c 0
 100 -177 93 -186 93 -195 c 0xf4
 93 -220 118 -232 167 -232 c 0
 215 -232 239 -185 239 -92 c 0
 239 -2 215 43 167 43 c 0
 145 43 126 40 110 35 c 0
 94 30 83 24 76 17 c 0
 70 10 64 4 58 -1 c 0
 53 -6 48 -9 45 -9 c 0
 35 -9 30 -4 30 6 c 2
 30 240 l 2
 30 251 35 256 46 256 c 0xec
EndSplineSet
Validated: 1
EndChar

StartChar: uniE0DB
Encoding: 57563 57563 191
Width: 377
Flags: W
HStem: -128 268<106 196.5>
LayerCount: 2
Fore
SplineSet
339 141 m 0
 352 141 362 136 368 128 c 0
 375 118 378 110 378 101 c 0
 378 86 365 68 338 46 c 0
 312 23 296 7 290 -3 c 0
 286 -10 278 -27 266 -54 c 0
 255 -82 243 -103 230 -118 c 0
 217 -133 202 -140 184 -140 c 0
 177 -140 165 -138 148 -134 c 0
 131 -130 119 -128 110 -128 c 0
 102 -128 90 -130 73 -134 c 0
 56 -139 45 -141 38 -141 c 0
 25 -141 15 -136 9 -128 c 0
 3 -118 0 -110 0 -101 c 0
 0 -86 13 -68 40 -46 c 0
 66 -23 82 -7 88 3 c 0
 92 10 100 28 112 55 c 0
 123 82 135 103 148 118 c 0
 160 133 175 140 193 140 c 0
 200 140 212 138 229 134 c 0
 246 130 258 128 267 128 c 0
 275 128 287 130 304 134 c 0
 321 139 332 141 339 141 c 0
EndSplineSet
Validated: 1
EndChar

StartChar: uniE4E4
Encoding: 58596 58596 192
Width: 384
Flags: W
HStem: 0 160<6.5 374 10 374>
LayerCount: 2
Fore
SplineSet
374 0 m 2
 10 0 l 2
 3 0 0 3 0 10 c 2
 0 150 l 2
 0 157 3 160 10 160 c 2
 374 160 l 2
 381 160 384 157 384 150 c 2
 384 10 l 2
 384 3 381 0 374 0 c 2
EndSplineSet
Validated: 1
EndChar

StartChar: uniE006
Encoding: 57350 57350 193
Width: 466
Flags: W
HStem: -112 112<372 466 391 441>
LayerCount: 2
Fore
SplineSet
0 -373 m 0
 0 -370 1 -367 3 -364 c 0
 10 -355 26 -330 53 -289 c 0
 78 -251 97 -223 110 -204 c 0
 123 -185 143 -161 168 -130 c 0
 194 -99 217 -76 237 -60 c 0
 257 -45 281 -31 308 -18 c 0
 335 -6 363 0 391 0 c 2
 466 0 l 1
 466 -87 l 2
 466 -94 464 -100 459 -105 c 0
 454 -110 448 -112 441 -112 c 2
 391 -112 l 2
 353 -112 316 -119 282 -134 c 0
 246 -149 214 -170 183 -198 c 0
 152 -226 126 -254 102 -282 c 0
 80 -310 55 -343 29 -382 c 0
 26 -387 21 -389 16 -389 c 0
 11 -389 8 -387 4 -384 c 0
 2 -381 0 -377 0 -373 c 0
EndSplineSet
Validated: 1
EndChar

StartChar: uniE662
Encoding: 58978 58978 194
Width: 256
Flags: W
HStem: 0 21G<17 22.5 233.5 239> 260 39<115.5 140.5>
VStem: 0 39<19 171> 217 39<19 171>
LayerCount: 2
Fore
SplineSet
128 260 m 0
 103 260 82 251 65 234 c 0
 48 217 39 196 39 171 c 2
 39 19 l 2
 39 14 37 9 34 6 c 0
 30 2 25 0 20 0 c 0
 14 0 9 2 6 6 c 0
 2 9 0 14 0 19 c 2
 0 171 l 2
 0 206 12 236 38 262 c 0
 63 286 93 299 128 299 c 0
 163 299 194 286 218 262 c 0
 244 236 256 206 256 171 c 2
 256 19 l 2
 256 14 254 9 250 6 c 0
 247 2 242 0 236 0 c 0
 231 0 226 2 222 6 c 0
 219 9 217 14 217 19 c 2
 217 171 l 2
 217 196 208 217 191 234 c 0
 174 251 153 260 128 260 c 0
EndSplineSet
Validated: 1
EndChar

StartChar: uniE661
Encoding: 58977 58977 195
Width: 256
Flags: W
HStem: 0 39<115.5 140.5 115.5 145.5>
VStem: 0 39<128 280> 217 39<128 280>
LayerCount: 2
Fore
SplineSet
128 39 m 0
 153 39 174 48 191 65 c 0
 208 82 217 103 217 128 c 2
 217 280 l 2
 217 285 219 290 222 294 c 0
 226 297 231 299 236 299 c 0
 242 299 247 297 250 294 c 0
 254 290 256 285 256 280 c 2
 256 128 l 2
 256 93 244 62 218 38 c 0
 193 12 163 0 128 0 c 0
 93 0 62 12 38 38 c 0
 12 63 0 93 0 128 c 2
 0 280 l 2
 0 285 2 290 6 294 c 0
 9 297 14 299 20 299 c 0
 25 299 30 297 34 294 c 0
 37 290 39 285 39 280 c 2
 39 128 l 2
 39 103 48 82 65 65 c 0
 82 48 103 39 128 39 c 0
EndSplineSet
Validated: 1
EndChar

StartChar: uniE521
Encoding: 58657 58657 196
Width: 442
Flags: W
HStem: 0 21G<19 22 22 77 153.5 157 157 212> 226 61<61.5 122>
VStem: 288 89<21.5 64>
LayerCount: 2
Fore
SplineSet
-14 138 m 0
 -14 139 -12 144 -9 155 c 0
 0 181 14 208 34 235 c 0
 58 270 86 287 116 287 c 0
 128 287 138 282 145 271 c 0
 152 261 156 249 158 234 c 1
 181 269 206 286 235 287 c 0
 247 287 257 281 265 271 c 0
 273 260 278 247 280 232 c 1
 302 269 327 287 354 287 c 0
 370 287 383 280 395 267 c 0
 407 254 413 239 413 222 c 0
 413 217 412 213 411 208 c 2
 377 64 l 2
 376 63 376 61 376 59 c 0
 376 54 378 51 382 51 c 0
 389 51 400 57 414 68 c 0
 428 79 435 85 436 85 c 0
 440 85 442 83 442 80 c 0
 442 77 441 75 439 73 c 0
 409 44 388 25 376 17 c 0
 356 3 337 -4 320 -4 c 0
 310 -4 302 -1 297 5 c 0
 291 10 288 17 288 26 c 0
 288 28 288 31 289 36 c 2
 326 195 l 2
 328 201 328 205 328 208 c 0
 328 220 324 226 317 226 c 0
 309 226 301 223 293 216 c 0
 285 210 279 203 277 195 c 2
 224 10 l 2
 222 3 218 0 212 0 c 2
 157 0 l 2
 150 0 148 3 150 10 c 2
 202 195 l 2
 204 201 205 206 205 210 c 0
 205 220 201 226 193 226 c 0
 185 226 177 223 169 216 c 0
 161 210 156 203 153 195 c 2
 90 10 l 2
 88 3 84 0 77 0 c 2
 22 0 l 2
 16 0 14 3 16 10 c 2
 79 195 l 2
 81 202 82 207 82 209 c 0
 82 220 77 226 68 226 c 0
 55 226 43 217 32 199 c 0
 21 182 12 163 5 141 c 0
 3 135 -1 132 -8 132 c 0
 -12 133 -14 134 -14 138 c 0
EndSplineSet
Validated: 1
EndChar

StartChar: uniEB78
Encoding: 60280 60280 197
Width: 256
Flags: W
HStem: 512 266
VStem: 246 20
LayerCount: 2
Fore
SplineSet
128 266 m 0
 135 266 138 263 138 256 c 0
 138 225 151 183 177 128 c 0
 203 74 228 37 252 18 c 0
 255 16 256 13 256 10 c 0
 256 3 253 0 246 0 c 0
 245 0 243 1 238 2 c 0
 235 3 221 5 196 8 c 0
 171 11 148 13 128 13 c 0
 108 13 85 11 60 8 c 0
 35 5 21 3 18 2 c 0
 15 1 12 0 10 0 c 0
 3 0 0 3 0 10 c 0
 0 13 1 16 4 18 c 0
 28 37 53 74 79 128 c 0
 105 183 118 225 118 256 c 0
 118 263 121 266 128 266 c 0
EndSplineSet
Validated: 1
EndChar

StartChar: uniE4C1
Encoding: 58561 58561 198
Width: 678
Flags: W
HStem: -390 104<319.5 360.5> -138 138<330.5 349.5>
VStem: 0 39 271 138<-78.5 -59.5> 641 39
LayerCount: 2
Fore
SplineSet
271 -69 m 0
 271 -50 278 -33 291 -20 c 0
 304 -7 321 0 340 0 c 0
 359 0 376 -7 389 -20 c 0
 402 -33 409 -50 409 -69 c 0
 409 -88 402 -105 389 -118 c 0
 376 -131 359 -138 340 -138 c 0
 321 -138 304 -131 291 -118 c 0
 278 -105 271 -88 271 -69 c 0
340 -390 m 0
 299 -390 260 -382 224 -364 c 0
 187 -348 157 -326 134 -299 c 0
 110 -272 89 -244 71 -214 c 0
 53 -184 39 -154 29 -125 c 0
 19 -96 12 -72 7 -53 c 0
 2 -34 0 -22 0 -15 c 0
 0 -11 2 -8 6 -4 c 0
 10 -2 14 0 19 0 c 0
 30 0 36 -6 39 -18 c 0
 52 -95 87 -158 143 -210 c 0
 199 -260 265 -286 340 -286 c 0
 415 -286 481 -260 537 -210 c 0
 593 -158 628 -95 641 -18 c 0
 643 -6 650 0 661 0 c 0
 666 0 670 -2 674 -4 c 0
 678 -8 680 -11 680 -15 c 0
 680 -22 678 -34 673 -53 c 0
 668 -72 661 -96 651 -125 c 0
 641 -154 627 -184 609 -214 c 0
 591 -244 570 -272 546 -299 c 0
 523 -326 493 -347 456 -364 c 0
 420 -382 381 -390 340 -390 c 0
EndSplineSet
Validated: 1
EndChar

StartChar: uniE8C6
Encoding: 59590 59590 199
Width: 400
Flags: W
HStem: 0 24<-38.5 38.5 -38.5 55.5> 256 24<-341 341 -341 -341> 512 24<-341 341 -341 349 -349 341> 768 24<-38.5 38.5>
VStem: -400 32<375 395 375 449.5> 368 32<395 415.5>
LayerCount: 2
Fore
SplineSet
400 395 m 0
 400 286 361 192 283 116 c 0
 205 38 111 0 0 0 c 0
 -111 0 -205 38 -283 116 c 0
 -361 193 -400 286 -400 395 c 0
 -400 504 -361 598 -282 676 c 0
 -204 753 -110 792 0 792 c 0
 110 792 204 753 282 676 c 0
 361 598 400 504 400 395 c 0
341 256 m 1
 -341 256 l 1
 -314 187 -269 132 -208 88 c 0
 -146 46 -77 24 0 24 c 0
 77 24 146 46 208 88 c 0
 269 132 314 187 341 256 c 1
349 280 m 1
 361 317 367 355 368 395 c 0
 368 436 362 475 349 512 c 1
 -349 512 l 1
 -361 475 -367 436 -368 395 c 0
 -368 355 -362 317 -349 280 c 1
 349 280 l 1
-341 536 m 1
 341 536 l 1
 314 605 269 661 208 704 c 0
 146 746 77 768 0 768 c 0
 -77 768 -146 746 -208 704 c 0
 -269 660 -314 605 -341 536 c 1
EndSplineSet
Validated: 1
EndChar

StartChar: uniE0A7
Encoding: 57511 57511 200
Width: 439
Flags: W
HStem: -77 34<220 220> 43 34<220 220 220 221.5>
VStem: 106 44<0 0> 290 43<0 0 0 2>
LayerCount: 2
Fore
SplineSet
228 45 m 2
 226 44 223 43 220 43 c 0
 217 43 214 44 212 45 c 2
 101 120 l 1
 43 80 l 1
 142 12 l 2
 147 8 150 4 150 0 c 0
 150 -4 147 -8 142 -12 c 2
 43 -80 l 1
 101 -120 l 1
 212 -45 l 2
 214 -44 217 -43 220 -43 c 0
 223 -43 226 -44 228 -45 c 2
 338 -120 l 1
 396 -80 l 1
 298 -12 l 2
 293 -8 290 -4 290 0 c 0
 290 4 293 8 298 12 c 2
 396 80 l 1
 338 120 l 1
 228 45 l 2
220 77 m 1
 330 151 l 2
 332 153 335 154 338 154 c 0
 342 154 345 153 347 151 c 2
 432 93 l 2
 437 90 439 85 439 80 c 0
 439 75 437 71 432 68 c 2
 333 0 l 1
 432 -68 l 2
 437 -71 439 -75 439 -80 c 0
 439 -85 437 -90 432 -93 c 2
 347 -151 l 2
 345 -153 342 -154 338 -154 c 0
 335 -154 332 -153 330 -151 c 2
 220 -77 l 1
 110 -151 l 2
 108 -153 105 -154 101 -154 c 0
 97 -154 94 -153 92 -151 c 2
 7 -93 l 2
 2 -90 0 -85 0 -80 c 0
 0 -75 2 -71 7 -68 c 2
 106 0 l 1
 7 68 l 2
 2 71 0 75 0 80 c 0
 0 85 2 90 7 93 c 2
 92 151 l 2
 94 153 97 154 101 154 c 0
 104 154 107 153 110 151 c 2
 220 77 l 1
EndSplineSet
Validated: 1
EndChar

StartChar: uniE08D
Encoding: 57485 57485 201
Width: 256
Flags: W
HStem: -26 52<7.23511 102 154 248.765>
VStem: 102 52<-127.739 -26 26 127.739>
LayerCount: 2
Fore
SplineSet
128 -128 m 0
 121 -128 115 -125 110 -120 c 0
 105 -115 102 -109 102 -102 c 2
 102 -26 l 1
 26 -26 l 2
 19 -26 13 -23 8 -18 c 0
 3 -13 0 -7 0 0 c 0
 0 7 2 13 7 18 c 0
 12 23 18 26 26 26 c 2
 102 26 l 1
 102 102 l 2
 102 109 105 115 110 120 c 0
 115 125 121 128 128 128 c 0
 135 128 141 125 146 120 c 0
 151 115 154 109 154 102 c 2
 154 26 l 1
 230 26 l 2
 237 26 243 23 248 18 c 0
 253 13 256 7 256 0 c 0
 256 -7 254 -13 249 -18 c 0
 244 -23 238 -26 230 -26 c 2
 154 -26 l 1
 154 -102 l 2
 154 -109 151 -115 146 -120 c 0
 141 -125 135 -128 128 -128 c 0
EndSplineSet
Validated: 1
EndChar

StartChar: uniE4CE
Encoding: 58574 58574 202
Width: 118
Flags: W
HStem: 0 318
VStem: 54 64<123.086 252.044>
LayerCount: 2
Fore
SplineSet
54 170 m 0
 54 197 49 220 37 241 c 0
 27 262 21 274 21 279 c 0
 21 290 25 299 32 307 c 0
 39 314 48 318 59 318 c 0
 78 318 92 307 103 284 c 0
 113 261 118 239 118 217 c 0
 118 162 88 92 29 7 c 0
 26 2 21 0 15 0 c 0
 5 0 0 5 0 16 c 0
 0 18 5 26 14 41 c 0
 23 55 32 74 41 97 c 0
 50 121 54 145 54 170 c 0
EndSplineSet
Validated: 1
EndChar

StartChar: uniE063
Encoding: 57443 57443 203
Width: 688
Flags: W
HStem: -1097 12<100 106 232 239 322.5 346> -948 15 -897 56 -180 104<614.5 629.5> -89 211<109.5 129 109.5 129.5> 76 104<614.5 629.5> 243 26<219.5 264.5>
VStem: 0 217<4 33 4 53> 140 60<-1037 -912 -912 -911> 265 14 370 59 413 125<-14 34.5> 570 104<-135.5 -120.5 120.5 135.5>
LayerCount: 2
Fore
SplineSet
273 -841 m 0xe268
 276 -841 278 -842 282 -842 c 1
 282 -843 290 -844 305 -845 c 0
 319 -847 332 -848 344 -848 c 0
 359 -848 373 -847 386 -845 c 0
 410 -842 l 2
 414 -841 417 -841 418 -841 c 0
 422 -841 425 -842 424 -846 c 0
 424 -847 424 -848 423 -849 c 0
 391 -881 346 -897 288 -897 c 0
 286 -897 284 -898 282 -900 c 0
 280 -901 280 -903 280 -906 c 2
 280 -954 l 1
 294 -940 312 -933 334 -932 c 0
 364 -932 387 -939 404 -953 c 0
 420 -967 428 -987 428 -1015 c 0
 428 -1039 419 -1058 400 -1074 c 0
 382 -1089 359 -1097 334 -1097 c 0
 311 -1097 291 -1092 275 -1082 c 0
 258 -1072 250 -1057 250 -1039 c 0
 250 -1030 253 -1022 260 -1015 c 0
 267 -1009 275 -1006 284 -1006 c 0
 293 -1006 301 -1009 307 -1016 c 0
 314 -1022 317 -1030 317 -1039 c 0
 317 -1043 314 -1048 307 -1053 c 0
 300 -1058 296 -1062 296 -1066 c 0
 296 -1079 309 -1085 334 -1085 c 0
 358 -1085 370 -1062 370 -1015 c 0
 370 -970 358 -948 334 -948 c 0
 322 -948 313 -949 305 -952 c 0
 297 -954 291 -957 288 -960 c 0
 285 -964 282 -967 279 -970 c 0
 276 -972 274 -974 272 -974 c 0
 268 -974 265 -971 265 -966 c 2
 265 -849 l 2
 265 -844 268 -841 273 -841 c 0xe268
170 -848 m 0
 174 -848 178 -846 184 -844 c 0
 190 -842 193 -840 193 -840 c 2
 197 -840 199 -843 200 -849 c 2
 200 -1037 l 2
 200 -1050 203 -1062 210 -1071 c 0
 217 -1080 226 -1085 237 -1085 c 0
 241 -1085 243 -1087 243 -1091 c 0
 243 -1095 241 -1097 237 -1097 c 0
 227 -1097 216 -1096 203 -1094 c 0
 188 -1092 177 -1091 170 -1090 c 0
 163 -1090 151 -1092 136 -1094 c 0
 121 -1096 110 -1097 102 -1097 c 0
 98 -1097 96 -1095 96 -1091 c 0
 96 -1087 98 -1085 102 -1085 c 0
 113 -1085 122 -1080 130 -1071 c 0
 136 -1062 140 -1050 140 -1037 c 2
 140 -912 l 2
 140 -910 139 -907 137 -905 c 0
 135 -903 133 -902 131 -902 c 0
 129 -902 127 -903 126 -906 c 2
 94 -975 l 2
 92 -978 89 -980 86 -980 c 0
 85 -980 83 -979 82 -978 c 0
 80 -977 79 -975 79 -972 c 2
 79 -972 79 -970 80 -969 c 2
 140 -841 l 2xe2c8
 140 -840 141 -840 142 -840 c 0
 144 -840 148 -841 154 -844 c 0
 160 -846 165 -848 170 -848 c 0
570 128 m 0
 570 143 575 155 585 165 c 0
 595 175 607 180 622 180 c 0
 637 180 649 175 659 165 c 0
 669 155 674 143 674 128 c 0
 674 113 669 101 659 91 c 0
 649 81 637 76 622 76 c 0xe648
 607 76 595 81 585 91 c 0
 575 101 570 113 570 128 c 0
570 -128 m 0
 570 -113 575 -101 585 -91 c 0
 595 -81 607 -76 622 -76 c 0
 637 -76 649 -81 659 -91 c 0
 669 -101 674 -113 674 -128 c 0
 674 -143 669 -155 659 -165 c 0
 649 -175 637 -180 622 -180 c 0xf248
 607 -180 595 -175 585 -165 c 0
 575 -155 570 -143 570 -128 c 0
238 269 m 0
 328 269 400 246 456 202 c 0
 510 156 538 93 538 12 c 0
 538 -40 528 -90 506 -136 c 0
 486 -183 459 -225 427 -260 c 0
 395 -295 355 -330 306 -364 c 0
 257 -398 210 -426 164 -450 c 0
 65 -500 10 -525 0 -525 c 0
 -9 -525 -13 -521 -13 -512 c 0
 -13 -509 -12 -506 -9 -503 c 0
 39 -475 80 -449 116 -426 c 0
 151 -403 188 -374 228 -340 c 0
 267 -307 300 -274 324 -242 c 0
 350 -209 370 -172 388 -130 c 0
 404 -87 413 -43 413 2 c 0
 413 67 397 123 365 171 c 0
 333 219 291 243 238 243 c 0
 201 243 169 231 142 207 c 0
 114 183 93 152 80 114 c 1
 92 119 104 122 115 122 c 0
 143 122 167 112 187 92 c 0
 207 71 217 47 217 19 c 0
 217 -11 207 -36 188 -58 c 0
 168 -78 144 -89 115 -89 c 0
 84 -89 57 -78 34 -58 c 0
 12 -36 0 -11 0 19 c 0xeb58
 0 87 23 146 70 195 c 0
 116 244 172 269 238 269 c 0
EndSplineSet
Validated: 1
EndChar

StartChar: uniE066
Encoding: 57446 57446 204
Width: 688
Flags: W
HStem: -180 104<614.5 629.5> -89 211<109.5 129 109.5 129.5> 76 104<614.5 629.5> 243 26<219.5 264.5> 323 12<100 106 232 239 322.5 346> 472 15 518 62<130 143>
VStem: 0 217<4 33 4 53> 140 60<383 508 508 509> 265 14 370 59 413 125<-14 34.5> 570 104<-135.5 -120.5 120.5 135.5>
LayerCount: 2
Fore
SplineSet
570 128 m 0x3e48
 570 143 575 155 585 165 c 0
 595 175 607 180 622 180 c 0
 637 180 649 175 659 165 c 0
 669 155 674 143 674 128 c 0
 674 113 669 101 659 91 c 0
 649 81 637 76 622 76 c 0
 607 76 595 81 585 91 c 0
 575 101 570 113 570 128 c 0x3e48
570 -128 m 0
 570 -113 575 -101 585 -91 c 0
 595 -81 607 -76 622 -76 c 0
 637 -76 649 -81 659 -91 c 0
 669 -101 674 -113 674 -128 c 0
 674 -143 669 -155 659 -165 c 0
 649 -175 637 -180 622 -180 c 0x9e48
 607 -180 595 -175 585 -165 c 0
 575 -155 570 -143 570 -128 c 0
238 269 m 0
 328 269 400 246 456 202 c 0
 510 156 538 93 538 12 c 0
 538 -40 528 -90 506 -136 c 0
 486 -183 459 -225 427 -260 c 0
 395 -295 355 -330 306 -364 c 0
 257 -398 210 -426 164 -450 c 0
 65 -500 10 -525 0 -525 c 0
 -9 -525 -13 -521 -13 -512 c 0
 -13 -509 -12 -506 -9 -503 c 0
 39 -475 80 -449 116 -426 c 0
 151 -403 188 -374 228 -340 c 0
 267 -307 300 -274 324 -242 c 0
 350 -209 370 -172 388 -130 c 0
 404 -87 413 -43 413 2 c 0
 413 67 397 123 365 171 c 0
 333 219 291 243 238 243 c 0
 201 243 169 231 142 207 c 0
 114 183 93 152 80 114 c 1
 92 119 104 122 115 122 c 0
 143 122 167 112 187 92 c 0
 207 71 217 47 217 19 c 0
 217 -11 207 -36 188 -58 c 0
 168 -78 144 -89 115 -89 c 0
 84 -89 57 -78 34 -58 c 0
 12 -36 0 -11 0 19 c 0x5f58
 0 87 23 146 70 195 c 0
 116 244 172 269 238 269 c 0
170 572 m 0
 174 572 178 574 184 576 c 0
 190 578 193 580 193 580 c 2
 197 580 199 577 200 571 c 2
 200 383 l 2
 200 370 203 358 210 349 c 0
 217 340 226 335 237 335 c 0
 241 335 243 333 243 329 c 0
 243 325 241 323 237 323 c 0
 227 323 216 324 203 326 c 0
 188 328 177 330 170 330 c 0
 163 330 151 328 136 326 c 0
 121 324 110 323 102 323 c 0
 98 323 96 325 96 329 c 0
 96 333 98 335 102 335 c 0
 113 335 122 340 130 349 c 0
 136 358 140 370 140 383 c 2
 140 508 l 2
 140 510 139 513 137 515 c 0
 135 517 133 518 131 518 c 0
 129 518 127 517 126 514 c 2
 94 445 l 2
 92 442 89 440 86 440 c 0
 85 440 83 441 82 442 c 0
 80 443 79 445 79 448 c 0
 79 449 79 450 80 451 c 2
 140 579 l 2x1ec8
 140 580 141 580 142 580 c 0
 144 580 148 579 154 576 c 0
 160 574 165 572 170 572 c 0
273 579 m 0
 276 579 278 578 282 578 c 1
 282 577 290 576 305 575 c 0
 319 573 332 572 344 572 c 0
 359 573 373 573 386 575 c 0
 410 578 l 2
 414 579 417 579 418 579 c 0
 422 579 425 578 424 574 c 0
 424 573 424 572 423 571 c 0
 391 539 346 523 288 523 c 0
 286 523 284 522 282 520 c 0
 280 519 280 517 280 514 c 2
 280 466 l 1
 294 480 312 488 334 488 c 0
 364 487 387 481 404 467 c 0
 420 453 428 433 428 405 c 0
 428 381 419 362 400 346 c 0
 382 331 359 323 334 323 c 0
 311 323 291 328 275 338 c 0
 258 348 250 363 250 381 c 0
 250 390 253 398 260 405 c 0
 267 411 275 414 284 414 c 0
 293 414 301 411 307 404 c 0
 314 398 317 390 317 381 c 0
 317 377 314 372 307 367 c 0
 300 362 296 358 296 354 c 0
 296 341 309 335 334 335 c 0
 358 335 370 358 370 405 c 0x1e68
 370 450 358 472 334 472 c 0
 322 472 313 471 305 468 c 0
 297 466 291 463 288 460 c 0
 285 456 282 453 279 450 c 0
 276 448 274 446 272 446 c 0
 268 446 265 449 265 454 c 2
 265 571 l 2
 265 576 268 579 273 579 c 0
EndSplineSet
Validated: 1
EndChar

StartChar: uniE59D
Encoding: 58781 58781 205
Width: 214
Flags: HW
HStem: 0 259
VStem: 0 263
LayerCount: 2
Fore
SplineSet
170 10 m 6
 69 132 l 5
 37 84 l 6
 33 78 27 75 20 75 c 4
 15 75 10 77 6 81 c 4
 2 85 0 90 0 95 c 4
 0 100 1 103 3 106 c 6
 98 250 l 6
 102 256 108 259 116 259 c 4
 122 259 127 257 131 252 c 4
 263 102 l 5
 203 9 l 4
 199 3 193 0 185 0 c 4
 179 0 174 5 170 10 c 6
98 250 m 1030
131 252 m 1030
185 0 m 1028
EndSplineSet
Validated: 1
EndChar

StartChar: uniE050
Encoding: 57424 57424 206
Width: 641
Flags: W
HStem: -635 43<189.57 337.406> -533 198<146.469 235.266> -262 43<235.468 419.194> 151 112<288.361 333 401 473.542>
VStem: 2 72<-26.2948 150.105> 65 207<-498.452 -376.678> 173 60<-33.1855 98.2193> 198 48<672.919 927.5> 428 72<790.214 970.983> 428 42<-482.105 -254> 574 71<-105.409 49.0738>
DStem2: 121 402 167 284 0.646482 0.762929<-158.353 129.441 163.566 213.056 249.04 417.942> 282 592 250 553 0.269149 -0.963099<-183.96 0 156.405 337.328> 401 151 357 151 0.140541 -0.990075<0 208.633>
LayerCount: 2
Fore
SplineSet
376 262 m 0xf9a0
 377 262 380 262 382 262 c 0
 386 263 388 263 389 263 c 3
 464 263 525 237 573 184 c 0
 621 132 645 71 645 2 c 3
 645 -84 609 -154 538 -208 c 0
 519 -223 494 -235 465 -244 c 1
 468 -283 470 -318 470 -349 c 3
 470 -362 469 -382 468 -407 c 0
 465 -469 444 -522 404 -568 c 0
 366 -612 317 -635 260 -635 c 3
 206 -635 160 -616 122 -578 c 0
 84 -539 65 -493 65 -438 c 3
 65 -409 76 -385 98 -365 c 0
 121 -345 147 -335 177 -335 c 3
 204 -335 226 -345 244 -366 c 0
 263 -386 272 -410 272 -438 c 3
 272 -464 263 -486 244 -505 c 0
 225 -524 203 -533 177 -533 c 0
 166 -533 156 -531 146 -527 c 1
 175 -570 214 -592 263 -592 c 3
 309 -592 347 -573 376 -536 c 0
 406 -498 423 -453 426 -401 c 0
 427 -377 428 -359 428 -346 c 3xf460
 428 -312 427 -281 424 -254 c 1
 393 -259 364 -262 335 -262 c 3
 242 -262 163 -225 98 -152 c 0
 34 -78 2 10 2 112 c 7
 2 133 4 155 8 177 c 0
 13 199 18 218 23 236 c 0
 28 253 38 272 50 294 c 0
 64 317 74 335 82 348 c 0
 89 361 102 379 121 402 c 0
 140 425 153 442 161 451 c 0
 169 460 184 478 206 504 c 0
 229 529 243 546 250 553 c 1
 226 632 211 695 205 743 c 0
 200 784 198 836 198 899 c 3
 198 956 211 1011 238 1062 c 0
 264 1114 300 1157 347 1191 c 0
 350 1193 354 1194 357 1194 c 3
 362 1194 365 1193 367 1191 c 0
 403 1148 434 1092 460 1022 c 0
 487 952 500 889 500 833 c 3
 500 768 484 708 454 653 c 0
 422 598 378 536 320 469 c 1
 337 416 355 347 376 262 c 0xf9a0
461 -203 m 1
 494 -191 522 -170 542 -138 c 0
 564 -108 574 -74 574 -39 c 3
 574 8 558 50 526 87 c 0
 494 124 452 146 401 151 c 1
 430 10 450 -108 461 -203 c 1
74 28 m 3xfa20
 74 -39 101 -96 154 -146 c 0
 208 -194 269 -219 338 -219 c 3
 366 -219 393 -217 420 -213 c 1
 409 -111 388 10 357 151 c 1
 319 147 289 134 266 111 c 0
 244 88 233 62 233 32 c 3
 233 -19 260 -60 314 -91 c 0
 319 -96 321 -101 321 -106 c 3
 321 -111 319 -116 314 -121 c 0
 310 -126 305 -128 299 -128 c 3
 297 -128 294 -127 290 -126 c 0
 251 -105 222 -78 202 -46 c 0
 183 -12 173 22 173 59 c 3
 173 105 187 146 216 184 c 0
 245 220 284 245 333 256 c 1
 316 324 301 382 287 431 c 1
 259 400 238 375 222 357 c 0
 208 339 189 315 167 284 c 0
 145 254 128 227 117 203 c 0
 106 179 96 152 87 120 c 0
 78 90 74 59 74 28 c 3xfa20
408 1045 m 1
 359 1021 319 986 290 939 c 0
 261 892 246 841 246 786 c 3
 246 738 258 673 282 592 c 1
 329 649 365 702 390 753 c 0
 415 804 428 858 428 916 c 3xf1a0
 428 960 421 1003 408 1045 c 1
EndSplineSet
Validated: 1
EndChar

StartChar: uniE0B1
Encoding: 57521 57521 207
Width: 400
Flags: W
HStem: -177 38<183 219 183 228.5> 139 38<183 218.5>
VStem: 0 37<-16 16 -16 24.5> 172 56<0 0> 364 36<-16.5 16.5>
LayerCount: 2
Fore
SplineSet
201 177 m 0
 256 177 303 160 342 126 c 0
 380 91 400 49 400 0 c 0
 400 -49 380 -91 342 -126 c 0
 302 -160 256 -177 201 -177 c 0
 146 -177 98 -160 59 -126 c 0
 20 -91 0 -49 0 0 c 0
 0 49 20 91 59 126 c 0
 98 160 146 177 201 177 c 0
201 25 m 1
 299 111 l 1
 269 130 236 139 201 139 c 0
 165 139 132 130 101 111 c 1
 201 25 l 1
172 0 m 1
 73 87 l 1
 49 61 37 32 37 0 c 0
 37 -32 49 -61 73 -87 c 1
 172 0 l 1
228 0 m 1
 329 -87 l 1
 352 -62 364 -33 364 0 c 0
 364 33 352 62 329 87 c 1
 228 0 l 1
201 -25 m 1
 101 -111 l 1
 132 -130 165 -139 201 -139 c 0
 237 -139 270 -130 299 -111 c 1
 201 -25 l 1
EndSplineSet
Validated: 1
EndChar

StartChar: uniE4EA
Encoding: 58602 58602 208
Width: 384
Flags: W
HStem: -457 55 -201 55 55 55 311 55 567 55
VStem: -61 134 -10 134 42 134 85 56<-768 -768> 93 134 145 136
LayerCount: 2
Fore
SplineSet
219 722 m 0xf820
 238 722 253 717 263 706 c 0
 273 695 279 684 280 672 c 0
 282 659 285 648 290 638 c 0
 295 627 302 622 312 622 c 0
 321 622 335 643 355 686 c 0
 358 692 363 696 369 696 c 2
 370 696 l 2
 377 695 381 692 384 686 c 2
 141 -768 l 1
 134 -775 124 -778 113 -778 c 0
 102 -778 93 -775 85 -768 c 1
 147 -431 l 1
 100 -448 61 -457 28 -457 c 0
 4 -457 -17 -449 -34 -434 c 0
 -52 -419 -61 -399 -61 -376 c 0
 -61 -355 -54 -338 -40 -324 c 0
 -25 -309 -8 -302 12 -302 c 0
 31 -302 46 -307 56 -318 c 0
 66 -329 72 -340 74 -352 c 0xfca0
 75 -365 78 -376 83 -386 c 0
 88 -397 95 -402 105 -402 c 0
 114 -402 126 -392 142 -372 c 0
 157 -351 166 -336 167 -325 c 2
 195 -176 l 1
 148 -193 110 -201 79 -201 c 0
 55 -201 34 -193 16 -178 c 0
 -1 -163 -10 -143 -10 -120 c 0
 -10 -99 -3 -82 12 -68 c 0
 26 -53 43 -46 63 -46 c 0
 82 -46 97 -51 107 -62 c 0
 117 -73 123 -84 124 -96 c 0xfa
 126 -109 129 -120 134 -130 c 0
 139 -141 146 -146 157 -146 c 0
 165 -146 176 -136 190 -116 c 0
 204 -97 212 -82 214 -72 c 2
 242 79 l 1
 200 63 163 55 131 55 c 0
 107 55 86 63 68 78 c 0
 51 93 42 113 42 136 c 0
 42 157 49 174 64 188 c 0
 78 203 95 210 116 210 c 0
 135 210 150 205 160 194 c 0
 169 183 175 172 176 160 c 0xf9
 178 147 182 136 186 126 c 0
 192 115 199 110 209 110 c 0
 216 110 226 120 239 138 c 0
 252 158 259 172 261 182 c 2
 290 334 l 1
 248 319 212 311 182 311 c 0
 158 311 137 319 120 334 c 0
 102 349 93 369 93 392 c 0
 93 413 100 430 114 444 c 0
 129 459 146 466 167 466 c 0
 186 466 201 461 210 450 c 0
 220 439 226 428 228 416 c 0xf840
 229 403 233 392 238 382 c 0
 242 371 250 366 260 366 c 0
 267 366 276 375 288 394 c 0
 299 412 306 426 308 435 c 2
 337 590 l 1
 297 575 263 567 234 567 c 0
 210 567 189 575 172 590 c 0
 154 605 145 625 145 648 c 0
 145 669 152 686 166 700 c 0
 181 715 198 722 219 722 c 0xf820
EndSplineSet
Validated: 1
EndChar

StartChar: uniE0B0
Encoding: 57520 57520 209
Width: 400
Flags: W
HStem: -177 38<183 219 183 228.5> 139 38<183 218.5>
VStem: 0 37<-16 16 -16 24.5> 172 56<0 0> 364 36<-16.5 16.5>
LayerCount: 2
Fore
SplineSet
201 177 m 0
 256 177 303 160 342 126 c 0
 380 91 400 49 400 0 c 0
 400 -49 380 -91 342 -126 c 0
 302 -160 256 -177 201 -177 c 0
 146 -177 98 -160 59 -126 c 0
 20 -91 0 -49 0 0 c 0
 0 49 20 91 59 126 c 0
 98 160 146 177 201 177 c 0
201 25 m 1
 299 111 l 1
 269 130 236 139 201 139 c 0
 165 139 132 130 101 111 c 1
 201 25 l 1
172 0 m 1
 73 87 l 1
 49 61 37 32 37 0 c 0
 37 -32 49 -61 73 -87 c 1
 172 0 l 1
228 0 m 1
 329 -87 l 1
 352 -62 364 -33 364 0 c 0
 364 33 352 62 329 87 c 1
 228 0 l 1
201 -25 m 1
 101 -111 l 1
 132 -130 165 -139 201 -139 c 0
 237 -139 270 -130 299 -111 c 1
 201 -25 l 1
EndSplineSet
Validated: 1
EndChar

